<?xml version="1.0" encoding="UTF-8" standalone="no"?>
<!DOCTYPE svg PUBLIC "-//W3C//DTD SVG 1.1//EN" "http://www.w3.org/Graphics/SVG/1.1/DTD/svg11.dtd">
<svg width="100%" height="100%" viewBox="0 0 2864 1242" version="1.1" xmlns="http://www.w3.org/2000/svg" xmlns:xlink="http://www.w3.org/1999/xlink" xml:space="preserve" xmlns:serif="http://www.serif.com/" style="fill-rule:evenodd;clip-rule:evenodd;stroke-linejoin:round;stroke-miterlimit:2;">
    <g transform="matrix(3.72965,0,0,-3.72965,-659.242,2104.51)">
        <g id="PMAC-Secretarias">
            <g id="g6694">
                <g id="g278" transform="matrix(1,0,0,1,273.432,412.443)">
                    <path id="path280" d="M0,0C-5.201,-2.228 -10.115,-4.331 -16.482,-4.331C-22.85,-4.331 -27.763,-2.228 -32.965,0C-38.188,2.236 -43.591,4.55 -50.513,4.55C-57.436,4.55 -62.837,2.236 -68.061,0C-69.12,-0.453 -70.168,-0.896 -71.218,-1.323L-71.218,-4.236C-69.782,-3.677 -68.381,-3.082 -66.995,-2.488C-61.794,-0.261 -56.88,1.843 -50.513,1.843C-44.146,1.843 -39.232,-0.261 -34.03,-2.488C-28.807,-4.725 -23.404,-7.038 -16.482,-7.038C-9.56,-7.038 -4.158,-4.725 1.065,-2.488C4.177,-1.156 7.219,0.071 10.496,0.892L10.496,3.66C6.717,2.789 3.299,1.413 0,0" style="fill:white;fill-rule:nonzero;"/>
                </g>
                <g id="g282" transform="matrix(1,0,0,1,273.432,428.036)">
                    <path id="path284" d="M0,0C-5.201,-2.227 -10.115,-4.331 -16.482,-4.331C-22.85,-4.331 -27.763,-2.227 -32.965,0C-38.188,2.237 -43.591,4.55 -50.513,4.55C-57.436,4.55 -62.837,2.237 -68.061,0C-69.12,-0.453 -70.168,-0.896 -71.218,-1.322L-71.218,-4.236C-69.782,-3.677 -68.381,-3.081 -66.995,-2.488C-61.794,-0.262 -56.88,1.843 -50.513,1.843C-44.146,1.843 -39.232,-0.262 -34.03,-2.488C-28.807,-4.725 -23.404,-7.038 -16.482,-7.038C-9.56,-7.038 -4.158,-4.725 1.065,-2.488C4.177,-1.156 7.219,0.071 10.496,0.892L10.496,3.661C6.717,2.789 3.299,1.413 0,0" style="fill:white;fill-rule:nonzero;"/>
                </g>
                <g id="g286" transform="matrix(1,0,0,1,273.432,443.63)">
                    <path id="path288" d="M0,0C-5.201,-2.228 -10.115,-4.331 -16.482,-4.331C-22.85,-4.331 -27.763,-2.228 -32.965,0C-38.188,2.236 -43.591,4.549 -50.513,4.549C-57.436,4.549 -62.837,2.236 -68.061,0C-69.12,-0.454 -70.168,-0.896 -71.218,-1.323L-71.218,-4.236C-69.782,-3.678 -68.381,-3.082 -66.995,-2.488C-61.794,-0.262 -56.88,1.843 -50.513,1.843C-44.146,1.843 -39.232,-0.262 -34.03,-2.488C-28.807,-4.726 -23.404,-7.038 -16.482,-7.038C-9.56,-7.038 -4.158,-4.726 1.065,-2.488C4.177,-1.156 7.219,0.07 10.496,0.891L10.496,3.66C6.717,2.789 3.299,1.413 0,0" style="fill:white;fill-rule:nonzero;"/>
                </g>
                <g id="g290" transform="matrix(1,0,0,1,211.301,466.586)">
                    <path id="path292" d="M0,0C-1.465,0 -2.867,0.249 -4.206,0.746C-5.545,1.244 -6.783,2.008 -7.923,3.039L-5.915,5.427C-4.992,4.631 -4.057,4.021 -3.106,3.596C-2.157,3.17 -1.095,2.958 0.081,2.958C1.112,2.958 1.931,3.179 2.537,3.623C3.143,4.065 3.446,4.64 3.446,5.346L3.446,5.399C3.446,5.743 3.388,6.047 3.27,6.309C3.152,6.571 2.935,6.819 2.618,7.055C2.302,7.29 1.868,7.507 1.316,7.706C0.764,7.905 0.045,8.104 -0.841,8.304C-1.854,8.538 -2.754,8.806 -3.541,9.104C-4.328,9.402 -4.988,9.764 -5.521,10.189C-6.056,10.614 -6.463,11.134 -6.743,11.749C-7.023,12.364 -7.163,13.106 -7.163,13.975L-7.163,14.028C-7.163,14.843 -7.001,15.589 -6.675,16.268C-6.35,16.945 -5.901,17.524 -5.332,18.004C-4.762,18.482 -4.079,18.858 -3.283,19.13C-2.487,19.401 -1.619,19.537 -0.678,19.537C0.715,19.537 1.968,19.333 3.08,18.927C4.192,18.52 5.237,17.927 6.214,17.149L4.423,14.626C3.555,15.259 2.695,15.742 1.846,16.077C0.995,16.412 0.136,16.579 -0.732,16.579C-1.709,16.579 -2.469,16.362 -3.012,15.928C-3.555,15.494 -3.826,14.96 -3.826,14.327L-3.826,14.272C-3.826,13.911 -3.763,13.59 -3.636,13.31C-3.51,13.029 -3.274,12.775 -2.931,12.55C-2.587,12.323 -2.126,12.111 -1.547,11.912C-0.968,11.713 -0.217,11.505 0.706,11.288C1.7,11.034 2.578,10.754 3.338,10.447C4.098,10.139 4.735,9.764 5.251,9.32C5.767,8.877 6.15,8.361 6.404,7.774C6.657,7.187 6.784,6.503 6.784,5.726L6.784,5.671C6.784,4.785 6.616,3.989 6.281,3.283C5.947,2.578 5.481,1.98 4.885,1.492C4.287,1.004 3.572,0.633 2.74,0.38C1.908,0.127 0.995,0 0,0" style="fill:white;fill-rule:nonzero;"/>
                </g>
                <g id="g294" transform="matrix(1,0,0,1,225.819,485.852)">
                    <path id="path296" d="M0,0L14.082,0L14.082,-2.985L3.337,-2.985L3.337,-7.924L12.861,-7.924L12.861,-10.908L3.337,-10.908L3.337,-16.01L14.218,-16.01L14.218,-18.994L0,-18.994L0,0Z" style="fill:white;fill-rule:nonzero;"/>
                </g>
                <g id="g298" transform="matrix(1,0,0,1,256.616,466.532)">
                    <path id="path300" d="M0,0C-1.394,0 -2.678,0.253 -3.854,0.76C-5.029,1.266 -6.047,1.957 -6.905,2.835C-7.765,3.712 -8.438,4.748 -8.927,5.942C-9.416,7.136 -9.66,8.411 -9.66,9.768L-9.66,9.822C-9.66,11.179 -9.42,12.449 -8.94,13.635C-8.462,14.819 -7.787,15.859 -6.919,16.755C-6.051,17.65 -5.02,18.355 -3.826,18.871C-2.632,19.387 -1.312,19.645 0.136,19.645C1.004,19.645 1.795,19.572 2.51,19.43C3.225,19.286 3.88,19.084 4.478,18.824C5.074,18.564 5.626,18.255 6.133,17.896C6.639,17.538 7.118,17.144 7.57,16.714L5.427,14.245C4.667,14.95 3.862,15.521 3.012,15.954C2.161,16.389 1.194,16.605 0.108,16.605C-0.796,16.605 -1.633,16.429 -2.401,16.075C-3.171,15.722 -3.831,15.241 -4.382,14.635C-4.935,14.027 -5.368,13.315 -5.685,12.5C-6.001,11.685 -6.159,10.814 -6.159,9.89L-6.159,9.836C-6.159,8.911 -6.006,8.036 -5.698,7.212C-5.391,6.387 -4.957,5.671 -4.396,5.063C-3.835,4.457 -3.171,3.977 -2.401,3.623C-1.633,3.27 -0.796,3.093 0.108,3.093C1.266,3.093 2.261,3.31 3.094,3.744C3.925,4.179 4.748,4.775 5.562,5.535L7.706,3.364C7.218,2.839 6.706,2.374 6.173,1.967C5.64,1.56 5.064,1.207 4.45,0.908C3.835,0.61 3.161,0.384 2.429,0.23C1.696,0.077 0.886,0 0,0" style="fill:white;fill-rule:nonzero;"/>
                </g>
                <g id="g302" transform="matrix(1,0,0,1,279.842,476.436)">
                    <path id="path304" d="M0,0C1.193,0 2.144,0.285 2.849,0.855C3.555,1.425 3.907,2.198 3.907,3.175L3.907,3.229C3.907,4.261 3.563,5.043 2.876,5.576C2.188,6.109 1.221,6.377 -0.027,6.377L-4.885,6.377L-4.885,0L0,0ZM-8.222,9.416L0.244,9.416C1.437,9.416 2.496,9.248 3.419,8.914C4.341,8.579 5.109,8.113 5.725,7.517C6.231,6.991 6.62,6.386 6.892,5.698C7.163,5.011 7.299,4.251 7.299,3.419L7.299,3.365C7.299,1.809 6.878,0.557 6.037,-0.394C5.196,-1.343 4.115,-2.008 2.795,-2.388L7.923,-9.578L3.961,-9.578L-0.706,-2.957L-4.885,-2.957L-4.885,-9.578L-8.222,-9.578L-8.222,9.416Z" style="fill:white;fill-rule:nonzero;"/>
                </g>
                <g id="g306" transform="matrix(1,0,0,1,295.038,485.852)">
                    <path id="path308" d="M0,0L14.082,0L14.082,-2.985L3.337,-2.985L3.337,-7.924L12.861,-7.924L12.861,-10.908L3.337,-10.908L3.337,-16.01L14.218,-16.01L14.218,-18.994L0,-18.994L0,0Z" style="fill:white;fill-rule:nonzero;"/>
                </g>
                <g id="g310" transform="matrix(1,0,0,1,321.683,482.758)">
                    <path id="path312" d="M0,0L-6.024,0L-6.024,3.094L9.389,3.094L9.389,0L3.364,0L3.364,-15.9L0,-15.9L0,0Z" style="fill:white;fill-rule:nonzero;"/>
                </g>
                <g id="g314" transform="matrix(1,0,0,1,349.903,474.401)">
                    <path id="path316" d="M0,0L-3.283,7.598L-6.54,0L0,0ZM-4.776,11.587L-1.683,11.587L6.675,-7.543L3.147,-7.543L1.221,-2.957L-7.761,-2.957L-9.714,-7.543L-13.133,-7.543L-4.776,11.587Z" style="fill:white;fill-rule:nonzero;"/>
                </g>
                <g id="g318" transform="matrix(1,0,0,1,371.854,476.436)">
                    <path id="path320" d="M0,0C1.193,0 2.144,0.285 2.849,0.855C3.555,1.425 3.907,2.198 3.907,3.175L3.907,3.229C3.907,4.261 3.563,5.043 2.876,5.576C2.188,6.109 1.221,6.377 -0.027,6.377L-4.885,6.377L-4.885,0L0,0ZM-8.222,9.416L0.244,9.416C1.437,9.416 2.496,9.248 3.419,8.914C4.341,8.579 5.109,8.113 5.725,7.517C6.231,6.991 6.62,6.386 6.892,5.698C7.163,5.011 7.299,4.251 7.299,3.419L7.299,3.365C7.299,1.809 6.878,0.557 6.037,-0.394C5.196,-1.343 4.115,-2.008 2.795,-2.388L7.923,-9.578L3.961,-9.578L-0.706,-2.957L-4.885,-2.957L-4.885,-9.578L-8.222,-9.578L-8.222,9.416Z" style="fill:white;fill-rule:nonzero;"/>
                </g>
                <rect id="path322" x="387.239" y="466.858" width="3.338" height="18.994" style="fill:white;fill-rule:nonzero;"/>
                <g id="g324" transform="matrix(1,0,0,1,410.955,474.401)">
                    <path id="path326" d="M0,0L-3.283,7.598L-6.54,0L0,0ZM-4.776,11.587L-1.683,11.587L6.675,-7.543L3.147,-7.543L1.221,-2.957L-7.761,-2.957L-9.714,-7.543L-13.133,-7.543L-4.776,11.587Z" style="fill:white;fill-rule:nonzero;"/>
                </g>
                <g id="g328" transform="matrix(1,0,0,1,439.96,482.813)">
                    <path id="path330" d="M0,0L0,-12.916L3.745,-12.916C4.739,-12.916 5.645,-12.758 6.458,-12.441C7.272,-12.125 7.964,-11.682 8.534,-11.111C9.104,-10.542 9.547,-9.863 9.863,-9.076C10.18,-8.29 10.339,-7.435 10.339,-6.513L10.339,-6.458C10.339,-5.535 10.18,-4.677 9.863,-3.88C9.547,-3.085 9.104,-2.401 8.534,-1.832C7.964,-1.262 7.272,-0.814 6.458,-0.488C5.645,-0.163 4.739,0 3.745,0L0,0ZM-3.337,3.039L3.745,3.039C5.228,3.039 6.589,2.799 7.828,2.32C9.067,1.841 10.135,1.176 11.03,0.325C11.926,-0.525 12.618,-1.524 13.106,-2.673C13.595,-3.822 13.839,-5.065 13.839,-6.404L13.839,-6.458C13.839,-7.797 13.595,-9.045 13.106,-10.202C12.618,-11.36 11.926,-12.364 11.03,-13.215C10.135,-14.065 9.067,-14.734 7.828,-15.223C6.589,-15.711 5.228,-15.955 3.745,-15.955L-3.337,-15.955L-3.337,3.039Z" style="fill:white;fill-rule:nonzero;"/>
                </g>
                <g id="g332" transform="matrix(1,0,0,1,461.64,485.852)">
                    <path id="path334" d="M0,0L14.082,0L14.082,-2.985L3.337,-2.985L3.337,-7.924L12.861,-7.924L12.861,-10.908L3.337,-10.908L3.337,-16.01L14.218,-16.01L14.218,-18.994L0,-18.994L0,0Z" style="fill:white;fill-rule:nonzero;"/>
                </g>
                <g id="g336" transform="matrix(1,0,0,1,316.627,437.491)">
                    <path id="path338" d="M0,0L0,-21.655L4.792,-21.655C8.35,-21.655 11.201,-20.726 13.345,-18.865C15.488,-17.005 16.56,-14.356 16.56,-10.918L16.56,-10.797C16.56,-7.36 15.488,-4.701 13.345,-2.82C11.201,-0.939 8.35,0 4.792,0L0,0ZM-11.769,10.373L4.671,10.373C8.432,10.373 11.798,9.857 14.771,8.826C17.743,7.795 20.25,6.349 22.292,4.489C24.334,2.629 25.892,0.415 26.963,-2.153C28.034,-4.722 28.57,-7.542 28.57,-10.615L28.57,-10.736C28.57,-13.811 28.024,-16.65 26.933,-19.259C25.841,-21.867 24.264,-24.122 22.201,-26.022C20.139,-27.924 17.611,-29.41 14.619,-30.481C11.626,-31.554 8.229,-32.089 4.428,-32.089L-11.769,-32.089L-11.769,10.373Z" style="fill:white;fill-rule:nonzero;"/>
                </g>
                <g id="g340" transform="matrix(1,0,0,1,351.323,447.864)">
                    <path id="path342" d="M0,0L34.152,0L34.152,-9.948L11.647,-9.948L11.647,-16.438L32.029,-16.438L32.029,-25.72L11.647,-25.72L11.647,-32.453L34.455,-32.453L34.455,-42.462L0,-42.462L0,0Z" style="fill:white;fill-rule:nonzero;"/>
                </g>
                <g id="g344" transform="matrix(1,0,0,1,408.526,404.675)">
                    <path id="path346" d="M0,0C-3.802,0 -7.4,0.586 -10.798,1.759C-14.194,2.932 -17.228,4.69 -19.896,7.036L-13.345,14.861C-9.019,11.465 -4.428,9.766 0.425,9.766C2.042,9.766 3.266,10.018 4.095,10.524C4.923,11.029 5.338,11.747 5.338,12.678L5.338,12.799C5.338,13.243 5.237,13.648 5.035,14.012C4.832,14.376 4.459,14.71 3.913,15.013C3.367,15.316 2.629,15.62 1.698,15.923C0.768,16.227 -0.425,16.56 -1.88,16.924C-4.146,17.449 -6.248,18.025 -8.189,18.652C-10.13,19.279 -11.819,20.088 -13.254,21.079C-14.69,22.069 -15.822,23.293 -16.651,24.749C-17.48,26.205 -17.895,28.024 -17.895,30.208L-17.895,30.33C-17.895,32.311 -17.521,34.131 -16.772,35.789C-16.024,37.447 -14.933,38.883 -13.497,40.096C-12.062,41.31 -10.333,42.25 -8.311,42.917C-6.289,43.584 -4.004,43.918 -1.456,43.918C2.184,43.918 5.43,43.442 8.28,42.492C11.131,41.542 13.709,40.136 16.015,38.276L10.131,29.966C8.189,31.381 6.197,32.432 4.155,33.12C2.113,33.808 0.142,34.151 -1.759,34.151C-3.175,34.151 -4.236,33.898 -4.943,33.394C-5.651,32.887 -6.005,32.23 -6.005,31.422L-6.005,31.301C-6.005,30.815 -5.895,30.391 -5.672,30.026C-5.45,29.662 -5.065,29.329 -4.519,29.025C-3.973,28.723 -3.226,28.419 -2.274,28.115C-1.325,27.812 -0.102,27.499 1.396,27.176C3.821,26.649 6.006,26.032 7.946,25.325C9.888,24.617 11.546,23.758 12.921,22.747C14.295,21.736 15.348,20.513 16.075,19.077C16.803,17.642 17.167,15.933 17.167,13.951L17.167,13.83C17.167,11.646 16.752,9.705 15.924,8.007C15.094,6.309 13.932,4.862 12.436,3.67C10.938,2.477 9.139,1.566 7.037,0.939C4.934,0.313 2.588,0 0,0" style="fill:white;fill-rule:nonzero;"/>
                </g>
                <g id="g348" transform="matrix(1,0,0,1,431.394,447.864)">
                    <path id="path350" d="M0,0L34.152,0L34.152,-9.948L11.647,-9.948L11.647,-16.438L32.029,-16.438L32.029,-25.72L11.647,-25.72L11.647,-32.453L34.455,-32.453L34.455,-42.462L0,-42.462L0,0Z" style="fill:white;fill-rule:nonzero;"/>
                </g>
                <g id="g352" transform="matrix(1,0,0,1,471.916,447.864)">
                    <path id="path354" d="M0,0L10.979,0L28.45,-22.444L28.45,0L40.097,0L40.097,-42.462L29.845,-42.462L11.647,-19.168L11.647,-42.462L0,-42.462L0,0Z" style="fill:white;fill-rule:nonzero;"/>
                </g>
                <g id="g356" transform="matrix(1,0,0,1,516.197,447.864)">
                    <path id="path358" d="M0,0L13.103,0L22.747,-26.872L32.453,0L45.313,0L28.086,-42.766L17.167,-42.766L0,0Z" style="fill:white;fill-rule:nonzero;"/>
                </g>
                <g id="g360" transform="matrix(1,0,0,1,584.439,415.169)">
                    <path id="path362" d="M0,0C1.617,0 3.084,0.303 4.398,0.909C5.712,1.517 6.834,2.335 7.765,3.366C8.694,4.397 9.423,5.601 9.949,6.976C10.474,8.35 10.737,9.806 10.737,11.343L10.737,11.465C10.737,13.001 10.474,14.467 9.949,15.862C9.423,17.258 8.685,18.48 7.734,19.532C6.784,20.583 5.642,21.413 4.308,22.02C2.973,22.626 1.496,22.93 -0.121,22.93C-1.739,22.93 -3.215,22.626 -4.549,22.02C-5.884,21.413 -7.017,20.594 -7.946,19.562C-8.877,18.531 -9.604,17.328 -10.13,15.953C-10.656,14.578 -10.918,13.122 -10.918,11.586L-10.918,11.465C-10.918,9.927 -10.656,8.472 -10.13,7.097C-9.604,5.722 -8.856,4.509 -7.886,3.457C-6.915,2.405 -5.763,1.566 -4.428,0.94C-3.093,0.312 -1.617,0 0,0M-0.121,-10.616C-3.396,-10.616 -6.43,-10.04 -9.22,-8.887C-12.011,-7.734 -14.417,-6.168 -16.438,-4.186C-18.461,-2.205 -20.048,0.121 -21.2,2.79C-22.353,5.459 -22.929,8.311 -22.929,11.343L-22.929,11.465C-22.929,14.497 -22.353,17.358 -21.2,20.048C-20.048,22.737 -18.44,25.083 -16.378,27.085C-14.315,29.086 -11.889,30.663 -9.099,31.816C-6.309,32.969 -3.275,33.545 -0,33.545C3.276,33.545 6.31,32.969 9.1,31.816C11.89,30.663 14.296,29.096 16.318,27.115C18.34,25.133 19.928,22.808 21.08,20.139C22.232,17.47 22.809,14.619 22.809,11.586L22.809,11.465C22.809,8.432 22.232,5.57 21.08,2.881C19.928,0.191 18.32,-2.153 16.258,-4.155C14.195,-6.157 11.769,-7.734 8.979,-8.887C6.187,-10.04 3.155,-10.616 -0.121,-10.616" style="fill:white;fill-rule:nonzero;"/>
                </g>
                <g id="g364" transform="matrix(1,0,0,1,613.313,447.864)">
                    <path id="path366" d="M0,0L11.769,0L11.769,-32.149L32.332,-32.149L32.332,-42.462L0,-42.462L0,0Z" style="fill:white;fill-rule:nonzero;"/>
                </g>
                <g id="g368" transform="matrix(1,0,0,1,640.429,447.864)">
                    <path id="path370" d="M0,0L13.103,0L22.747,-26.872L32.453,0L45.313,0L28.086,-42.766L17.167,-42.766L0,0Z" style="fill:white;fill-rule:nonzero;"/>
                </g>
                <rect id="path372" x="690.17" y="405.402" width="11.768" height="42.462" style="fill:white;fill-rule:nonzero;"/>
                <g id="g374" transform="matrix(1,0,0,1,709.702,447.864)">
                    <path id="path376" d="M0,0L12.436,0L22.565,-16.438L32.696,0L45.132,0L45.132,-42.462L33.424,-42.462L33.424,-18.076L22.565,-34.697L22.323,-34.697L11.525,-18.137L11.525,-42.462L0,-42.462L0,0Z" style="fill:white;fill-rule:nonzero;"/>
                </g>
                <g id="g378" transform="matrix(1,0,0,1,762.355,447.864)">
                    <path id="path380" d="M0,0L34.152,0L34.152,-9.948L11.647,-9.948L11.647,-16.438L32.029,-16.438L32.029,-25.72L11.647,-25.72L11.647,-32.453L34.455,-32.453L34.455,-42.462L0,-42.462L0,0Z" style="fill:white;fill-rule:nonzero;"/>
                </g>
                <g id="g382" transform="matrix(1,0,0,1,802.877,447.864)">
                    <path id="path384" d="M0,0L10.979,0L28.45,-22.444L28.45,0L40.097,0L40.097,-42.462L29.845,-42.462L11.647,-19.168L11.647,-42.462L0,-42.462L0,0Z" style="fill:white;fill-rule:nonzero;"/>
                </g>
                <g id="g386" transform="matrix(1,0,0,1,860.867,437.553)">
                    <path id="path388" d="M0,0L-12.678,0L-12.678,10.312L24.507,10.312L24.507,0L11.769,0L11.769,-32.15L0,-32.15L0,0Z" style="fill:white;fill-rule:nonzero;"/>
                </g>
                <g id="g390" transform="matrix(1,0,0,1,910.244,415.169)">
                    <path id="path392" d="M0,0C1.617,0 3.084,0.303 4.398,0.909C5.712,1.517 6.834,2.335 7.765,3.366C8.694,4.397 9.423,5.601 9.949,6.976C10.474,8.35 10.737,9.806 10.737,11.343L10.737,11.465C10.737,13.001 10.474,14.467 9.949,15.862C9.423,17.258 8.685,18.48 7.734,19.532C6.784,20.583 5.642,21.413 4.308,22.02C2.973,22.626 1.496,22.93 -0.121,22.93C-1.739,22.93 -3.215,22.626 -4.549,22.02C-5.884,21.413 -7.017,20.594 -7.946,19.562C-8.877,18.531 -9.604,17.328 -10.13,15.953C-10.656,14.578 -10.918,13.122 -10.918,11.586L-10.918,11.465C-10.918,9.927 -10.656,8.472 -10.13,7.097C-9.604,5.722 -8.856,4.509 -7.886,3.457C-6.915,2.405 -5.763,1.566 -4.428,0.94C-3.093,0.312 -1.617,0 0,0M-0.121,-10.616C-3.396,-10.616 -6.43,-10.04 -9.22,-8.887C-12.011,-7.734 -14.417,-6.168 -16.438,-4.186C-18.461,-2.205 -20.048,0.121 -21.2,2.79C-22.353,5.459 -22.929,8.311 -22.929,11.343L-22.929,11.465C-22.929,14.497 -22.353,17.358 -21.2,20.048C-20.048,22.737 -18.44,25.083 -16.378,27.085C-14.315,29.086 -11.889,30.663 -9.099,31.816C-6.309,32.969 -3.275,33.545 -0,33.545C3.276,33.545 6.31,32.969 9.1,31.816C11.89,30.663 14.296,29.096 16.318,27.115C18.34,25.133 19.928,22.808 21.08,20.139C22.232,17.47 22.809,14.619 22.809,11.586L22.809,11.465C22.809,8.432 22.232,5.57 21.08,2.881C19.928,0.191 18.32,-2.153 16.258,-4.155C14.195,-6.157 11.769,-7.734 8.979,-8.887C6.187,-10.04 3.155,-10.616 -0.121,-10.616" style="fill:white;fill-rule:nonzero;"/>
                </g>
                <g id="g394" transform="matrix(1,0,0,1,321.54,346.207)">
                    <path id="path396" d="M0,0C-3.802,0 -7.4,0.586 -10.798,1.759C-14.194,2.932 -17.228,4.69 -19.896,7.036L-13.345,14.861C-9.019,11.465 -4.428,9.766 0.425,9.766C2.042,9.766 3.266,10.018 4.095,10.524C4.923,11.029 5.338,11.747 5.338,12.678L5.338,12.799C5.338,13.243 5.237,13.648 5.035,14.012C4.832,14.376 4.459,14.71 3.913,15.013C3.367,15.316 2.629,15.62 1.698,15.923C0.768,16.227 -0.425,16.56 -1.88,16.924C-4.146,17.449 -6.248,18.025 -8.189,18.652C-10.13,19.279 -11.819,20.088 -13.254,21.079C-14.69,22.069 -15.822,23.293 -16.651,24.749C-17.48,26.205 -17.895,28.024 -17.895,30.208L-17.895,30.33C-17.895,32.311 -17.521,34.131 -16.772,35.789C-16.024,37.447 -14.933,38.883 -13.497,40.096C-12.062,41.31 -10.333,42.25 -8.311,42.917C-6.289,43.584 -4.004,43.918 -1.456,43.918C2.184,43.918 5.43,43.442 8.28,42.492C11.131,41.542 13.709,40.136 16.015,38.276L10.131,29.966C8.189,31.381 6.197,32.432 4.155,33.12C2.113,33.808 0.142,34.151 -1.759,34.151C-3.175,34.151 -4.236,33.898 -4.943,33.394C-5.651,32.887 -6.005,32.23 -6.005,31.422L-6.005,31.301C-6.005,30.815 -5.895,30.391 -5.672,30.026C-5.45,29.662 -5.065,29.329 -4.519,29.025C-3.973,28.723 -3.226,28.419 -2.274,28.115C-1.325,27.812 -0.102,27.499 1.396,27.176C3.821,26.649 6.006,26.032 7.946,25.325C9.888,24.617 11.546,23.758 12.921,22.747C14.295,21.736 15.348,20.513 16.075,19.077C16.803,17.642 17.167,15.933 17.167,13.951L17.167,13.83C17.167,11.646 16.752,9.705 15.924,8.007C15.094,6.309 13.932,4.862 12.436,3.67C10.938,2.477 9.139,1.566 7.037,0.939C4.934,0.313 2.588,0 0,0" style="fill:white;fill-rule:nonzero;"/>
                </g>
                <g id="g398" transform="matrix(1,0,0,1,365.942,356.701)">
                    <path id="path400" d="M0,0C1.617,0 3.084,0.303 4.398,0.909C5.712,1.517 6.834,2.335 7.765,3.366C8.694,4.397 9.423,5.601 9.949,6.976C10.474,8.35 10.737,9.806 10.737,11.343L10.737,11.465C10.737,13.001 10.474,14.467 9.949,15.862C9.423,17.258 8.685,18.48 7.734,19.532C6.784,20.583 5.642,21.413 4.308,22.02C2.973,22.626 1.496,22.93 -0.121,22.93C-1.739,22.93 -3.215,22.626 -4.549,22.02C-5.884,21.413 -7.017,20.594 -7.946,19.562C-8.877,18.531 -9.604,17.328 -10.13,15.953C-10.656,14.578 -10.918,13.122 -10.918,11.586L-10.918,11.465C-10.918,9.927 -10.656,8.472 -10.13,7.097C-9.604,5.722 -8.856,4.509 -7.886,3.457C-6.915,2.405 -5.763,1.566 -4.428,0.94C-3.093,0.312 -1.617,0 0,0M-0.121,-10.616C-3.396,-10.616 -6.43,-10.04 -9.22,-8.887C-12.011,-7.734 -14.417,-6.168 -16.438,-4.186C-18.461,-2.205 -20.048,0.121 -21.2,2.79C-22.353,5.459 -22.929,8.311 -22.929,11.343L-22.929,11.465C-22.929,14.497 -22.353,17.358 -21.2,20.048C-20.048,22.737 -18.44,25.083 -16.378,27.085C-14.315,29.086 -11.889,30.663 -9.099,31.816C-6.309,32.969 -3.275,33.545 -0,33.545C3.276,33.545 6.31,32.969 9.1,31.816C11.89,30.663 14.296,29.096 16.318,27.115C18.34,25.133 19.928,22.808 21.08,20.139C22.232,17.47 22.809,14.619 22.809,11.586L22.809,11.465C22.809,8.432 22.232,5.57 21.08,2.881C19.928,0.191 18.32,-2.153 16.258,-4.155C14.195,-6.157 11.769,-7.734 8.979,-8.887C6.187,-10.04 3.155,-10.616 -0.121,-10.616" style="fill:white;fill-rule:nonzero;"/>
                </g>
                <g id="g402" transform="matrix(1,0,0,1,415.32,346.085)">
                    <path id="path404" d="M0,0C-3.032,0 -5.884,0.546 -8.553,1.639C-11.222,2.73 -13.537,4.256 -15.498,6.218C-17.46,8.179 -19.017,10.504 -20.169,13.194C-21.321,15.883 -21.897,18.805 -21.897,21.959L-21.897,22.081C-21.897,25.153 -21.343,28.035 -20.229,30.725C-19.118,33.414 -17.561,35.76 -15.559,37.762C-13.557,39.764 -11.202,41.33 -8.492,42.463C-5.783,43.595 -2.811,44.161 0.425,44.161C2.608,44.161 4.59,43.949 6.37,43.524C8.148,43.1 9.776,42.493 11.253,41.704C12.729,40.916 14.063,39.985 15.257,38.914C16.449,37.842 17.511,36.659 18.441,35.365L9.585,28.511C8.372,30.007 7.037,31.21 5.581,32.12C4.125,33.03 2.366,33.485 0.304,33.485C-1.192,33.485 -2.558,33.191 -3.791,32.605C-5.024,32.019 -6.086,31.21 -6.976,30.179C-7.865,29.147 -8.563,27.944 -9.068,26.569C-9.574,25.194 -9.826,23.738 -9.826,22.202L-9.826,22.081C-9.826,20.504 -9.574,19.018 -9.068,17.622C-8.563,16.227 -7.865,15.023 -6.976,14.013C-6.086,13.002 -5.024,12.202 -3.791,11.617C-2.558,11.03 -1.192,10.737 0.304,10.737C1.396,10.737 2.396,10.858 3.307,11.102C4.217,11.344 5.045,11.697 5.794,12.163C6.541,12.627 7.249,13.173 7.917,13.801C8.584,14.427 9.241,15.125 9.888,15.894L18.744,9.585C17.733,8.209 16.631,6.936 15.438,5.763C14.245,4.59 12.891,3.579 11.374,2.73C9.857,1.881 8.169,1.214 6.31,0.729C4.448,0.243 2.346,0 0,0" style="fill:white;fill-rule:nonzero;"/>
                </g>
                <rect id="path406" x="439.462" y="346.935" width="11.768" height="42.462" style="fill:white;fill-rule:nonzero;"/>
                <g id="g408" transform="matrix(1,0,0,1,483.986,363.737)">
                    <path id="path410" d="M0,0L-4.731,12.011L-9.523,0L0,0ZM-10.313,25.963L1.031,25.963L19.108,-16.803L6.491,-16.803L3.458,-9.159L-12.981,-9.159L-16.015,-16.803L-28.328,-16.803L-10.313,25.963Z" style="fill:white;fill-rule:nonzero;"/>
                </g>
                <g id="g412" transform="matrix(1,0,0,1,507.219,389.397)">
                    <path id="path414" d="M0,0L11.769,0L11.769,-32.149L32.332,-32.149L32.332,-42.462L0,-42.462L0,0Z" style="fill:white;fill-rule:nonzero;"/>
                </g>
                <g id="g416" transform="matrix(1,0,0,1,567.106,388.901)">
                    <path id="path418" d="M0,0L-5.096,0L-5.096,2.617L7.941,2.617L7.941,0L2.847,0L2.847,-13.45L0,-13.45L0,0Z" style="fill:white;fill-rule:nonzero;"/>
                </g>
                <g id="g420" transform="matrix(1,0,0,1,584.987,383.554)">
                    <path id="path422" d="M0,0C1.01,0 1.813,0.241 2.41,0.723C3.007,1.205 3.306,1.859 3.306,2.686L3.306,2.731C3.306,3.604 3.015,4.266 2.434,4.717C1.852,5.168 1.033,5.394 -0.022,5.394L-4.132,5.394L-4.132,0L0,0ZM-6.955,7.965L0.207,7.965C1.217,7.965 2.111,7.823 2.893,7.54C3.673,7.257 4.323,6.863 4.843,6.358C5.271,5.914 5.601,5.401 5.83,4.82C6.06,4.238 6.175,3.596 6.175,2.892L6.175,2.846C6.175,1.53 5.818,0.471 5.107,-0.333C4.396,-1.137 3.481,-1.698 2.364,-2.02L6.702,-8.103L3.352,-8.103L-0.597,-2.502L-4.132,-2.502L-4.132,-8.103L-6.955,-8.103L-6.955,7.965Z" style="fill:white;fill-rule:nonzero;"/>
                </g>
                <g id="g424" transform="matrix(1,0,0,1,604.359,381.832)">
                    <path id="path426" d="M0,0L-2.777,6.427L-5.531,0L0,0ZM-4.04,9.801L-1.423,9.801L5.646,-6.381L2.663,-6.381L1.033,-2.502L-6.564,-2.502L-8.217,-6.381L-11.109,-6.381L-4.04,9.801Z" style="fill:white;fill-rule:nonzero;"/>
                </g>
                <g id="g428" transform="matrix(1,0,0,1,623.318,380.202)">
                    <path id="path430" d="M0,0C0,0.688 -0.271,1.221 -0.814,1.596C-1.358,1.971 -2.188,2.158 -3.305,2.158L-7.781,2.158L-7.781,-2.249L-3.099,-2.249C-2.135,-2.249 -1.377,-2.065 -0.826,-1.698C-0.275,-1.331 0,-0.78 0,-0.046L0,0ZM-0.895,6.771C-0.895,7.414 -1.136,7.915 -1.618,8.275C-2.1,8.635 -2.8,8.814 -3.718,8.814L-7.781,8.814L-7.781,4.545L-3.925,4.545C-3.007,4.545 -2.272,4.725 -1.722,5.085C-1.17,5.443 -0.895,5.991 -0.895,6.726L-0.895,6.771ZM-10.559,11.316L-3.351,11.316C-1.5,11.316 -0.1,10.842 0.85,9.894C1.568,9.174 1.929,8.286 1.929,7.23L1.929,7.185C1.929,6.694 1.863,6.263 1.733,5.888C1.603,5.513 1.435,5.184 1.229,4.9C1.021,4.617 0.776,4.369 0.494,4.155C0.21,3.94 -0.076,3.757 -0.367,3.604C0.107,3.436 0.54,3.24 0.93,3.019C1.32,2.797 1.656,2.533 1.939,2.227C2.223,1.921 2.44,1.562 2.594,1.148C2.747,0.734 2.823,0.253 2.823,-0.298L2.823,-0.344C2.823,-1.063 2.682,-1.698 2.398,-2.249C2.115,-2.8 1.714,-3.259 1.193,-3.626C0.674,-3.993 0.046,-4.272 -0.688,-4.464C-1.423,-4.655 -2.234,-4.751 -3.121,-4.751L-10.559,-4.751L-10.559,11.316Z" style="fill:white;fill-rule:nonzero;"/>
                </g>
                <g id="g432" transform="matrix(1,0,0,1,639.063,381.832)">
                    <path id="path434" d="M0,0L-2.777,6.427L-5.531,0L0,0ZM-4.04,9.801L-1.423,9.801L5.646,-6.381L2.663,-6.381L1.033,-2.502L-6.564,-2.502L-8.217,-6.381L-11.109,-6.381L-4.04,9.801Z" style="fill:white;fill-rule:nonzero;"/>
                </g>
                <g id="g436" transform="matrix(1,0,0,1,647.465,391.519)">
                    <path id="path438" d="M0,0L2.823,0L2.823,-13.497L11.271,-13.497L11.271,-16.067L0,-16.067L0,0Z" style="fill:white;fill-rule:nonzero;"/>
                </g>
                <g id="g440" transform="matrix(1,0,0,1,661.672,391.519)">
                    <path id="path442" d="M0,0L2.823,0L2.823,-6.68L10.49,-6.68L10.49,0L13.313,0L13.313,-16.067L10.49,-16.067L10.49,-9.296L2.823,-9.296L2.823,-16.067L0,-16.067L0,0Z" style="fill:white;fill-rule:nonzero;"/>
                </g>
                <g id="g444" transform="matrix(1,0,0,1,686.829,377.792)">
                    <path id="path446" d="M0,0C0.795,0 1.526,0.149 2.191,0.448C2.857,0.748 3.428,1.15 3.901,1.656C4.376,2.162 4.747,2.76 5.015,3.45C5.282,4.141 5.417,4.876 5.417,5.658L5.417,5.704C5.417,6.486 5.282,7.226 5.015,7.924C4.747,8.621 4.372,9.227 3.891,9.74C3.408,10.254 2.83,10.664 2.157,10.971C1.483,11.277 0.749,11.431 -0.046,11.431C-0.842,11.431 -1.572,11.281 -2.238,10.982C-2.904,10.684 -3.474,10.277 -3.948,9.764C-4.423,9.25 -4.794,8.648 -5.062,7.958C-5.329,7.268 -5.463,6.532 -5.463,5.75L-5.463,5.704C-5.463,4.922 -5.329,4.187 -5.062,3.496C-4.794,2.806 -4.419,2.201 -3.937,1.68C-3.455,1.158 -2.877,0.748 -2.204,0.448C-1.53,0.149 -0.796,0 0,0M-0.046,-2.616C-1.285,-2.616 -2.418,-2.398 -3.443,-1.962C-4.469,-1.526 -5.349,-0.934 -6.083,-0.184C-6.817,0.566 -7.392,1.442 -7.805,2.445C-8.218,3.447 -8.424,4.515 -8.424,5.646L-8.424,5.692C-8.424,6.825 -8.218,7.893 -7.805,8.895C-7.392,9.896 -6.81,10.777 -6.06,11.534C-5.311,12.292 -4.423,12.893 -3.397,13.336C-2.372,13.78 -1.239,14.002 0,14.002C1.239,14.002 2.371,13.784 3.396,13.348C4.422,12.911 5.302,12.318 6.036,11.568C6.771,10.819 7.345,9.942 7.758,8.94C8.171,7.938 8.378,6.871 8.378,5.738L8.378,5.692C8.378,4.561 8.171,3.493 7.758,2.491C7.345,1.488 6.763,0.608 6.014,-0.148C5.264,-0.906 4.376,-1.507 3.351,-1.95C2.325,-2.395 1.193,-2.616 -0.046,-2.616" style="fill:white;fill-rule:nonzero;"/>
                </g>
                <g id="g448" transform="matrix(1,0,0,1,696.423,373.294)">
                    <path id="path450" d="M0,0C1.408,0.275 2.066,0.994 1.974,2.157L0.78,2.157L0.78,5.325L3.833,5.325L3.833,2.64C3.833,1.354 3.535,0.421 2.938,-0.161C2.342,-0.742 1.461,-1.087 0.299,-1.194L0,0Z" style="fill:white;fill-rule:nonzero;"/>
                </g>
                <g id="g452" transform="matrix(1,0,0,1,716.805,383.554)">
                    <path id="path454" d="M0,0C1.01,0 1.813,0.241 2.41,0.723C3.007,1.205 3.306,1.859 3.306,2.686L3.306,2.731C3.306,3.604 3.015,4.266 2.434,4.717C1.852,5.168 1.033,5.394 -0.022,5.394L-4.132,5.394L-4.132,0L0,0ZM-6.955,7.965L0.207,7.965C1.217,7.965 2.111,7.823 2.893,7.54C3.673,7.257 4.323,6.863 4.843,6.358C5.271,5.914 5.601,5.401 5.83,4.82C6.06,4.238 6.175,3.596 6.175,2.892L6.175,2.846C6.175,1.53 5.818,0.471 5.107,-0.333C4.396,-1.137 3.481,-1.698 2.364,-2.02L6.702,-8.103L3.352,-8.103L-0.597,-2.502L-4.132,-2.502L-4.132,-8.103L-6.955,-8.103L-6.955,7.965Z" style="fill:white;fill-rule:nonzero;"/>
                </g>
                <g id="g456" transform="matrix(1,0,0,1,726.445,391.519)">
                    <path id="path458" d="M0,0L11.913,0L11.913,-2.525L2.823,-2.525L2.823,-6.702L10.88,-6.702L10.88,-9.228L2.823,-9.228L2.823,-13.543L12.028,-13.543L12.028,-16.067L0,-16.067L0,0Z" style="fill:white;fill-rule:nonzero;"/>
                </g>
                <g id="g460" transform="matrix(1,0,0,1,741.824,391.519)">
                    <path id="path462" d="M0,0L2.617,0L11.225,-11.109L11.225,0L14.002,0L14.002,-16.067L11.638,-16.067L2.777,-4.637L2.777,-16.067L0,-16.067L0,0Z" style="fill:white;fill-rule:nonzero;"/>
                </g>
                <g id="g464" transform="matrix(1,0,0,1,762.78,388.947)">
                    <path id="path466" d="M0,0L0,-10.926L3.168,-10.926C4.01,-10.926 4.774,-10.792 5.463,-10.523C6.151,-10.256 6.737,-9.881 7.219,-9.399C7.701,-8.917 8.076,-8.343 8.344,-7.678C8.611,-7.012 8.745,-6.289 8.745,-5.509L8.745,-5.463C8.745,-4.682 8.611,-3.955 8.344,-3.282C8.076,-2.608 7.701,-2.031 7.219,-1.549C6.737,-1.067 6.151,-0.688 5.463,-0.413C4.774,-0.138 4.01,0 3.168,0L0,0ZM-2.823,2.571L3.168,2.571C4.423,2.571 5.574,2.368 6.622,1.963C7.67,1.558 8.573,0.995 9.331,0.275C10.088,-0.443 10.674,-1.289 11.087,-2.261C11.5,-3.232 11.706,-4.284 11.706,-5.417L11.706,-5.463C11.706,-6.595 11.5,-7.651 11.087,-8.63C10.674,-9.609 10.088,-10.459 9.331,-11.178C8.573,-11.897 7.67,-12.463 6.622,-12.876C5.574,-13.289 4.423,-13.496 3.168,-13.496L-2.823,-13.496L-2.823,2.571Z" style="fill:white;fill-rule:nonzero;"/>
                </g>
                <g id="g468" transform="matrix(1,0,0,1,787.638,381.832)">
                    <path id="path470" d="M0,0L-2.777,6.427L-5.531,0L0,0ZM-4.04,9.801L-1.423,9.801L5.646,-6.381L2.663,-6.381L1.033,-2.502L-6.564,-2.502L-8.217,-6.381L-11.109,-6.381L-4.04,9.801Z" style="fill:white;fill-rule:nonzero;"/>
                </g>
                <g id="g472" transform="matrix(1,0,0,1,563.158,363.206)">
                    <path id="path474" d="M0,0L11.913,0L11.913,-2.525L2.823,-2.525L2.823,-6.702L10.88,-6.702L10.88,-9.228L2.823,-9.228L2.823,-13.543L12.028,-13.543L12.028,-16.067L0,-16.067L0,0Z" style="fill:white;fill-rule:nonzero;"/>
                </g>
                <g id="g476" transform="matrix(1,0,0,1,588.246,360.635)">
                    <path id="path478" d="M0,0L0,-10.926L3.168,-10.926C4.01,-10.926 4.774,-10.792 5.463,-10.523C6.151,-10.256 6.737,-9.881 7.219,-9.399C7.701,-8.917 8.076,-8.343 8.344,-7.678C8.611,-7.012 8.745,-6.289 8.745,-5.509L8.745,-5.463C8.745,-4.682 8.611,-3.955 8.344,-3.282C8.076,-2.608 7.701,-2.031 7.219,-1.549C6.737,-1.067 6.151,-0.688 5.463,-0.413C4.774,-0.138 4.01,0 3.168,0L0,0ZM-2.823,2.571L3.168,2.571C4.423,2.571 5.574,2.368 6.622,1.963C7.67,1.558 8.573,0.995 9.331,0.275C10.088,-0.443 10.674,-1.289 11.087,-2.261C11.5,-3.232 11.706,-4.284 11.706,-5.417L11.706,-5.463C11.706,-6.595 11.5,-7.651 11.087,-8.63C10.674,-9.609 10.088,-10.459 9.331,-11.178C8.573,-11.897 7.67,-12.463 6.622,-12.876C5.574,-13.289 4.423,-13.496 3.168,-13.496L-2.823,-13.496L-2.823,2.571Z" style="fill:white;fill-rule:nonzero;"/>
                </g>
                <rect id="path480" x="603.533" y="347.139" width="2.823" height="16.067" style="fill:white;fill-rule:nonzero;"/>
                <g id="g482" transform="matrix(1,0,0,1,617.602,355.241)">
                    <path id="path484" d="M0,0C1.01,0 1.813,0.241 2.41,0.723C3.007,1.205 3.306,1.859 3.306,2.686L3.306,2.731C3.306,3.604 3.015,4.266 2.434,4.717C1.852,5.168 1.033,5.394 -0.022,5.394L-4.132,5.394L-4.132,0L0,0ZM-6.955,7.965L0.207,7.965C1.217,7.965 2.111,7.823 2.893,7.54C3.673,7.257 4.323,6.863 4.843,6.358C5.271,5.914 5.601,5.401 5.83,4.82C6.06,4.238 6.175,3.596 6.175,2.892L6.175,2.846C6.175,1.53 5.818,0.471 5.107,-0.333C4.396,-1.137 3.481,-1.698 2.364,-2.02L6.702,-8.103L3.352,-8.103L-0.597,-2.502L-4.132,-2.502L-4.132,-8.103L-6.955,-8.103L-6.955,7.965Z" style="fill:white;fill-rule:nonzero;"/>
                </g>
                <g id="g486" transform="matrix(1,0,0,1,627.243,363.206)">
                    <path id="path488" d="M0,0L11.913,0L11.913,-2.525L2.823,-2.525L2.823,-6.702L10.88,-6.702L10.88,-9.228L2.823,-9.228L2.823,-13.543L12.028,-13.543L12.028,-16.067L0,-16.067L0,0Z" style="fill:white;fill-rule:nonzero;"/>
                </g>
                <rect id="path490" x="642.782" y="347.139" width="2.823" height="16.067" style="fill:white;fill-rule:nonzero;"/>
                <g id="g492" transform="matrix(1,0,0,1,653.845,360.589)">
                    <path id="path494" d="M0,0L-5.096,0L-5.096,2.617L7.941,2.617L7.941,0L2.847,0L2.847,-13.45L0,-13.45L0,0Z" style="fill:white;fill-rule:nonzero;"/>
                </g>
                <g id="g496" transform="matrix(1,0,0,1,671.611,349.48)">
                    <path id="path498" d="M0,0C0.795,0 1.526,0.149 2.191,0.448C2.857,0.748 3.428,1.15 3.901,1.656C4.376,2.162 4.747,2.76 5.015,3.45C5.282,4.141 5.417,4.876 5.417,5.658L5.417,5.704C5.417,6.486 5.282,7.226 5.015,7.924C4.747,8.621 4.372,9.227 3.891,9.74C3.408,10.254 2.83,10.664 2.157,10.971C1.483,11.277 0.749,11.431 -0.046,11.431C-0.842,11.431 -1.572,11.281 -2.238,10.982C-2.904,10.684 -3.474,10.277 -3.948,9.764C-4.423,9.25 -4.794,8.648 -5.062,7.958C-5.329,7.268 -5.463,6.532 -5.463,5.75L-5.463,5.704C-5.463,4.922 -5.329,4.187 -5.062,3.496C-4.794,2.806 -4.419,2.201 -3.937,1.68C-3.455,1.158 -2.877,0.748 -2.204,0.448C-1.53,0.149 -0.796,0 0,0M-0.046,-2.616C-1.285,-2.616 -2.418,-2.398 -3.443,-1.962C-4.469,-1.526 -5.349,-0.934 -6.083,-0.184C-6.817,0.566 -7.392,1.442 -7.805,2.445C-8.218,3.447 -8.424,4.515 -8.424,5.646L-8.424,5.692C-8.424,6.825 -8.218,7.893 -7.805,8.895C-7.392,9.896 -6.81,10.777 -6.06,11.534C-5.311,12.292 -4.423,12.893 -3.397,13.336C-2.372,13.78 -1.239,14.002 0,14.002C1.239,14.002 2.371,13.784 3.396,13.348C4.422,12.911 5.302,12.318 6.036,11.568C6.771,10.819 7.345,9.942 7.758,8.94C8.171,7.938 8.378,6.871 8.378,5.738L8.378,5.692C8.378,4.561 8.171,3.493 7.758,2.491C7.345,1.488 6.763,0.608 6.014,-0.148C5.264,-0.906 4.376,-1.507 3.351,-1.95C2.325,-2.395 1.193,-2.616 -0.046,-2.616" style="fill:white;fill-rule:nonzero;"/>
                </g>
                <g id="g500" transform="matrix(1,0,0,1,688.918,346.909)">
                    <path id="path502" d="M0,0C-1.239,0 -2.426,0.211 -3.558,0.631C-4.69,1.052 -5.738,1.698 -6.702,2.57L-5.004,4.591C-4.224,3.917 -3.432,3.4 -2.628,3.041C-1.825,2.682 -0.926,2.502 0.068,2.502C0.941,2.502 1.633,2.689 2.146,3.064C2.658,3.439 2.915,3.925 2.915,4.521L2.915,4.567C2.915,4.858 2.865,5.114 2.766,5.337C2.666,5.559 2.482,5.769 2.215,5.968C1.947,6.166 1.58,6.351 1.113,6.519C0.646,6.687 0.038,6.855 -0.712,7.023C-1.568,7.223 -2.33,7.448 -2.995,7.701C-3.661,7.953 -4.22,8.259 -4.671,8.619C-5.123,8.979 -5.467,9.418 -5.704,9.938C-5.941,10.459 -6.06,11.086 -6.06,11.821L-6.06,11.867C-6.06,12.556 -5.922,13.187 -5.646,13.761C-5.371,14.334 -4.992,14.824 -4.511,15.229C-4.028,15.635 -3.451,15.952 -2.777,16.182C-2.104,16.411 -1.37,16.526 -0.574,16.526C0.604,16.526 1.664,16.354 2.605,16.01C3.546,15.666 4.43,15.164 5.256,14.507L3.741,12.372C3.007,12.907 2.279,13.316 1.561,13.6C0.841,13.883 0.114,14.024 -0.62,14.024C-1.446,14.024 -2.089,13.841 -2.548,13.474C-3.007,13.106 -3.236,12.654 -3.236,12.119L-3.236,12.073C-3.236,11.767 -3.183,11.495 -3.076,11.259C-2.969,11.021 -2.77,10.807 -2.479,10.616C-2.188,10.424 -1.799,10.244 -1.309,10.076C-0.819,9.908 -0.184,9.732 0.597,9.549C1.438,9.334 2.181,9.097 2.823,8.837C3.466,8.576 4.005,8.259 4.441,7.885C4.877,7.509 5.202,7.073 5.417,6.576C5.631,6.079 5.738,5.501 5.738,4.843L5.738,4.797C5.738,4.047 5.597,3.374 5.313,2.777C5.03,2.181 4.637,1.676 4.132,1.263C3.627,0.85 3.021,0.535 2.318,0.321C1.614,0.107 0.841,0 0,0" style="fill:white;fill-rule:nonzero;"/>
                </g>
                <g id="g504" transform="matrix(1,0,0,1,704.87,363.206)">
                    <path id="path506" d="M0,0L2.823,0L2.823,-6.68L10.49,-6.68L10.49,0L13.313,0L13.313,-16.067L10.49,-16.067L10.49,-9.296L2.823,-9.296L2.823,-16.067L0,-16.067L0,0Z" style="fill:white;fill-rule:nonzero;"/>
                </g>
                <g id="g508" transform="matrix(1,0,0,1,728.902,346.886)">
                    <path id="path510" d="M0,0C-1.041,0 -1.981,0.149 -2.823,0.448C-3.665,0.746 -4.384,1.194 -4.98,1.791C-5.577,2.388 -6.037,3.126 -6.358,4.006C-6.68,4.886 -6.84,5.907 -6.84,7.07L-6.84,16.32L-4.017,16.32L-4.017,7.185C-4.017,5.685 -3.657,4.549 -2.938,3.776C-2.219,3.003 -1.225,2.617 0.046,2.617C1.301,2.617 2.287,2.988 3.007,3.73C3.726,4.473 4.086,5.586 4.086,7.07L4.086,16.32L6.909,16.32L6.909,7.208C6.909,6.015 6.744,4.966 6.415,4.063C6.086,3.16 5.624,2.406 5.026,1.803C4.43,1.197 3.707,0.746 2.857,0.448C2.009,0.149 1.056,0 0,0" style="fill:white;fill-rule:nonzero;"/>
                </g>
                <g id="g512" transform="matrix(1,0,0,1,739.689,363.206)">
                    <path id="path514" d="M0,0L3.007,0L7.896,-7.598L12.785,0L15.792,0L15.792,-16.067L12.969,-16.067L12.969,-4.545L7.896,-12.119L7.805,-12.119L2.777,-4.591L2.777,-16.067L0,-16.067L0,0Z" style="fill:white;fill-rule:nonzero;"/>
                </g>
                <g id="g516" transform="matrix(1,0,0,1,769.344,353.52)">
                    <path id="path518" d="M0,0L-2.777,6.427L-5.531,0L0,0ZM-4.04,9.801L-1.423,9.801L5.646,-6.381L2.663,-6.381L1.033,-2.502L-6.564,-2.502L-8.217,-6.381L-11.109,-6.381L-4.04,9.801Z" style="fill:white;fill-rule:nonzero;"/>
                </g>
                <g id="g520" transform="matrix(1,0,0,1,777.745,363.206)">
                    <path id="path522" d="M0,0L2.617,0L11.225,-11.109L11.225,0L14.002,0L14.002,-16.067L11.638,-16.067L2.777,-4.637L2.777,-16.067L0,-16.067L0,0Z" style="fill:white;fill-rule:nonzero;"/>
                </g>
                <g id="g524" transform="matrix(1,0,0,1,803.591,349.48)">
                    <path id="path526" d="M0,0C0.795,0 1.526,0.149 2.191,0.448C2.857,0.748 3.428,1.15 3.901,1.656C4.376,2.162 4.747,2.76 5.015,3.45C5.282,4.141 5.417,4.876 5.417,5.658L5.417,5.704C5.417,6.486 5.282,7.226 5.015,7.924C4.747,8.621 4.372,9.227 3.891,9.74C3.408,10.254 2.83,10.664 2.157,10.971C1.483,11.277 0.749,11.431 -0.046,11.431C-0.842,11.431 -1.572,11.281 -2.238,10.982C-2.904,10.684 -3.474,10.277 -3.948,9.764C-4.423,9.25 -4.794,8.648 -5.062,7.958C-5.329,7.268 -5.463,6.532 -5.463,5.75L-5.463,5.704C-5.463,4.922 -5.329,4.187 -5.062,3.496C-4.794,2.806 -4.419,2.201 -3.937,1.68C-3.455,1.158 -2.877,0.748 -2.204,0.448C-1.53,0.149 -0.796,0 0,0M-0.046,-2.616C-1.285,-2.616 -2.418,-2.398 -3.443,-1.962C-4.469,-1.526 -5.349,-0.934 -6.083,-0.184C-6.817,0.566 -7.392,1.442 -7.805,2.445C-8.218,3.447 -8.424,4.515 -8.424,5.646L-8.424,5.692C-8.424,6.825 -8.218,7.893 -7.805,8.895C-7.392,9.896 -6.81,10.777 -6.06,11.534C-5.311,12.292 -4.423,12.893 -3.397,13.336C-2.372,13.78 -1.239,14.002 0,14.002C1.239,14.002 2.371,13.784 3.396,13.348C4.422,12.911 5.302,12.318 6.036,11.568C6.771,10.819 7.345,9.942 7.758,8.94C8.171,7.938 8.378,6.871 8.378,5.738L8.378,5.692C8.378,4.561 8.171,3.493 7.758,2.491C7.345,1.488 6.763,0.608 6.014,-0.148C5.264,-0.906 4.376,-1.507 3.351,-1.95C2.325,-2.395 1.193,-2.616 -0.046,-2.616" style="fill:white;fill-rule:nonzero;"/>
                </g>
                <g id="g528" transform="matrix(1,0,0,1,820.898,346.909)">
                    <path id="path530" d="M0,0C-1.239,0 -2.426,0.211 -3.558,0.631C-4.69,1.052 -5.738,1.698 -6.702,2.57L-5.004,4.591C-4.224,3.917 -3.432,3.4 -2.628,3.041C-1.825,2.682 -0.926,2.502 0.068,2.502C0.941,2.502 1.633,2.689 2.146,3.064C2.658,3.439 2.915,3.925 2.915,4.521L2.915,4.567C2.915,4.858 2.865,5.114 2.766,5.337C2.666,5.559 2.482,5.769 2.215,5.968C1.947,6.166 1.58,6.351 1.113,6.519C0.646,6.687 0.038,6.855 -0.712,7.023C-1.568,7.223 -2.33,7.448 -2.995,7.701C-3.661,7.953 -4.22,8.259 -4.671,8.619C-5.123,8.979 -5.467,9.418 -5.704,9.938C-5.941,10.459 -6.06,11.086 -6.06,11.821L-6.06,11.867C-6.06,12.556 -5.922,13.187 -5.646,13.761C-5.371,14.334 -4.992,14.824 -4.511,15.229C-4.028,15.635 -3.451,15.952 -2.777,16.182C-2.104,16.411 -1.37,16.526 -0.574,16.526C0.604,16.526 1.664,16.354 2.605,16.01C3.546,15.666 4.43,15.164 5.256,14.507L3.741,12.372C3.007,12.907 2.279,13.316 1.561,13.6C0.841,13.883 0.114,14.024 -0.62,14.024C-1.446,14.024 -2.089,13.841 -2.548,13.474C-3.007,13.106 -3.236,12.654 -3.236,12.119L-3.236,12.073C-3.236,11.767 -3.183,11.495 -3.076,11.259C-2.969,11.021 -2.77,10.807 -2.479,10.616C-2.188,10.424 -1.799,10.244 -1.309,10.076C-0.819,9.908 -0.184,9.732 0.597,9.549C1.438,9.334 2.181,9.097 2.823,8.837C3.466,8.576 4.005,8.259 4.441,7.885C4.877,7.509 5.202,7.073 5.417,6.576C5.631,6.079 5.738,5.501 5.738,4.843L5.738,4.797C5.738,4.047 5.597,3.374 5.313,2.777C5.03,2.181 4.637,1.676 4.132,1.263C3.627,0.85 3.021,0.535 2.318,0.321C1.614,0.107 0.841,0 0,0" style="fill:white;fill-rule:nonzero;"/>
                </g>
            </g>
        </g>
    </g>
</svg>
