<?xml version="1.0" encoding="UTF-8" standalone="no"?>
<!-- Created with Inkscape (http://www.inkscape.org/) -->

<svg
   width="7in"
   height="3in"
   viewBox="0 0 177.8 76.2"
   version="1.1"
   id="svg5454"
   inkscape:version="1.1.2 (b8e25be833, 2022-02-05)"
   sodipodi:docname="semas-white-logo.svg"
   xmlns:inkscape="http://www.inkscape.org/namespaces/inkscape"
   xmlns:sodipodi="http://sodipodi.sourceforge.net/DTD/sodipodi-0.dtd"
   xmlns="http://www.w3.org/2000/svg"
   xmlns:svg="http://www.w3.org/2000/svg">
  <sodipodi:namedview
     id="namedview5456"
     pagecolor="#ffffff"
     bordercolor="#666666"
     borderopacity="1.0"
     inkscape:pageshadow="2"
     inkscape:pageopacity="0.0"
     inkscape:pagecheckerboard="0"
     inkscape:document-units="mm"
     showgrid="false"
     inkscape:zoom="0.66646402"
     inkscape:cx="129.03922"
     inkscape:cy="379.61539"
     inkscape:window-width="1366"
     inkscape:window-height="715"
     inkscape:window-x="-8"
     inkscape:window-y="-8"
     inkscape:window-maximized="1"
     inkscape:current-layer="layer1"
     units="in" />
  <defs
     id="defs5451" />
  <g
     inkscape:label="Camada 1"
     inkscape:groupmode="layer"
     id="layer1" />
  <g
     inkscape:groupmode="layer"
     id="layer2"
     inkscape:label="Camada 2">
    <g
       id="g867"
       transform="matrix(1.023016,0,0,1.1468333,500.56084,568.31082)"
       style="fill:#ffffff">
      <path
         style="fill:#ffffff;fill-opacity:1;stroke-width:0.169333"
         d="m -468.5594,-430.02279 0.22225,-0.0889 0.10231,0.1023 0.1023,0.10231 -0.32455,-0.0134 -0.32456,-0.0134 0.22225,-0.0889 z m 0.33867,-1.016 0.22225,-0.0889 0.1023,0.1023 0.10231,0.10231 -0.32456,-0.0134 -0.32455,-0.0134 0.22225,-0.0889 z m 1.35466,0 0.22225,-0.0889 0.10231,0.1023 0.10231,0.10231 -0.32456,-0.0134 -0.32456,-0.0134 0.22225,-0.0889 z m 65.46916,-5.049 1.5e-4,-4.91066 0.0518,2.50802 0.0518,2.50803 -0.0519,2.40264 -0.052,2.40264 z m 7.25271,4.14867 v -0.762 l 0.0734,0.381 0.0734,0.381 -0.0734,0.381 -0.0734,0.381 z m 22.54996,-4.14867 1.4e-4,-4.91066 0.0518,2.50802 0.0518,2.50803 -0.052,2.40264 -0.0519,2.40264 z m -48.79337,2.49894 1.15004,-0.0594 1.05129,0.0599 1.0513,0.0599 -2.20134,-5.1e-4 -2.20133,-5.1e-4 1.15004,-0.0594 z m 31.31222,3.4e-4 1.13559,-0.0591 1.23507,0.0586 1.23508,0.0586 -2.37067,5.1e-4 -2.37067,5e-4 1.1356,-0.0591 z m -30.30004,-1.51595 0.29956,-0.0781 0.20844,0.0843 0.20845,0.0843 -0.508,-0.006 -0.508,-0.006 0.29955,-0.0781 z m 1.016,0 0.29956,-0.0781 0.20844,0.0843 0.20845,0.0843 -0.508,-0.006 -0.508,-0.006 0.29955,-0.0781 z m 29.29144,6.8e-4 0.29634,-0.0774 0.29633,0.0774 0.29633,0.0774 h -0.59266 -0.59267 z m 1.44131,-0.003 0.38298,-0.0736 0.29436,0.0771 0.29435,0.0771 -0.67733,-0.003 -0.67733,-0.003 0.38297,-0.0737 z m 55.10669,-0.98098 0.006,-0.508 0.0781,0.29956 0.0781,0.29956 -0.0843,0.20844 -0.0843,0.20844 0.006,-0.508 z m -135.20135,-0.0351 0.38297,-0.0736 0.29436,0.0771 0.29436,0.0771 -0.67733,-0.003 -0.67734,-0.003 0.38298,-0.0736 z m 134.13074,-2.54724 -0.23239,-0.29633 0.29634,0.2324 0.29633,0.2324 v 0.0639 0.0639 h -0.0639 -0.0639 z m -54.24972,-2.24367 -0.84667,-0.11612 0.79434,-0.0266 0.79434,-0.0266 0.10466,0.16933 0.10465,0.16934 -0.0523,-0.0266 -0.0523,-0.0266 z m -31.70766,-0.12128 0.46566,-0.0705 0.46567,0.0705 0.46567,0.0705 h -0.93134 -0.93133 z m -62.38875,-5.75172 0.22225,-0.0889 0.1023,0.1023 0.10231,0.10231 -0.32456,-0.0134 -0.32455,-0.0134 0.22225,-0.0889 z m 36.39608,-0.51806 1.22767,-0.0584 1.22766,0.0584 1.22767,0.0584 h -2.45533 -2.45534 z m 12.71058,0.0101 0.22225,-0.0889 0.10231,0.1023 0.1023,0.10231 -0.32455,-0.0134 -0.32456,-0.0134 0.22225,-0.0889 z m 1.34409,-0.008 0.71966,-0.0648 0.71967,0.0648 0.71967,0.0648 h -1.43934 -1.43933 z m 2.87866,0.0118 0.21167,-0.0854 0.21167,0.0854 0.21166,0.0854 h -0.42333 -0.42333 z m 2.45856,-0.005 0.29955,-0.0781 0.20845,0.0843 0.20844,0.0843 -0.508,-0.006 -0.508,-0.006 0.29956,-0.0781 z m 1.30911,0.008 0.59267,-0.0523 1.21205,-0.0463 1.21206,-0.0463 -0.079,0.127 -0.079,0.127 -1.72567,-0.0285 -1.72568,-0.0285 z m 12.73492,-0.0162 1.1356,-0.0591 1.23507,0.0586 1.23508,0.0586 -2.37067,5e-4 -2.37067,5.1e-4 1.13559,-0.0591 z m 8.90766,-0.001 2.42324,-0.0521 2.31809,0.0522 2.31809,0.0522 -4.74134,-1.5e-4 -4.74133,-1.6e-4 z m 14.90167,0.011 0.22225,-0.0889 0.1023,0.10231 0.10231,0.1023 -0.32456,-0.0134 -0.32455,-0.0134 0.22225,-0.0889 z m 1.52005,-0.01 1.06497,-0.0603 0.96703,0.0609 0.96703,0.0609 -2.032,-6.8e-4 -2.032,-6.8e-4 1.06497,-0.0603 z m 6.07303,-0.002 -0.0787,-0.127 4.429,0.043 4.42899,0.043 2.37067,0.0467 2.37067,0.0467 -6.72101,0.0373 -6.72101,0.0373 z m 16.18767,0.0103 0.29633,-0.0774 0.29633,0.0774 0.29634,0.0774 h -0.59267 -0.59267 z m 1.778,-0.008 0.889,-0.0622 0.889,0.0622 0.889,0.0622 h -1.778 -1.778 z m 11.35101,-1.7e-4 0.89467,-0.0624 0.79866,0.0632 0.79866,0.0632 -1.69334,-8.4e-4 -1.69333,-8.5e-4 0.89468,-0.0624 z m 11.00099,-3.4e-4 1.05833,-0.0601 1.05833,0.0601 1.05834,0.0601 h -2.11667 -2.11667 z m 13.54666,-10e-4 3.429,-0.0496 3.429,0.0496 3.429,0.0496 h -6.858 -6.858 z m -86.41377,-4.27584 v -4.14866 l 0.0533,2.07433 0.0533,2.07433 -0.0533,2.07434 -0.0533,2.07433 z m 32.51669,-3.64066 7e-5,-7.62 0.0489,3.86389 0.0489,3.8639 -0.0489,3.7561 -0.0489,3.75611 z m -93.58166,5.89566 0.22225,-0.0889 0.1023,0.1023 0.10231,0.10231 -0.32456,-0.0134 -0.32455,-0.0134 0.22225,-0.0889 z m 2.54,0 0.22225,-0.0889 0.1023,0.1023 0.10231,0.10231 -0.32456,-0.0134 -0.32455,-0.0134 0.22225,-0.0889 z m 71.70208,-1.7028 0.97366,-0.0611 0.97367,0.0611 0.97367,0.0611 h -1.94734 -1.94733 z m 23.89171,-1.48353 10e-4,-1.35467 0.065,0.72415 0.065,0.72414 -0.0662,0.63052 -0.0662,0.63053 0.001,-1.35467 z m -107.84936,-1.31233 -0.49735,-0.55034 0.55034,0.49735 0.55033,0.49735 v 0.053 0.053 h -0.053 -0.053 z m 21.93932,0.14773 v -0.0639 l 0.29633,-0.2324 0.29633,-0.2324 -0.2324,0.29633 -0.2324,0.29633 h -0.0639 -0.0639 z m 24.93433,-0.22668 0.46567,-0.0705 0.46566,0.0705 0.46567,0.0705 h -0.93133 -0.93134 z m 61.90191,0.006 0.22225,-0.0889 0.10231,0.10231 0.1023,0.1023 -0.32455,-0.0134 -0.32456,-0.0134 0.22225,-0.0889 z m 1.18534,0 0.22225,-0.0889 0.1023,0.10231 0.10231,0.1023 -0.32456,-0.0134 -0.32455,-0.0134 0.22225,-0.0889 z m 3.37608,-0.009 0.889,-0.0622 0.889,0.0622 0.889,0.0622 h -1.778 -1.778 z m 48.68333,3.4e-4 0.80433,-0.0634 0.80434,0.0634 0.80433,0.0634 h -1.60867 -1.60866 z m 2.88188,0.007 0.29957,-0.0781 0.20843,0.0843 0.20845,0.0843 -0.508,-0.006 -0.508,-0.006 0.29955,-0.0781 z m 0.92812,0.005 0.21167,-0.0854 0.21166,0.0854 0.21167,0.0854 h -0.42333 -0.42334 z m -155.02466,-0.17392 0.29633,-0.0774 0.29634,0.0774 0.29633,0.0774 h -0.59267 -0.59266 z m 59.84043,-2.33858 -0.0975,-0.254 h 0.16402 0.16402 v 0.254 0.254 h -0.0666 -0.0666 z m 37.20217,-2.45533 v -1.27 l 0.0664,0.635 0.0664,0.635 -0.0664,0.635 -0.0664,0.635 z m -81.11917,-6.01133 0.002,-0.84667 0.0708,0.468 0.0708,0.46799 -0.0731,0.37867 -0.0731,0.37867 z m -31.33581,-0.0847 v -0.59267 l 0.0774,0.29634 0.0774,0.29633 -0.0774,0.29633 -0.0774,0.29634 z m 12.12097,0.22299 0.22225,-0.0889 0.1023,0.1023 0.10231,0.10231 -0.32456,-0.0134 -0.32455,-0.0134 0.22225,-0.0889 z m 51.63608,-6.09247 0.21166,-0.0854 0.21167,0.0854 0.21167,0.0854 h -0.42334 -0.42333 z m 80.60266,0 0.21167,-0.0854 0.21166,0.0854 0.21167,0.0854 h -0.42333 -0.42334 z m -39.01673,-1.24252 v -1.27 l 0.0664,0.635 0.0664,0.635 -0.0664,0.635 -0.0664,0.635 z m 28.26406,0.048 0.46567,-0.0705 0.46567,0.0705 0.46566,0.0705 h -0.93133 -0.93133 z m -79.91692,-0.89472 v -0.93133 l 0.0705,0.46567 0.0706,0.46566 -0.0706,0.46567 -0.0705,0.46567 z m 12.37917,0.46567 -0.32258,-0.381 0.381,0.32258 0.381,0.32258 v 0.0584 0.0584 h -0.0584 -0.0584 z m 76.15815,-1.82033 v -0.42334 l 0.0854,0.21167 0.0854,0.21167 -0.0854,0.21166 -0.0854,0.21167 z m -36.88583,-1.10067 10e-4,-1.18533 0.0666,0.63877 0.0666,0.63878 -0.068,0.54656 -0.068,0.54655 10e-4,-1.18533 z m -51.65149,-0.254 v -0.93133 l 0.0705,0.46566 0.0706,0.46567 -0.0706,0.46567 -0.0705,0.46566 z m -9.3507,-0.0988 0.0134,-0.32455 0.0889,0.22225 0.0889,0.22225 -0.1023,0.1023 -0.10231,0.10231 0.0134,-0.32456 z m 47.26991,-1.25589 v -0.59266 l 0.0774,0.29633 0.0774,0.29633 -0.0774,0.29634 -0.0774,0.29633 z m -82.36703,-17.72634 0.22225,-0.0889 0.1023,0.1023 0.10231,0.10231 -0.32456,-0.0134 -0.32455,-0.0134 0.22225,-0.0889 z"
         id="path875" />
      <path
         style="fill:#ffffff;fill-opacity:1;stroke-width:0.169333"
         d="m -467.80565,-430.02863 0.46799,-0.0708 0.37867,0.0731 0.37867,0.0731 -0.84666,-0.002 -0.84667,-0.002 z m 57.09182,-4.53516 -3.4e-4,-3.38666 0.0553,1.64199 0.0553,1.64199 -0.055,1.74468 -0.055,1.74467 -3.4e-4,-3.38667 z m 6.77578,-0.93133 v -4.318 l 0.0529,2.159 0.0529,2.159 -0.0529,2.159 -0.0529,2.159 z m 30.64715,0.84667 v -3.47134 l 0.0549,1.73567 0.0549,1.73567 -0.0549,1.73566 -0.0549,1.73567 z m -26.43185,0.762 0.001,-1.18534 0.0667,0.63878 0.0666,0.63878 -0.068,0.54655 -0.068,0.54656 10e-4,-1.18533 z m -32.27406,0.23299 0.20885,-0.21042 0.0948,0.0948 0.0948,0.0948 -0.30363,0.11562 -0.30364,0.11562 z m -50.10925,-0.772 0.22225,-0.0889 0.1023,0.10231 0.10231,0.1023 -0.32456,-0.0134 -0.32455,-0.0134 0.22225,-0.0889 z m 62.14533,-0.67733 0.22225,-0.0889 0.1023,0.1023 0.10231,0.10231 -0.32456,-0.0134 -0.32455,-0.0134 0.22225,-0.0889 z m 2.31775,-0.0537 0.10465,-0.16934 h 0.0747 0.0747 v 0.16934 0.16933 h -0.17933 -0.17933 z m 31.04091,0.0537 0.22225,-0.0889 0.10231,0.1023 0.1023,0.10231 -0.32455,-0.0134 -0.32456,-0.0134 0.22225,-0.0889 z m 45.76512,-0.66044 0.0134,-0.32456 0.0889,0.22225 0.0889,0.22225 -0.1023,0.10231 -0.10231,0.1023 0.0134,-0.32455 z m -58.88332,-2.35656 0.001,-1.35466 0.065,0.72414 0.065,0.72414 -0.0662,0.63053 -0.0662,0.63052 0.001,-1.35467 z m -68.08538,0.97916 0.46799,-0.0708 0.37867,0.0731 0.37867,0.0731 -0.84666,-0.002 -0.84667,-0.002 z m 29.29843,-3.01116 0.002,-0.84666 0.0708,0.46799 0.0708,0.468 -0.0731,0.37867 -0.0731,0.37867 z m 106.27129,0.46567 -0.23239,-0.29633 0.29633,0.2324 0.29633,0.2324 v 0.0639 0.0639 h -0.0639 -0.0639 z m -29.73494,-0.55033 v -0.762 l 0.0734,0.381 0.0734,0.381 -0.0734,0.381 -0.0734,0.381 z m -42.0015,-0.16934 v -0.59266 l 0.0774,0.29633 0.0774,0.29633 -0.0774,0.29634 -0.0774,0.29633 z m -77.21062,-5.37084 0.468,-0.0708 0.37867,0.0731 0.37867,0.0731 -0.84666,-0.002 -0.84667,-0.002 z m 0,-1.016 0.468,-0.0708 0.37867,0.0731 0.37867,0.0731 -0.84666,-0.002 -0.84667,-0.002 z m 51.89834,-0.49864 0.21167,-0.0854 0.21166,0.0854 0.21167,0.0854 h -0.42333 -0.42334 z m 23.65814,-8.35452 v -8.382 l 0.0484,4.191 0.0484,4.191 -0.0484,4.191 -0.0484,4.191 z m 38.3959,6.49111 -0.0357,-1.89088 -0.21167,-0.0854 -0.21166,-0.0854 0.21698,-0.0134 0.21698,-0.0134 0.0856,0.22311 0.0856,0.22312 -0.0552,1.76655 -0.0552,1.76655 -0.0357,-1.89089 z m -54.65593,-3.01977 1.5e-4,-4.74134 0.0521,2.42325 0.0521,2.42324 -0.0522,2.31809 -0.0522,2.31809 z m -51.92219,2.84766 0.22225,-0.0889 0.1023,0.1023 0.10231,0.10231 -0.32456,-0.0134 -0.32455,-0.0134 0.22225,-0.0889 z m 1.34408,0.004 0.21167,-0.0854 0.21166,0.0854 0.21167,0.0854 h -0.42333 -0.42334 z m 97.03103,-1.87324 0.55337,-0.0685 0.46263,0.0703 0.46263,0.0702 -1.016,-0.002 -1.016,-0.002 0.55337,-0.0685 z m 3.04497,-0.003 1.56633,-0.0559 1.56633,0.0559 1.56634,0.0559 h -3.13267 -3.13267 z m 49.10666,-3.4e-4 2.24367,-0.0526 2.24366,0.0526 2.24367,0.0526 h -4.48733 -4.48734 z m -67.48238,-0.72016 v -0.59267 l 0.0774,0.29633 0.0774,0.29634 -0.0774,0.29633 -0.0774,0.29633 z m -4.59791,-0.60678 0.0134,-0.32456 0.0889,0.22225 0.0889,0.22225 -0.1023,0.10231 -0.10231,0.1023 0.0134,-0.32455 z m -43.2357,-1.37539 0.381,-0.0734 0.381,0.0734 0.381,0.0734 h -0.762 -0.762 z m 62.65333,0.007 0.21166,-0.0854 0.21167,0.0854 0.21167,0.0854 h -0.42334 -0.42333 z m 1.18533,0 0.21167,-0.0854 0.21166,0.0854 0.21167,0.0854 h -0.42333 -0.42334 z m -105.71698,-3.31686 -0.49735,-0.55033 0.55034,0.49734 0.55033,0.49735 v 0.053 0.053 h -0.053 -0.053 z m 14.91198,0.0423 0.30649,-0.33866 h 0.0847 0.0847 l -0.30649,0.33866 -0.30649,0.33867 h -0.0847 -0.0847 z m 69.5247,-1.62277 0.0134,-0.32456 0.0889,0.22225 0.0889,0.22225 -0.10231,0.10231 -0.1023,0.1023 0.0134,-0.32455 z m 50.40563,-1.21229 1.22767,-0.0584 1.22767,0.0584 1.22766,0.0584 h -2.45533 -2.45533 z m 10.832,0.002 2.40767,-0.0544 0.0561,-1.94301 0.0561,-1.943 -0.008,1.98995 -0.008,1.98996 -2.45534,0.007 -2.45533,0.007 2.40767,-0.0544 z m -65.35165,-0.33957 0.89467,-0.0624 0.79866,0.0632 0.79866,0.0632 -1.69334,-8.5e-4 -1.69333,-8.4e-4 0.89468,-0.0624 z m -76.37501,-3.03503 0.21167,-0.0854 0.21167,0.0854 0.21166,0.0854 h -0.42333 -0.42333 z m 10.75589,-0.85187 0.29956,-0.0781 0.20844,0.0843 0.20844,0.0843 -0.508,-0.006 -0.508,-0.006 0.29956,-0.0781 z m -16.50264,-0.16766 0.22225,-0.0889 0.10231,0.10231 0.1023,0.1023 -0.32455,-0.0134 -0.32456,-0.0134 0.22225,-0.0889 z m 0.67734,0 0.22225,-0.0889 0.1023,0.10231 0.10231,0.1023 -0.32456,-0.0134 -0.32455,-0.0134 0.22225,-0.0889 z m -0.51859,-1.52047 0.21167,-0.0854 0.21167,0.0854 0.21166,0.0854 h -0.42333 -0.42333 z m 5.461,-2.15312 v -0.0639 l 0.29634,-0.23241 0.29633,-0.2324 -0.2324,0.29634 -0.2324,0.29633 h -0.0639 -0.0639 z m -4.77308,-0.89841 0.22225,-0.0889 0.1023,0.10231 0.10231,0.1023 -0.32456,-0.0134 -0.32455,-0.0134 0.22225,-0.0889 z m 106.95196,-5.30299 v -3.302 l 0.0553,1.651 0.0554,1.651 -0.0554,1.651 -0.0553,1.651 z m -52.75515,2.413 -0.2324,-0.29634 0.29634,0.2324 0.29633,0.23241 v 0.0639 0.0639 h -0.0639 -0.0639 z m -17.2504,-0.0323 v -0.15934 l 0.1674,-0.10346 0.16739,-0.10345 -0.10084,0.26279 -0.10085,0.2628 h -0.0666 -0.0666 z m 2.67759,0.0437 0.22225,-0.0889 0.1023,0.1023 0.10231,0.10231 -0.32456,-0.0134 -0.32455,-0.0134 0.22225,-0.0889 z m 32.76555,-0.98499 0.002,-1.016 0.0685,0.55337 0.0685,0.55336 -0.0702,0.46264 -0.0702,0.46263 0.002,-1.016 z m 63.25659,0.29633 -0.2324,-0.29633 0.29634,0.2324 0.29633,0.2324 v 0.0639 0.0639 h -0.0639 -0.0639 z m -118.09636,-1.43933 -0.66937,-0.71967 0.71967,0.66937 0.71967,0.66937 v 0.0503 0.0503 h -0.0503 -0.0503 z m 72.60963,0.42905 0.46567,-0.0705 0.46566,0.0705 0.46567,0.0705 h -0.93133 -0.93134 z m 22.77533,-0.001 0.55034,-0.0683 0.55033,0.0683 0.55033,0.0683 h -1.10066 -1.10067 z m -105.48408,-1.34784 0.22225,-0.0889 0.10231,0.10231 0.10231,0.1023 -0.32456,-0.0134 -0.32455,-0.0134 0.22224,-0.0889 z m 1.69334,0 0.22225,-0.0889 0.1023,0.10231 0.10231,0.1023 -0.32456,-0.0134 -0.32455,-0.0134 0.22225,-0.0889 z m 63.21272,-0.67867 -0.0196,-0.879 0.13011,-0.0804 0.13012,-0.0804 -0.0544,0.70543 -0.0544,0.70542 -0.0561,0.254 -0.0561,0.254 z m 29.97909,0.11698 v -0.42333 l 0.0854,0.21167 0.0854,0.21166 -0.0854,0.21167 -0.0854,0.21167 z m -54.93306,-1.14084 0.889,-0.0622 0.889,0.0622 0.889,0.0622 h -1.778 -1.778 z m 26.67,0.002 0.635,-0.0664 0.635,0.0664 0.635,0.0664 h -1.27 -1.27 z m -23.88533,-0.46935 0.006,-0.508 0.0781,0.29955 0.0781,0.29956 -0.0843,0.20844 -0.0843,0.20845 0.006,-0.508 z m 39.97199,-0.54006 0.29633,-0.0774 0.29634,0.0774 0.29633,0.0774 h -0.59267 -0.59266 z m 23.02933,0 0.29634,-0.0774 0.29633,0.0774 0.29633,0.0774 h -0.59266 -0.59267 z m -83.35433,-2.48721 v -0.0639 l 0.29634,-0.2324 0.29633,-0.2324 -0.2324,0.29633 -0.2324,0.29633 h -0.0639 -0.0639 z m -33.15226,-2.09497 -0.69651,-1.48176 -0.25267,-1.016 -0.25266,-1.016 -0.52263,-3.96087 -0.52263,-3.96087 0.0467,-0.0385 0.0467,-0.0385 0.39342,0.48514 0.39343,0.48514 -0.27503,-0.10554 -0.27503,-0.10553 0.10059,0.40241 0.10058,0.40242 0.0625,0.67733 0.0625,0.67734 0.19538,1.27 0.19539,1.27 0.0756,0.84666 0.0756,0.84667 0.0601,0.42333 0.0601,0.42334 0.11548,0.27107 0.11548,0.27106 -0.0285,0.15227 -0.0285,0.15226 0.0201,0.30633 0.02,0.30633 0.17353,-0.10725 0.17353,-0.10725 -0.0327,0.13959 -0.0327,0.13959 0.13174,0.63352 0.13173,0.63351 0.17693,-0.10935 0.17693,-0.10934 -0.11088,0.1794 -0.11087,0.17941 0.36634,0.68634 0.36635,0.68634 0.13285,-0.0821 0.13285,-0.0821 -0.0705,0.3661 -0.0705,0.3661 -0.0618,0.0618 -0.0618,0.0618 z m 1.9526,0.86142 0.21167,-0.0854 0.21166,0.0854 0.21167,0.0854 h -0.42333 -0.42334 z m 2.71992,-0.34219 0.22225,-0.0889 0.1023,0.10231 0.10231,0.1023 -0.32456,-0.0134 -0.32455,-0.0134 0.22225,-0.0889 z m 3.38666,-0.508 0.22225,-0.0889 0.10231,0.10231 0.1023,0.1023 -0.32455,-0.0134 -0.32456,-0.0134 0.22225,-0.0889 z m 2.19075,-0.33514 0.21167,-0.0854 0.21166,0.0854 0.21167,0.0854 h -0.42333 -0.42333 z m 0.80433,-0.0572 -0.10465,-0.16933 0.22166,-0.006 0.22166,-0.006 -0.39976,-0.33303 -0.39976,-0.33303 0.14576,0.006 0.14576,0.006 0.39392,0.32831 0.39392,0.3283 -0.10758,0.17406 -0.10758,0.17407 h -0.14935 -0.14934 z m -10.24466,-0.16933 v -0.16933 h 0.17933 0.17932 l -0.10465,0.16933 -0.10465,0.16933 h -0.0747 -0.0747 z m 8.55856,-0.66563 -0.0974,-0.15763 0.14387,-0.0889 0.14388,-0.0889 v 0.24655 0.24655 h -0.0464 -0.0465 z m 18.95547,-0.15018 0.082,-0.082 -0.2937,-0.23775 -0.29371,-0.23775 0.37157,0.17959 0.37157,0.17958 0.0867,0.1402 0.0866,0.1402 h -0.24655 -0.24655 z m -18.47364,-0.27315 -0.10121,-0.26376 -0.17775,0.10986 -0.17776,0.10985 0.12171,-0.19693 0.12171,-0.19692 -0.3785,-0.14002 -0.37849,-0.14001 0.15595,-0.0953 0.15595,-0.0953 0.5641,0.47225 0.56411,0.47225 -0.1843,0.1139 -0.1843,0.11391 z m 19.15361,-0.26571 -0.10466,-0.16933 h 0.17933 0.17933 v 0.16933 0.16934 h -0.0747 -0.0747 z m 0.93133,-0.67733 -0.254,-0.16415 0.20167,-0.003 0.20168,-0.003 0.10465,0.16934 0.10465,0.16933 -0.0523,-0.003 -0.0523,-0.003 z m -21.43675,-0.381 -0.32258,-0.381 0.381,0.32258 0.381,0.32258 v 0.0584 0.0584 h -0.0584 -0.0584 z m 21.86128,0.0443 -0.10345,-0.16739 0.24566,0.0943 0.24567,0.0943 0.11179,-0.18088 0.11179,-0.18087 h 0.1917 0.19171 l -0.3287,0.24861 -0.3287,0.24862 -0.11701,0.005 -0.117,0.005 -0.10346,-0.1674 z m 1.09947,-0.57918 v -0.0586 l 0.254,-0.2108 0.254,-0.2108 v 0.17195 0.17195 l -0.254,0.0975 -0.254,0.0975 z m -24.31542,-0.48109 -0.32258,-0.381 0.381,0.32258 0.381,0.32258 v 0.0584 0.0584 h -0.0584 -0.0584 z m 25.16582,-0.21616 0.20707,-0.24951 h 0.24326 0.24326 l -0.12083,-0.19549 -0.12082,-0.1955 0.1955,0.12082 0.19549,0.12083 v 0.0623 0.0623 l -0.525,0.2619 -0.525,0.26191 z m -26.1757,-0.32879 -0.3287,-0.24861 0.1793,-0.005 0.17931,-0.005 0.32869,0.24861 0.3287,0.24862 -0.1793,0.005 -0.1793,0.005 z m 27.50443,-0.48663 0.1886,-0.22725 -0.12553,-0.13856 -0.12553,-0.13857 0.21989,0.12689 0.21989,0.12689 -0.19829,0.23892 -0.19829,0.23893 h -0.0847 -0.0847 z m -28.25444,-0.18117 0.16731,-0.16732 0.19458,0.19458 0.19458,0.19458 -0.3619,-0.0273 -0.36189,-0.0273 z m 19.64064,0.17515 v -0.0639 l 0.29634,-0.2324 0.29633,-0.2324 -0.2324,0.29633 -0.2324,0.29633 h -0.0639 -0.0639 z m 4.064,-0.11539 v -0.17933 l 0.16934,0.10465 0.16933,0.10466 v 0.0747 0.0747 h -0.16933 -0.16934 z m 5.08,-0.22328 v -0.0639 l 0.29634,-0.2324 0.29633,-0.2324 -0.2324,0.29633 -0.2324,0.29634 h -0.0639 -0.0639 z m -0.42213,-0.44212 -0.10346,-0.1674 0.2628,0.10085 0.26279,0.10084 v 0.0666 0.0666 h -0.15934 -0.15934 z m -5.1525,-0.43939 0.0134,-0.32455 0.0889,0.22225 0.0889,0.22225 -0.10231,0.1023 -0.1023,0.10231 0.0134,-0.32456 z m 6.82323,-0.0359 0.10412,-0.16848 -0.2476,-0.095 -0.2476,-0.095 -0.0903,0.14604 -0.0903,0.14604 -0.35281,-0.0923 -0.35282,-0.0923 0.22599,-0.14325 0.22598,-0.14325 -0.93134,-0.029 -0.93133,-0.0291 -0.42333,-0.051 -0.42334,-0.051 -1.19944,-0.0578 -1.19945,-0.0578 v 0.21998 0.21997 l 0.18345,0.0119 0.18344,0.0119 -0.33866,0.13228 -0.33867,0.13228 -0.29633,-0.18491 -0.29634,-0.18492 v -0.19981 -0.19982 l 0.46567,-0.0923 0.46567,-0.0923 0.61866,-0.10623 0.61866,-0.10624 2.514,0.38185 2.51401,0.38184 0.14518,0.12625 0.14518,0.12624 -0.37728,0.20192 -0.37728,0.20191 0.10413,-0.16848 z m -6.15926,-0.42974 v -0.22578 h -0.25131 -0.25132 l 0.18738,0.22578 0.18738,0.22577 h 0.0639 0.0639 z m -25.88375,0.075 -0.22974,-0.14557 0.16967,-0.10486 0.16966,-0.10486 0.0971,0.25303 0.0971,0.25302 -0.037,-0.003 -0.037,-0.003 -0.22975,-0.14557 z m -0.81447,-0.77312 v -0.24655 l 0.14387,0.0889 0.14387,0.0889 -0.0974,0.15764 -0.0974,0.15763 h -0.0465 -0.0464 z m -0.63823,-0.55048 -0.11562,-0.30364 0.21041,0.20885 0.21041,0.20884 -0.0948,0.0948 -0.0948,0.0948 z m 14.11933,-0.68464 -0.58355,-0.635 0.635,0.58355 0.635,0.58356 v 0.0514 0.0514 h -0.0514 -0.0514 z m -15.65421,-0.38615 -0.16934,-0.15755 -0.508,-0.43973 -0.508,-0.43972 0.5617,0.30941 0.56169,0.30941 0.26888,0.29633 0.26889,0.29634 -0.15325,-0.008 -0.15324,-0.008 z m -1.82316,-0.18519 0.20885,-0.21041 0.0948,0.0948 0.0948,0.0948 -0.30364,0.11562 -0.30363,0.11562 z m -0.12418,-0.467 v -0.16934 l 0.16934,-0.10465 0.16933,-0.10465 v 0.16933 0.16933 l -0.16933,0.10466 -0.16934,0.10465 z m 7.41892,-2.845 0.22225,-0.0889 0.1023,0.1023 0.10231,0.10231 -0.32456,-0.0134 -0.32455,-0.0134 0.22225,-0.0889 z m 1.69333,0 0.22225,-0.0889 0.10231,0.1023 0.1023,0.10231 -0.32455,-0.0134 -0.32456,-0.0134 0.22225,-0.0889 z"
         id="path873" />
      <path
         style="fill:#ffffff;stroke:none;stroke-opacity:1"
         d="m -470.81365,-430.48334 -1.35467,-0.38167 -2.34623,-0.97189 -2.34624,-0.9719 -1.27918,-0.32716 -1.27919,-0.32716 h -1.46982 -1.46983 l -1.27851,0.32699 -1.27851,0.32699 -2.0609,0.85293 -2.0609,0.85292 0.0527,-0.53556 0.0527,-0.53555 1.94733,-0.78717 1.94733,-0.78716 1.27,-0.3162 1.27,-0.3162 1.69334,0.005 1.69333,0.005 1.18533,0.30837 1.18534,0.30838 2.62466,1.05891 2.62467,1.05891 0.93133,0.27634 0.93133,0.27635 1.44505,0.10325 1.44504,0.10325 1.39791,-0.28326 1.39791,-0.28325 3.18734,-1.2635 3.18734,-1.26351 h 0.36204 0.36204 v 0.40973 0.40972 l -0.889,0.28971 -0.889,0.2897 -2.26157,0.92075 -2.26157,0.92074 -1.27918,0.32716 -1.27919,0.32716 -1.87791,-0.0126 -1.87791,-0.0126 z m 41.37025,-0.72479 0.22225,-0.0889 0.10231,0.1023 0.1023,0.10231 -0.32455,-0.0134 -0.32456,-0.0134 0.22225,-0.0889 z m -16.14951,-4.87966 1.5e-4,-4.91066 0.0518,2.50802 0.0518,2.50803 -0.052,2.40264 -0.052,2.40264 z m 64.516,0 1.4e-4,-4.91066 0.0518,2.50802 0.0518,2.50803 -0.052,2.40264 -0.052,2.40264 z m 21.336,0 1.4e-4,-4.91066 0.0518,2.50802 0.0518,2.50803 -0.0519,2.40264 -0.052,2.40264 z m -9.31348,-0.0847 v -4.826 l 0.052,2.413 0.052,2.413 -0.052,2.413 -0.052,2.413 z m -73.60759,3.43002 1.397,-0.0571 1.397,0.0571 1.397,0.057 h -2.794 -2.794 z m 44.19599,0 1.397,-0.0571 1.397,0.0571 1.397,0.057 h -2.794 -2.794 z m 32.34267,0 1.397,-0.0571 1.397,0.0571 1.397,0.057 h -2.794 -2.794 z m -61.42566,-0.10729 v -0.0639 l 0.29633,-0.2324 0.29633,-0.2324 -0.2324,0.29633 -0.2324,0.29633 h -0.0639 -0.0639 z m 89.47657,-0.65573 -0.32258,-0.381 0.381,0.32258 0.381,0.32257 v 0.0584 0.0584 h -0.0584 -0.0584 z m -14.89876,-4.10634 -3.4e-4,-3.38666 0.0553,1.64199 0.0553,1.64199 -0.055,1.74468 -0.055,1.74467 -3.4e-4,-3.38667 z m -53.60208,2.32834 -0.2324,-0.29634 0.29633,0.2324 0.29634,0.23241 v 0.0639 0.0639 h -0.0639 -0.0639 z m -36.25807,-0.16807 1.22767,-0.0584 1.22767,0.0584 1.22766,0.0584 h -2.45533 -2.45533 z m 44.196,0 1.22767,-0.0584 1.22766,0.0584 1.22767,0.0584 h -2.45533 -2.45534 z m 32.34267,0 1.22766,-0.0584 1.22767,0.0584 1.22767,0.0584 h -2.45534 -2.45533 z m 27.16867,-0.63627 0.006,-0.508 0.0781,0.29956 0.0781,0.29956 -0.0843,0.20844 -0.0843,0.20844 0.006,-0.508 z m -130.92767,-0.33687 -1.10067,-0.24719 -0.762,-0.28208 -0.762,-0.28209 -1.94733,-0.8115 -1.94733,-0.8115 -1.27,-0.35531 -1.27,-0.3553 -1.69333,-0.003 -1.69334,-0.003 -1.27,0.33208 -1.27,0.33208 -1.84534,0.77661 -1.84535,0.77661 h -0.14432 -0.14432 l 3.4e-4,-0.46567 3.4e-4,-0.46567 1.98934,-0.79566 1.98935,-0.79566 1.016,-0.27061 1.016,-0.2706 1.45843,-0.10029 1.45842,-0.1003 1.16624,0.21608 1.16625,0.21607 1.35466,0.47052 1.35467,0.47051 1.86267,0.77009 1.86266,0.77008 1.10067,0.28841 1.10067,0.28841 1.69333,-0.002 1.69333,-0.002 1.10067,-0.29421 1.10067,-0.29421 2.20133,-0.89977 2.20133,-0.89978 1.0863,-0.35578 1.0863,-0.35578 h 0.0567 0.0567 v 0.4812 0.4812 l -0.71967,0.21257 -0.71966,0.21257 -2.20134,0.89678 -2.20133,0.89679 -1.18533,0.37395 -1.18533,0.37396 -1.94734,0.065 -1.94733,0.065 -1.10067,-0.24719 z m 37.62501,-1.86446 0.006,-0.508 0.0781,0.29956 0.0781,0.29955 -0.0843,0.20845 -0.0843,0.20844 0.006,-0.508 z m 93.10032,-1.35467 0.39769,-0.42333 h 0.0847 0.0847 l -0.3977,0.42333 -0.39769,0.42334 h -0.0847 -0.0847 z m -103.33566,0.12802 1.397,-0.057 1.397,0.057 1.397,0.057 h -2.794 -2.794 z m 44.36533,0 1.397,-0.057 1.397,0.057 1.397,0.057 h -2.794 -2.794 z m 32.17333,0 1.397,-0.057 1.397,0.057 1.397,0.057 h -2.794 -2.794 z m -63.15936,-1.51778 0.38298,-0.0736 0.29436,0.0771 0.29436,0.0771 -0.67734,-0.003 -0.67733,-0.003 0.38297,-0.0737 z m -52.65405,-4.73724 0.22225,-0.0889 0.1023,0.1023 0.10231,0.10231 -0.32456,-0.0134 -0.32455,-0.0134 0.22225,-0.0889 z m 121.68736,-6.14966 v -4.65667 l 0.0523,2.32833 0.0523,2.32834 -0.0523,2.32833 -0.0523,2.32833 z m 43.50842,2.70933 v -1.94733 l 0.0611,0.97366 0.0611,0.97367 -0.0611,0.97367 -0.0611,0.97366 z m -91.93368,-6.43467 v -8.21266 l 0.0485,4.10633 0.0485,4.10633 -0.0485,4.10634 -0.0485,4.10633 z m -64.5488,6.31732 0.29956,-0.0781 0.20844,0.0843 0.20845,0.0843 -0.508,-0.006 -0.508,-0.006 0.29955,-0.0781 z m 32.34051,-0.72932 0.0692,-0.254 3.03405,-0.006 3.03404,-0.006 -2.9559,0.0528 -2.95591,0.0528 -0.14732,0.20751 -0.14732,0.20752 0.0692,-0.254 z m 6.47594,-0.16933 -0.33867,-0.14553 0.28634,-0.0119 0.28634,-0.0119 0.10465,0.16934 0.10466,0.16933 -0.0523,-0.0119 -0.0523,-0.0119 z m 108.69836,-1.07513 -0.0877,-0.22847 0.0527,-1.16853 0.0527,-1.16854 0.0826,1.3974 0.0826,1.3974 -0.0476,-3.4e-4 -0.0477,-3.4e-4 -0.0877,-0.22846 z m -147.68736,-0.73949 0.46566,-0.0705 0.46567,0.0705 0.46567,0.0706 h -0.93134 -0.93133 z m -1.651,-2.25311 -0.67733,-0.13595 -0.95603,-0.35906 -0.95603,-0.35906 -0.9913,-0.64332 -0.99131,-0.64332 -1.016,-1.09131 -1.016,-1.09131 -0.55449,-1.04297 -0.55449,-1.04298 -0.33451,-1.30791 -0.33451,-1.30792 v -0.38279 -0.38279 l 0.54379,-0.11944 0.5438,-0.11944 0.81046,0.0183 0.81045,0.0183 1.65142,0.40897 1.65141,0.40898 0.5972,0.10266 0.59719,0.10267 0.97672,-0.25441 0.97673,-0.2544 1.30474,-0.74714 1.30475,-0.74715 0.70267,-0.20607 0.70267,-0.20608 0.73667,0.26437 0.73666,0.26437 1.10067,0.46444 1.10066,0.46444 1.10067,-0.009 1.10067,-0.009 0.93133,-0.35899 0.93133,-0.35899 0.0423,-9e-5 0.0423,-8e-5 -0.003,0.71966 -0.003,0.71967 -0.2394,1.12952 -0.23939,1.12952 -0.64358,1.32582 -0.64358,1.32581 -1.35775,1.3743 -1.35775,1.3743 -1.27257,0.60805 -1.27257,0.60806 -1.0981,0.25881 -1.0981,0.25881 -1.35466,-0.0161 -1.35467,-0.0161 -0.67733,-0.13595 z m -7.02733,-1.4356 -0.74785,-0.762 h 0.0847 0.0847 l 0.74785,0.762 0.74785,0.762 h -0.0847 -0.0847 z m 18.20333,-0.0847 0.6614,-0.67733 h 0.0847 0.0847 l -0.6614,0.67733 -0.6614,0.67733 h -0.0847 -0.0847 z m 63.62699,-1.47913 0.80434,-0.0634 0.80433,0.0634 0.80433,0.0634 h -1.60866 -1.60867 z m 31.877,-0.0449 -0.10465,-0.16933 h 0.17933 0.17932 v 0.16933 0.16933 h -0.0747 -0.0747 z m 42.66055,-1.48111 0.0115,-1.31289 4.48733,-0.004 4.48734,-0.004 -4.43793,0.0495 -4.43793,0.0495 -0.0609,1.26776 -0.0608,1.26775 0.0113,-1.31289 z m -70.70681,-1.01656 -0.2324,-0.29633 0.29633,0.2324 0.29633,0.2324 v 0.0639 0.0639 h -0.0639 -0.0639 z m 24.61174,-0.33852 4.35482,-0.0482 0.054,-1.90215 0.054,-1.90216 0.0362,1.98967 0.0362,1.98967 -4.445,-0.0394 -4.445,-0.0393 z m 24.91923,-1.73581 v -1.94733 l 0.0611,0.97366 0.0611,0.97367 -0.0611,0.97367 -0.0611,0.97366 z m -135.73178,-4.01034 0.22225,-0.0889 0.1023,0.10231 0.10231,0.1023 -0.32456,-0.0134 -0.32455,-0.0134 0.22225,-0.0889 z m 1.18533,0 0.22225,-0.0889 0.1023,0.10231 0.10231,0.1023 -0.32456,-0.0134 -0.32455,-0.0134 0.22225,-0.0889 z m 6.63575,-4.85893 v -0.0639 l 0.29633,-0.2324 0.29634,-0.2324 -0.2324,0.29633 -0.23241,0.29634 h -0.0639 -0.0639 z m 40.01274,-0.2314 1.32007,-0.0578 1.21993,0.0583 1.21992,0.0583 -2.54,-5.1e-4 -2.54,-5e-4 1.32008,-0.0578 z m 16.32542,0.004 0.54283,-0.0677 0.059,-1.13283 0.059,-1.13284 0.0332,1.22767 0.0332,1.22767 -0.635,-0.0271 -0.635,-0.0271 0.54283,-0.0677 z m 4.0715,0.002 0.381,-0.0734 0.381,0.0734 0.381,0.0734 h -0.762 -0.762 z m 5.51108,-0.007 1.32007,-0.0578 1.21993,0.0583 1.21992,0.0583 -2.54,-5.1e-4 -2.54,-5e-4 1.32008,-0.0578 z m 8.66067,-0.0928 -0.084,-0.21878 0.0517,-2.61756 0.0517,-2.61755 0.0376,2.74093 0.0376,2.74094 0.55034,0.0683 0.55033,0.0683 -0.55565,0.0271 -0.55564,0.0271 z m 6.15023,0.099 0.38297,-0.0736 0.29436,0.0771 0.29436,0.0771 -0.67734,-0.003 -0.67733,-0.003 0.38298,-0.0736 z m 5.67069,0.003 0.29633,-0.0774 0.29633,0.0774 0.29634,0.0774 h -0.59267 -0.59267 z m 4.23333,0 0.29633,-0.0774 0.29634,0.0774 0.29633,0.0774 h -0.59267 -0.59266 z m 4.31997,-0.003 0.38298,-0.0736 0.29436,0.0771 0.29436,0.0771 -0.67734,-0.003 -0.67733,-0.003 0.38297,-0.0736 z m 4.48536,0.003 0.29634,-0.0774 0.29633,0.0774 0.29633,0.0774 h -0.59266 -0.59267 z m 4.40267,0 0.29633,-0.0774 0.29634,0.0774 0.29633,0.0774 h -0.59267 -0.59266 z m 5.31354,-0.0172 -0.0828,-0.13394 0.58079,0.0678 0.58078,0.0678 v 0.0661 0.0661 h -0.498 -0.49801 z m 9.67246,0.01 0.71967,-0.0648 0.71966,0.0648 0.71967,0.0648 h -1.43933 -1.43934 z m -117.17866,-0.66549 0.21166,-0.0854 0.21167,0.0854 0.21167,0.0854 h -0.42334 -0.42333 z m 117.63688,-2.55462 0.007,-2.32856 0.84666,-0.0173 0.84667,-0.0173 -0.79961,0.0687 -0.79962,0.0687 -0.0545,2.27715 -0.0545,2.27714 0.007,-2.32856 z m -130.63321,0.9095 v -0.0639 l 0.29633,-0.2324 0.29633,-0.2324 -0.2324,0.29633 -0.2324,0.29634 h -0.0639 -0.0639 z m 134.30806,-0.95206 v -0.42334 l 0.0854,0.21167 0.0854,0.21167 -0.0854,0.21166 -0.0854,0.21167 z m -91.99633,-0.29634 -0.2324,-0.29633 0.29633,0.2324 0.29633,0.2324 v 0.0639 0.0639 h -0.0639 -0.0639 z m 26.00268,-0.889 0.0116,-1.10066 0.97452,-0.0139 0.97451,-0.0139 -0.92463,0.0645 -0.92463,0.0645 -0.0615,1.0501 -0.0615,1.05011 0.0116,-1.10066 z m -55.48544,0.55757 0.38297,-0.0736 0.29436,0.0771 0.29436,0.0771 -0.67733,-0.003 -0.67734,-0.003 0.38298,-0.0736 z m 11.29306,-1.1079 -0.66937,-0.71967 0.71967,0.66937 0.71966,0.66937 v 0.0503 0.0503 h -0.0503 -0.0503 z m 110.30703,-0.59267 -0.2324,-0.29633 0.29633,0.2324 0.29633,0.2324 v 0.0639 0.0639 h -0.0639 -0.0639 z m -53.67719,-0.41801 0.0921,-0.55565 0.063,0.40053 0.063,0.40053 -0.15512,0.15512 -0.15513,0.15512 z m 22.67149,0.42229 0.55336,-0.0685 0.46264,0.0702 0.46263,0.0702 -1.016,-0.002 -1.016,-0.002 0.55337,-0.0685 z m -74.33839,-1.52104 0.38297,-0.0736 0.29436,0.0771 0.29436,0.0771 -0.67733,-0.003 -0.67734,-0.003 0.38298,-0.0737 z m -25.36876,-0.68457 -0.58355,-0.635 0.635,0.58355 0.635,0.58355 v 0.0514 0.0514 h -0.0514 -0.0514 z m -1.47402,-2.15861 0.12553,-0.13856 -0.14982,-0.18492 -0.14981,-0.18491 -0.35996,-0.64592 -0.35995,-0.64593 0.11407,-0.18457 0.11407,-0.18457 -0.17693,0.10934 -0.17693,0.10935 -0.13173,-0.63351 -0.13174,-0.63352 0.0327,-0.13959 0.0327,-0.13959 -0.17353,0.10725 -0.17353,0.10725 -0.02,-0.30633 -0.0201,-0.30633 0.0285,-0.15226 0.0285,-0.15227 -0.11548,-0.27106 -0.11548,-0.27107 -0.0601,-0.42334 -0.0601,-0.42333 -0.0756,-0.84667 -0.0756,-0.84666 -0.19539,-1.27 -0.19538,-1.27 -0.0625,-0.67734 -0.0625,-0.67733 -0.0899,-0.35983 -0.0899,-0.35984 h 0.38364 0.38364 l 0.67261,0.58561 0.6726,0.5856 -0.508,-0.28741 -0.508,-0.28741 0.47511,0.44264 0.47511,0.44264 h 0.16988 0.16989 l -0.12758,-0.20643 -0.12759,-0.20644 1.06171,0.83413 1.06171,0.83413 0.15059,0.28137 0.15059,0.28138 -0.12104,0.13408 -0.12104,0.13408 0.21442,-0.12352 0.21443,-0.12351 -0.11993,-0.19997 -0.11994,-0.19997 0.24418,0.18247 0.24417,0.18246 1.016,0.81597 1.016,0.81596 -0.0465,0.15716 -0.0465,0.15716 0.14802,-0.0915 0.14802,-0.0915 0.66051,0.48655 0.66051,0.48655 0.38955,0.52839 0.38955,0.52838 0.18315,-0.11319 0.18314,-0.11319 0.52797,0.58291 0.52797,0.58291 -0.254,-0.34743 -0.254,-0.34743 0.38697,0.32798 0.38697,0.32799 -0.0853,0.22235 -0.0853,0.22235 h 0.25868 0.25867 l -0.11465,-0.18551 -0.11465,-0.18551 1.44586,1.07451 1.44587,1.07451 0.0135,0.091 0.0135,0.091 -0.32904,0.0248 -0.32903,0.0248 0.10443,-0.27215 0.10444,-0.27215 -0.29725,0.11407 -0.29725,0.11406 h -0.0655 -0.0655 l 0.0862,0.22455 0.0862,0.22455 -2.31706,0.28743 -2.31706,0.28743 -0.0872,-0.0872 -0.0872,-0.0872 -0.22816,0.18937 -0.22817,0.18935 -0.67641,-0.10816 -0.67642,-0.10816 v 0.19363 0.19363 l -0.67737,-0.0908 -0.67737,-0.0909 0.10881,0.17607 0.10882,0.17606 -0.80419,-0.12059 -0.8042,-0.1206 0.12178,0.19703 0.12177,0.19704 -0.40003,-0.0517 -0.40002,-0.0517 -0.254,0.14892 -0.254,0.14892 0.12553,-0.13857 z m 7.53328,-1.20336 -0.10231,-0.10231 -0.22225,0.0889 -0.22225,0.0889 0.32456,0.0134 0.32455,0.0134 -0.1023,-0.10231 z m 2.28952,-0.34851 -0.21166,-0.0854 -0.21167,0.0854 -0.21166,0.0854 h 0.42333 0.42333 z m -9.60966,-0.22652 0.10465,-0.16933 h -0.17932 -0.17933 v 0.16933 0.16933 h 0.0747 0.0747 z m 10.07533,-0.42333 -0.2108,-0.254 h -0.18096 -0.18097 l 0.3287,0.24861 0.3287,0.24862 0.0631,0.005 0.0631,0.005 z m -1.58044,-0.33122 v -0.24655 l -0.14388,0.0889 -0.14387,0.0889 0.0974,0.15763 0.0974,0.15763 h 0.0465 0.0464 z m 0.63766,-0.24293 0.0932,-0.15081 -0.39366,-0.25793 -0.39366,-0.25794 v 0.23197 0.23196 l 0.12337,-0.0763 0.12337,-0.0762 0.0971,0.25303 0.0971,0.25302 h 0.08 0.08 z m -3.70392,-2.98724 -0.32869,-0.24861 -0.17931,0.005 -0.1793,0.005 0.3287,0.24861 0.3287,0.24862 0.1793,-0.005 0.1793,-0.005 z m -0.74672,-0.62977 -0.19458,-0.19458 -0.16731,0.16732 -0.16732,0.16732 0.36189,0.0273 0.3619,0.0273 z m -2.16497,-1.5652 -0.0971,-0.25303 -0.16966,0.10486 -0.16967,0.10486 0.22974,0.14557 0.22975,0.14558 0.037,0.003 0.037,0.003 -0.0971,-0.25303 z m -1.5646,-1.31613 -0.21041,-0.20885 0.11562,0.30364 0.11562,0.30364 0.0948,-0.0948 0.0948,-0.0948 z m -1.20634,-0.87619 v -0.0747 l -0.16933,-0.10465 -0.16934,-0.10466 v 0.17933 0.17933 h 0.16934 0.16933 z m -1.94285,-0.40062 -0.0948,-0.0948 -0.20885,0.21041 -0.20884,0.21041 0.30363,-0.11562 0.30364,-0.11562 z m -0.0891,-0.56069 v -0.16933 l -0.16933,0.10465 -0.16934,0.10465 v 0.16934 0.16933 l 0.16934,-0.10465 0.16933,-0.10466 z m 35.3244,10.71777 -0.10859,-0.17571 0.18336,-0.11333 0.18336,-0.11332 0.0642,0.0642 0.0642,0.0642 -0.13896,0.22485 -0.13896,0.22484 z m -6.44505,-1.99827 0.1198,-0.82551 0.084,-0.14473 0.084,-0.14473 0.0677,-0.8668 0.0677,-0.86679 0.15211,-0.15211 0.15212,-0.15211 -0.0896,-0.23337 -0.0896,-0.23336 0.12709,-0.29634 0.12708,-0.29633 -0.0316,-0.508 -0.0316,-0.508 0.19135,0.254 0.19135,0.254 -0.0835,-0.381 -0.0835,-0.381 h 0.14349 0.14348 l 0.0948,0.15344 0.0948,0.15343 0.35281,-0.0923 0.35282,-0.0923 -0.14132,-0.10351 -0.14131,-0.10351 -0.0311,-0.17805 -0.0311,-0.17805 1.21646,0.0582 1.21646,0.0582 0.42334,0.051 0.42333,0.051 0.93133,0.0291 0.93134,0.029 -0.22598,0.14325 -0.22599,0.14325 0.35282,0.0923 0.35281,0.0923 0.0951,-0.15389 0.0951,-0.1539 0.35891,0.19209 0.35891,0.19208 -0.30947,0.22628 -0.30946,0.22629 -0.14858,-0.0918 -0.14858,-0.0918 0.0465,0.17013 0.0465,0.17013 -2.50328,1.79631 -2.50327,1.79632 -0.15203,-0.094 -0.15201,-0.094 -0.12254,0.19826 -0.12253,0.19826 0.23783,-0.12308 0.23783,-0.12308 -0.50221,0.42875 -0.50221,0.42876 -0.25979,-0.22142 -0.25979,-0.22141 -0.254,-0.12298 -0.254,-0.12298 0.29371,0.24097 0.2937,0.24096 -0.12437,0.13741 -0.12437,0.1374 0.21167,-0.1218 0.21166,-0.12181 v 0.16779 0.1678 l -0.52155,0.37138 -0.52155,0.37137 z m 1.60065,-0.74085 v -0.16933 h -0.17933 -0.17933 l 0.10466,0.16933 0.10465,0.16934 h 0.0747 0.0747 z m 0.93133,-0.67733 -0.10465,-0.16933 -0.20168,0.003 -0.20167,0.003 0.254,0.16415 0.254,0.16414 0.0523,0.003 0.0523,0.003 z m 0.8367,-0.42872 0.3287,-0.24861 h -0.19171 -0.1917 l -0.11179,0.18087 -0.11179,0.18088 -0.24567,-0.0943 -0.24566,-0.0943 0.10345,0.16739 0.10346,0.1674 0.117,-0.005 0.11701,-0.005 0.3287,-0.24862 z m 0.9413,-0.79546 v -0.17195 l -0.254,0.2108 -0.254,0.2108 v 0.0586 0.0586 l 0.254,-0.0975 0.254,-0.0975 z m 1.18533,-0.72556 v -0.0623 l -0.19549,-0.12083 -0.1955,-0.12082 0.12082,0.1955 0.12083,0.19549 h -0.24326 -0.24326 l -0.20707,0.24951 -0.20707,0.2495 0.525,-0.26191 0.525,-0.2619 z m 0.66483,-0.49052 0.19829,-0.23892 -0.21989,-0.12689 -0.21989,-0.12689 0.12553,0.13857 0.12553,0.13856 -0.1886,0.22725 -0.1886,0.22725 h 0.0847 0.0847 z m -4.39016,-0.005 v -0.0747 l -0.16933,-0.10465 -0.16934,-0.10466 v 0.17933 0.17933 h 0.16934 0.16933 z m 5.1016,-0.56033 0.2324,-0.29633 -0.29633,0.2324 -0.29634,0.2324 v 0.0639 0.0639 h 0.0639 0.0639 z m -0.36027,-0.10888 v -0.0666 l -0.26279,-0.10084 -0.2628,-0.10085 0.10346,0.1674 0.10345,0.16739 h 0.15934 0.15934 z m -26.94559,1.63288 -0.2324,-0.29633 0.29633,0.2324 0.29633,0.2324 v 0.0639 0.0639 h -0.0639 -0.0639 z m 21.71968,-2.63877 -0.18738,-0.22578 h 0.25132 0.25131 v 0.22578 0.22577 h -0.0639 -0.0639 z m -30.75836,-4.34726 -0.30743,-0.33971 0.0695,-0.067 0.0695,-0.067 0.30424,0.40675 0.30424,0.40675 h -0.0663 -0.0663 z m 8.34258,-1.4734 0.38298,-0.0736 0.29436,0.0771 0.29436,0.0771 -0.67734,-0.003 -0.67733,-0.003 z"
         id="path871" />
      <path
         style="fill:#ffffff;stroke:none;stroke-opacity:1"
         d="m -429.90024,-431.2817 -0.91191,-0.15323 -0.84352,-0.4591 -0.84352,-0.4591 -0.0887,-0.23105 -0.0887,-0.23104 0.42342,-0.42343 0.42342,-0.42342 0.94303,0.53221 0.94302,0.53221 0.99519,0.0141 0.99518,0.0141 0.37957,-0.20314 0.37957,-0.20314 0.15704,-0.41304 0.15704,-0.41304 -0.14751,-0.38796 -0.1475,-0.38795 -0.2293,-0.18911 -0.22931,-0.18911 -1.45613,-0.42138 -1.45613,-0.42138 -0.51859,-0.26817 -0.51858,-0.26817 -0.35362,-0.44955 -0.35362,-0.44956 v -0.89881 -0.89882 l 0.34961,-0.59254 0.3496,-0.59253 0.71986,-0.34848 0.71986,-0.34848 h 1.1066 1.1066 l 0.5756,0.20037 0.57561,0.20037 0.54747,0.32267 0.54748,0.32268 -0.43115,0.56527 -0.43116,0.56528 -0.81825,-0.41099 -0.81824,-0.41098 h -0.91715 -0.91714 l -0.3706,0.34526 -0.3706,0.34527 0.003,0.45907 0.003,0.45907 0.12441,0.18804 0.12441,0.18804 0.508,0.25171 0.508,0.25172 1.47069,0.45129 1.47069,0.45129 0.50907,0.50907 0.50907,0.50907 0.1135,0.75689 0.1135,0.75688 -0.39993,0.80633 -0.39992,0.80634 -0.67733,0.36198 -0.67734,0.36198 -0.762,0.0857 -0.762,0.0857 z m 92.75515,-0.0343 -0.78208,-0.22078 -0.82658,-0.59336 -0.82657,-0.59335 -0.55033,-1.06193 -0.55034,-1.06193 0.004,-1.21288 0.004,-1.21287 0.32215,-0.70956 0.32214,-0.70956 0.69402,-0.75292 0.69403,-0.75293 0.88512,-0.38875 0.88511,-0.38874 1.18533,-0.005 1.18533,-0.005 0.9735,0.47876 0.9735,0.47876 0.53262,0.6066 0.5326,0.60661 0.34685,0.7706 0.34686,0.77061 v 1.18533 1.18533 l -0.34686,0.77061 -0.34685,0.7706 -0.54403,0.61961 -0.54402,0.61961 -0.87742,0.42873 -0.87741,0.42874 -1.016,0.0847 -1.016,0.0847 -0.7821,-0.22078 z m 2.67608,-1.48054 0.47669,-0.1801 0.48702,-0.4549 0.48702,-0.45489 0.31359,-0.67734 0.3136,-0.67733 0.004,-0.85312 0.004,-0.85312 -0.381,-0.74573 -0.381,-0.74573 -0.6413,-0.51019 -0.6413,-0.51019 -1.06598,-0.0679 -1.06599,-0.0679 -0.66338,0.33857 -0.66338,0.33857 -0.27591,0.31435 -0.27591,0.31435 -0.30375,0.59267 -0.30374,0.59266 -0.002,1.0464 -0.002,1.0464 0.50341,0.81424 0.50341,0.81424 0.67134,0.38025 0.67134,0.38024 0.87798,0.003 0.87797,0.003 0.47669,-0.18011 z m -111.02931,-3.2913 v -4.83294 l 3.429,0.0458 3.429,0.0458 0.0526,0.635 0.0525,0.635 h -2.71955 -2.71956 v 1.35002 1.35002 l 2.413,0.047 2.413,0.047 0.0526,0.635 0.0525,0.635 h -2.46555 -2.46556 v 1.43933 1.43934 h 2.80423 2.80422 l -0.0526,0.635 -0.0525,0.635 -3.51367,0.0458 -3.51367,0.0458 z m 21.50534,4.79302 v -0.0516 l 2.07509,-4.74134 2.07509,-4.74133 0.69122,-0.0507 0.69121,-0.0507 0.16672,0.22005 0.16672,0.22005 1.91286,4.39832 1.91287,4.39833 0.0829,0.216 0.0829,0.21601 h -0.78978 -0.78978 l -0.52553,-1.18981 -0.52553,-1.18982 -2.35412,0.0468 -2.35412,0.0468 -0.48596,1.10067 -0.48597,1.10067 -0.77338,0.0516 -0.77339,0.0516 z m 6.604,-3.83978 v -0.14749 l -0.77596,-1.75751 -0.77595,-1.7575 -0.1134,-0.11888 -0.1134,-0.11889 -0.80483,1.89689 -0.80483,1.89688 8.4e-4,0.127 8.5e-4,0.127 h 1.69333 1.69334 v -0.1475 z m 5.15651,3.65864 -0.0822,-0.21419 0.0452,-4.56947 0.0452,-4.56948 0.54669,-0.0528 0.54668,-0.0528 0.24061,0.13746 0.24062,0.13745 1.9454,2.54 1.9454,2.54 0.5693,0.6606 0.5693,0.66059 0.0847,-3.28526 0.0847,-3.28526 0.71966,-0.0521 0.71967,-0.0521 v 4.83574 4.83573 l -0.635,-0.006 -0.635,-0.006 -2.60233,-3.38113 -2.60234,-3.38113 h -0.14933 -0.14933 v 3.38667 3.38666 h -0.68265 -0.68265 z m 11.04304,0.1013 -0.11289,-0.11288 v -4.71655 -4.71655 l 3.51367,0.0458 3.51366,0.0458 0.0523,0.63076 0.0523,0.63076 -2.76164,0.0466 -2.76163,0.0466 -0.0494,1.30764 -0.0494,1.30764 2.42004,0.047 2.42004,0.047 0.0526,0.635 0.0525,0.635 h -2.46555 -2.46556 v 1.43933 1.43934 h 2.794 2.794 v 0.67733 0.67733 h -3.44311 -3.44311 z m 8.5875,-0.26811 0.10109,-0.381 1.9295,-4.40266 1.9295,-4.40267 0.75534,-0.0505 0.75534,-0.0505 2.06037,4.7072 2.06037,4.70719 -0.002,0.127 -0.002,0.127 -0.635,-0.003 -0.635,-0.003 -0.17436,-0.1244 -0.17437,-0.12441 -0.42644,-1.016 -0.42645,-1.016 -2.38277,-0.0469 -2.38278,-0.0469 -0.48774,1.1893 -0.48776,1.1893 -0.73802,5.1e-4 -0.73802,5e-4 0.1011,-0.381 z m 6.37028,-3.51717 v -0.17283 l -0.79972,-1.85532 -0.79971,-1.85531 -0.11422,0.12315 -0.11422,0.12315 -0.7794,1.83695 -0.7794,1.83696 v 0.068 0.068 h 1.69333 1.69334 z m 5.24933,-0.91809 v -4.83574 l 0.80433,0.002 0.80434,0.002 1.09651,1.73401 1.09651,1.73401 0.34282,0.54257 0.34282,0.54257 0.14881,-0.0418 0.1488,-0.0418 1.34942,-2.1094 1.34942,-2.1094 0.19511,-0.12884 0.19511,-0.12885 0.67733,0.0442 0.67734,0.0442 v 4.74133 4.74134 l -0.71967,0.0521 -0.71967,0.0521 v -3.49107 -3.49106 l -0.12841,0.0794 -0.12842,0.0794 -1.43791,2.12896 -1.43792,2.12895 h -0.0847 l -0.0847,-10e-6 -1.43933,-2.19592 -1.43933,-2.19593 -0.0847,3.4266 -0.0847,3.42661 -0.71966,0.0521 -0.71967,0.0521 v -4.83574 z m 12.02267,0.006 v -4.81679 l 3.47133,-0.0184 3.47133,-0.0184 v 0.68305 0.68305 h -2.70933 -2.70933 v 1.35002 1.35002 l 2.413,0.047 2.413,0.047 0.0525,0.635 0.0526,0.635 h -2.46556 -2.46555 v 1.43934 1.43933 h 2.80422 2.80422 l -0.0525,0.635 -0.0526,0.635 -3.51367,0.0458 -3.51366,0.0458 z m 9.31333,0.0214 v -4.80797 l 0.66904,-0.0262 0.66905,-0.0262 2.56207,3.30046 2.56207,3.30046 h 0.15555 0.15555 v -3.302 -3.302 h 0.76464 0.76464 l -0.045,4.78367 -0.045,4.78367 h -0.66841 -0.6684 l -1.24394,-1.60867 -1.24394,-1.60867 -1.43199,-1.84093 -1.43199,-1.84093 -0.006,0.57093 -0.006,0.57093 -0.0367,2.87867 -0.0367,2.87867 -0.71967,0.0521 -0.71967,0.0521 v -4.80798 z m 13.32886,4.68359 -0.12086,-0.12085 v -3.95112 -3.95111 h -1.524 -1.524 v -0.76517 -0.76518 l 3.85233,0.0455 3.85234,0.0455 v 0.67733 0.67734 l -1.47862,0.0489 -1.47862,0.0489 -0.0454,4.01512 -0.0454,4.01512 -0.68348,0.0503 -0.68348,0.0503 z m -123.39552,-11.1425 -1.10067,-0.23221 -1.778,-0.67964 -1.778,-0.67964 -1.59257,-0.62106 -1.59256,-0.62105 -1.25867,-0.24082 -1.25866,-0.24082 h -0.81687 -0.81688 l -1.25567,0.24025 -1.25568,0.24025 -1.59555,0.62751 -1.59555,0.62751 -0.80434,0.31688 -0.80433,0.31688 v -0.48467 -0.48467 l 2.19757,-0.87763 2.19758,-0.87763 1.23142,-0.2622 1.23143,-0.2622 1.86267,0.0849 1.86266,0.0849 1.15975,0.36691 1.15975,0.3669 2.31158,0.94541 2.31159,0.9454 1.17388,0.31262 1.17388,0.31262 h 1.63537 1.63536 l 1.27093,-0.32505 1.27094,-0.32505 1.93115,-0.79805 1.93115,-0.79806 1.17266,-0.40089 1.17266,-0.4009 h 0.15092 0.15093 l -0.0536,0.45133 -0.0536,0.45134 -1.35466,0.46099 -1.35467,0.461 -1.43933,0.62405 -1.43934,0.62405 -1.43933,0.41923 -1.43933,0.41923 -1.60867,0.0721 -1.60867,0.0721 z m 23.19866,-4.90802 v -0.0688 l 1.18829,-2.85223 1.18828,-2.85222 0.15947,-0.33867 0.15947,-0.33867 0.74522,-1.778 0.74522,-1.778 1.39955,-3.34433 1.39954,-3.34433 h 2.14156 2.14156 l 1.13347,2.667 1.13347,2.667 2.37645,5.62854 2.37645,5.62855 v 0.0865 0.0865 h -2.34145 -2.34145 l -0.60638,-1.48167 -0.60637,-1.48167 h -3.33048 -3.33048 l -0.30187,0.84667 -0.30186,0.84667 -0.26919,0.635 -0.26919,0.635 h -2.29464 -2.29464 z m 11.0073,-6.49289 6.8e-4,-0.127 -0.87277,-2.20133 -0.87276,-2.20134 -0.11334,-0.13034 -0.11334,-0.13034 -0.89501,2.24701 -0.895,2.24701 -0.085,0.21166 -0.085,0.21167 h 1.96545 1.96545 l 6.7e-4,-0.127 z m 9.22296,6.35524 -0.0831,-0.21691 0.0441,-8.04333 0.0441,-8.04333 2.33199,-0.0471 2.33199,-0.0471 0.67318,1.06313 0.67318,1.06314 1.31283,2.10495 1.31283,2.10495 0.15954,-0.0107 0.15954,-0.0107 1.93047,-3.1526 1.93046,-3.1526 h 2.35499 2.355 v 8.29733 8.29734 h -2.1987 -2.1987 l -0.045,-4.78367 -0.045,-4.78367 -2.08156,3.13267 -2.08156,3.13267 -0.13048,0.0459 -0.13047,0.0459 -1.6642,-2.5859 -1.6642,-2.5859 -0.44177,-0.59267 -0.44176,-0.59267 -0.0847,4.74134 -0.0847,4.74133 -2.07764,0.0476 -2.07764,0.0476 z m 20.8613,0.0935 -0.11289,-0.11289 v -8.18879 -8.18879 l 4.74729,0.014 4.7473,0.014 1.19812,0.31455 1.19812,0.31456 0.61625,0.49524 0.61625,0.49524 0.42201,0.74686 0.42201,0.74687 0.001,1.10066 10e-4,1.10067 -0.46204,0.78598 -0.46205,0.78598 -0.76894,0.50932 -0.76894,0.50933 1.06165,0.58144 1.06166,0.58144 0.508,0.72018 0.508,0.72017 -0.002,1.46708 -0.002,1.46708 -0.27915,0.51152 -0.27914,0.51152 -0.48009,0.48009 -0.48009,0.48008 -0.7633,0.38433 -0.7633,0.38434 -0.89734,0.19039 -0.89733,0.1904 h -4.78944 -4.78945 l -0.11289,-0.11289 z m 9.27839,-3.70527 0.55246,-0.26216 0.1928,-0.42314 0.19279,-0.42315 v -0.25444 -0.25444 l -0.24885,-0.48123 -0.24886,-0.48123 -0.53841,-0.18769 -0.53842,-0.1877 h -2.17606 -2.17607 v 1.60867 1.60867 h 2.21808 2.21808 z m -0.51194,-6.40395 0.42208,-0.27656 0.19079,-0.3565 0.19079,-0.35649 -0.10808,-0.57612 -0.10808,-0.57612 -0.45009,-0.29505 -0.45008,-0.29505 -2.082,-0.0597 -2.08201,-0.0597 v 1.51319 1.51319 l 0.127,0.13209 0.127,0.13209 1.9003,-0.0813 1.90029,-0.0813 z m 8.3009,10.01044 -0.0811,-0.21167 0.0441,-8.04333 0.0441,-8.04333 h 2.20133 2.20134 l 0.0439,8.255 0.0439,8.255 h -2.20826 -2.20826 z m 7.75248,-8.04333 0.0439,-8.255 6.56167,-0.0443 6.56167,-0.0443 v 1.8618 1.8618 l -4.36034,0.0452 -4.36033,0.0452 -0.0495,1.31233 -0.0494,1.31234 h 3.88105 3.88106 l 0.1969,0.23725 0.19691,0.23726 -0.0492,1.49841 -0.0492,1.49841 -4.02167,0.0454 -4.02167,0.0454 v 1.43627 1.43626 h 4.48734 4.48733 v 1.86267 1.86267 h -6.69028 -6.69028 z m 15.91733,0 0.0439,-8.255 2.06513,-0.0475 2.06513,-0.0475 3.4382,4.4268 3.4382,4.4268 0.0847,-4.37933 0.0847,-4.37932 h 2.20133 2.20133 v 8.21266 8.21267 l -1.86555,0.0475 -1.86556,0.0475 -0.2697,-0.21684 -0.2697,-0.21685 -2.93134,-3.77292 -2.93134,-3.77291 -0.55669,-0.62975 -0.55669,-0.62975 -0.007,4.61433 -0.007,4.61434 h -2.20295 -2.20294 z m 22.81928,1.905 v -6.35 h -2.45533 -2.45534 v -1.94917 -1.94918 l 7.15434,0.0442 7.15433,0.0442 0.0479,1.905 0.0479,1.905 h -2.46087 -2.46089 v 6.35 6.35 h -2.286 -2.286 z m 11.72472,-1.905 0.0439,-8.255 h 6.604 6.604 l 0.0541,1.8175 0.0541,1.81749 -4.45679,0.0452 -4.45677,0.0452 -0.0495,1.31233 -0.0495,1.31234 3.81712,0.0212 3.81712,0.0212 0.21167,0.0212 0.21167,0.0212 0.0482,1.73259 0.0482,1.73259 -4.02756,0.0454 -4.02756,0.0454 v 1.35467 1.35467 l 4.445,0.0451 4.445,0.0452 v 1.85985 1.85986 h -6.69027 -6.69028 z m -145.83671,5.96531 -1.10067,-0.22586 -0.93514,-0.32852 -0.93514,-0.32851 -0.92753,-0.46915 -0.92752,-0.46916 -1.016,-0.68462 -1.016,-0.68463 -1.11227,-1.11226 -1.11227,-1.11227 -0.72911,-1.08003 -0.7291,-1.08002 -0.55724,-1.20606 -0.55723,-1.20606 -0.38874,-1.43925 -0.38874,-1.43925 0.01,-2.45533 0.01,-2.45533 0.36746,-1.35467 0.36747,-1.35467 0.70952,-1.49595 0.70951,-1.49596 0.50395,-0.42404 0.50395,-0.42405 0.51952,0.10301 0.51951,0.103 0.29257,0.37767 0.29257,0.37766 0.004,0.37354 0.004,0.37355 -0.47543,0.81179 -0.47544,0.81178 -0.30485,0.762 -0.30485,0.762 -0.24909,0.762 -0.24909,0.762 -0.0925,2.12294 -0.0925,2.12293 0.35812,1.43307 0.35813,1.43306 0.66841,1.35467 0.66842,1.35467 0.95218,1.15087 0.95218,1.15087 1.04812,0.77254 1.04811,0.77254 1.16237,0.58613 1.16236,0.58614 1.29297,0.34647 1.29297,0.34647 h 1.94733 1.94734 l 1.31855,-0.35301 1.31855,-0.35301 1.32117,-0.68736 1.32118,-0.68735 1.08561,-0.89624 1.0856,-0.89624 0.6977,-0.92538 0.69769,-0.92537 0.51938,-0.92537 0.51938,-0.92537 0.45631,-1.35467 0.45631,-1.35466 0.0787,-1.94734 0.0787,-1.94733 -0.25876,-1.21549 -0.25875,-1.21549 -0.41727,-1.03305 -0.41726,-1.03305 -0.56805,-0.96565 -0.56805,-0.96564 -1.37654,-1.39179 -1.37655,-1.39179 -0.45988,-0.11542 -0.45987,-0.11542 -2.66528,0.36106 -2.66528,0.36106 -1.5943,-0.001 -1.5943,-10e-4 -1.41343,-0.33884 -1.41344,-0.33885 -1.21088,-0.60769 -1.21087,-0.6077 -0.76235,-0.55984 -0.76236,-0.55984 -1.03054,-1.07476 -1.03053,-1.07477 -0.20444,-0.38351 -0.20443,-0.38352 0.21897,-0.0786 0.21897,-0.0786 4.74133,-0.60572 4.74134,-0.60571 0.71966,-0.0982 0.71967,-0.0982 v -0.10559 -0.10558 l -0.3694,-0.23069 -0.36939,-0.2307 -3.73692,-2.88862 -3.73693,-2.88863 -1.10067,-0.85043 -1.10067,-0.85043 -1.82033,-1.41336 -1.82033,-1.41335 v -0.12493 -0.12493 l 0.29633,-0.0232 0.29633,-0.0232 3.3433,-0.43621 3.3433,-0.4362 1.56737,0.003 1.56737,0.003 0.99538,0.23417 0.99539,0.23417 0.12711,0.20568 0.12712,0.20567 0.0678,-0.2034 0.0678,-0.2034 1.76696,0.90066 1.76697,0.90066 1.46361,1.44258 1.4636,1.44258 0.69418,1.20241 0.69418,1.20241 0.42225,1.25786 0.42225,1.25787 0.43591,3.29706 0.43592,3.29706 0.37678,0.24181 0.37678,0.24181 1.53039,1.53619 1.53039,1.53619 0.65586,1.00108 0.65586,1.00108 0.53922,1.28492 0.53923,1.28492 0.32253,1.27 0.32252,1.27 -0.0152,2.54 -0.0153,2.54 -0.45155,1.48816 -0.45156,1.48815 -0.61269,1.21664 -0.61269,1.21665 -0.97973,1.28702 -0.97973,1.28703 -0.98877,0.84717 -0.98878,0.84718 -0.762,0.51482 -0.762,0.51482 -1.016,0.50683 -1.016,0.50683 -1.10066,0.35371 -1.10067,0.35373 -1.00477,0.17796 -1.00476,0.17797 -1.78923,-0.0159 -1.78924,-0.0159 -1.10067,-0.22586 z m -2.87867,-15.68849 -1.60867,-0.52395 -1.3969,-0.0199 -1.39689,-0.0199 0.004,-0.42334 0.004,-0.42333 0.31996,-0.70468 0.31996,-0.70467 0.35365,-0.35366 0.35365,-0.35366 h 0.49279 0.4928 l 1.06199,0.50224 1.06198,0.50225 0.74436,0.11162 0.74435,0.11162 0.41227,-0.18784 0.41227,-0.18785 0.91519,-1.41866 0.91519,-1.41866 0.46024,-0.36203 0.46024,-0.36202 0.7815,6.8e-4 0.78149,6.8e-4 0.54356,0.33142 0.54356,0.33142 0.42898,0.64824 0.42899,0.64824 0.65189,1.34804 0.6519,1.34804 h -1.37044 -1.37044 l -1.18533,0.66637 -1.18533,0.66638 -0.66775,0.34118 -0.66774,0.34119 -0.94092,0.0443 -0.94092,0.0443 -1.60867,-0.52396 z m 35.433,-5.97635 -0.889,-0.41389 0.005,-0.13479 0.005,-0.13479 0.22916,-0.3021 0.22916,-0.3021 0.56979,0.32802 0.56978,0.32803 0.56152,0.11698 0.56152,0.11699 0.49897,-0.20668 0.49897,-0.20668 0.10142,-0.4041 0.10142,-0.40409 -0.20788,-0.25048 -0.20788,-0.25048 -1.15878,-0.3451 -1.15877,-0.3451 -0.51492,-0.43328 -0.51492,-0.43327 v -0.56965 -0.56964 l 0.18376,-0.40332 0.18376,-0.40331 0.51044,-0.30153 0.51044,-0.30152 h 0.8435 0.8435 l 0.66363,0.29925 0.66364,0.29926 v 0.11125 0.11125 l -0.22395,0.30626 -0.22394,0.30626 -0.52965,-0.2739 -0.52965,-0.27389 h -0.67364 -0.67365 l -0.2661,0.2661 -0.26609,0.26609 v 0.30033 0.30032 l 0.29633,0.26336 0.29634,0.26335 1.20062,0.35468 1.20062,0.35467 0.27903,0.30833 0.27904,0.30833 0.10172,0.50864 0.10173,0.50864 -0.24821,0.59407 -0.24822,0.59406 -0.59676,0.28318 -0.59676,0.28318 -0.73641,-0.002 -0.7364,-0.002 -0.889,-0.41389 z m 17.30732,0.1083 -0.68433,-0.32025 -0.45421,-0.53979 -0.45421,-0.5398 -0.19084,-0.70872 -0.19084,-0.70873 0.0856,-0.63819 0.0856,-0.63819 0.44676,-0.76234 0.44676,-0.76233 0.71236,-0.37149 0.71236,-0.37149 0.93133,-0.006 0.93134,-0.006 0.66696,0.34665 0.66696,0.34665 0.047,0.15811 0.047,0.15812 -0.22969,0.30329 -0.22969,0.3033 -0.70368,-0.36678 -0.70368,-0.36677 -0.79074,0.0891 -0.79075,0.0891 -0.55615,0.60687 -0.55615,0.60686 -0.0255,0.46815 -0.0255,0.46816 0.0403,0.508 0.0403,0.508 0.32543,0.53041 0.32542,0.53041 0.5405,0.22388 0.5405,0.22388 0.67604,-0.0269 0.67603,-0.027 0.49402,-0.36525 0.49402,-0.36524 0.34114,0.34114 0.34115,0.34115 -0.71384,0.4724 -0.71385,0.4724 -0.95835,0.0577 -0.95836,0.0577 -0.68434,-0.32025 z m 80.43125,-0.11155 -0.83758,-0.42044 -0.41367,-0.61139 -0.41367,-0.61138 -0.0706,-0.97603 -0.0706,-0.97602 0.33715,-0.76218 0.33715,-0.76218 0.57045,-0.43169 0.57046,-0.43169 0.72218,-0.19215 0.72217,-0.19214 0.63249,0.11079 0.63249,0.11079 0.7071,0.40418 0.70711,0.40419 0.45876,0.93767 0.45876,0.93767 -0.10444,0.8818 -0.10444,0.8818 -0.47102,0.67842 -0.47102,0.67842 -0.75329,0.381 -0.75328,0.381 h -0.77754 -0.77754 z m 2.67459,-0.79617 0.46417,-0.1779 0.34017,-0.5504 0.34016,-0.55039 -0.002,-0.82668 -0.002,-0.82668 -0.21164,-0.41825 -0.21164,-0.41825 -0.5729,-0.38609 -0.57291,-0.38608 h -0.6685 -0.6685 l -0.50791,0.29633 -0.50791,0.29634 -0.32255,0.62825 -0.32255,0.62825 v 0.52019 0.52019 l 0.23484,0.56205 0.23485,0.56206 0.48704,0.3468 0.48704,0.34681 0.42112,0.0765 0.42111,0.0765 0.33867,-0.0709 0.33867,-0.0709 0.46417,-0.17791 z m -93.00483,-2.17005 v -3.21734 h 2.37067 2.37066 v 0.42334 0.42333 h -1.86266 -1.86267 v 0.93133 0.93134 h 1.69333 1.69334 v 0.508 0.508 h -1.69334 -1.69333 v 0.93133 0.93133 h 1.94733 1.94734 v 0.42334 0.42333 h -2.45534 -2.45533 z m 17.10267,0 v -3.21734 l 1.82033,3.4e-4 1.82033,3.4e-4 0.59267,0.29607 0.59267,0.29607 0.30201,0.59267 0.30201,0.59266 -0.10406,0.59267 -0.10406,0.59267 -0.35173,0.37809 -0.35174,0.37809 -0.31188,0.099 -0.31189,0.099 v 0.16991 0.16992 l 0.77687,1.08868 0.77686,1.08867 h -0.59267 -0.59266 l -0.78542,-1.10067 -0.78542,-1.10066 h -0.83811 -0.83811 v 1.10066 1.10067 h -0.508 -0.508 v -3.21733 z m 3.92366,-0.28025 0.30967,-0.28024 v -0.64513 -0.64513 l -0.381,-0.20665 -0.381,-0.20664 -1.18533,-0.011 -1.18534,-0.011 -0.0501,1.143 -0.0501,1.143 h 1.30674 1.30674 l 0.30966,-0.28024 z m 4.88167,0.28025 v -3.21734 h 2.37067 2.37066 v 0.41761 0.4176 l -1.82033,0.0481 -1.82033,0.0481 -0.0512,0.889 -0.0512,0.889 h 1.70218 1.70219 v 0.508 0.508 h -1.69334 -1.69333 v 0.93133 0.93133 h 1.94733 1.94734 v 0.42334 0.42333 h -2.45534 -2.45533 z m 9.99066,0.508 v -2.70934 h -1.10066 -1.10067 v -0.508 -0.508 h 2.62467 2.62466 v 0.508 0.508 h -1.016 -1.016 v 2.70934 2.70933 h -0.508 -0.508 z m 5.92667,2.63964 v -0.0697 l 1.28443,-2.93598 1.28443,-2.93597 0.0883,-0.21167 0.0884,-0.21167 h 0.4992 0.4992 l 0.43378,0.97367 0.43378,0.97367 0.98575,2.24366 0.98576,2.24367 h -0.55918 -0.55918 l -0.29101,-0.762 -0.29101,-0.762 h -1.65633 -1.65632 l -0.29101,0.762 -0.29101,0.762 h -0.49399 -0.494 z m 4.40267,-2.44843 v -0.14746 l -0.53321,-1.20721 -0.53322,-1.20721 h -0.12611 -0.12612 l -0.46025,1.143 -0.46025,1.143 -0.0839,0.21167 -0.0839,0.21166 h 1.20345 1.20345 z m 5.41866,-0.69921 v -3.21734 h 1.76698 1.76698 l 0.44084,0.16761 0.44084,0.16761 0.41685,0.44979 0.41685,0.44978 v 0.83497 0.83496 l -0.47223,0.45264 -0.47222,0.45264 -0.2834,0.16934 -0.28339,0.16933 0.84333,1.143 0.84332,1.143 -0.63804,-0.004 -0.63804,-0.004 -0.7474,-1.09664 -0.74739,-1.09663 h -0.81894 -0.81894 v 1.10066 1.10067 h -0.508 -0.508 z m 3.89467,-0.33867 0.33867,-0.33867 v -0.48175 -0.48176 l -0.34482,-0.31205 -0.34481,-0.31205 -1.22152,-0.0105 -1.22152,-0.0105 -0.0501,1.143 -0.0501,1.143 h 1.27774 1.27773 l 0.33867,-0.33867 z m 4.91067,0.33867 v -3.21734 h 0.508 0.508 v 3.21734 3.21733 h -0.508 -0.508 z m 4.42686,3.09373 0.0605,-0.14776 1.34486,-3.08165 1.34486,-3.08166 h 0.52003 0.52003 l 1.33902,3.09034 1.33902,3.09033 0.0657,0.127 0.0658,0.127 h -0.52751 -0.52752 l -0.33707,-0.762 -0.33707,-0.762 h -1.65041 -1.65042 l -0.2613,0.71967 -0.26129,0.71966 -0.55384,0.0544 -0.55383,0.0544 z m 4.31693,-2.63855 -0.0983,-0.39148 -0.42596,-0.96318 -0.42597,-0.96319 -0.12913,0.002 -0.12914,0.002 -0.46567,1.15073 -0.46566,1.15073 v 0.20185 0.20185 h 1.11902 1.11902 l -0.0983,-0.39148 z m 10.22154,-0.47391 v -3.23607 l 1.82033,0.0626 1.82034,0.0626 0.57471,0.33709 0.57471,0.33709 0.52531,0.64993 0.52531,0.64992 6.8e-4,1.13975 6.8e-4,1.13974 -0.4545,0.68749 -0.45449,0.68748 -0.74197,0.35918 -0.74204,0.35918 h -1.72453 -1.72454 z m 4.05859,1.80191 0.51881,-0.49705 0.17316,-0.64307 0.17316,-0.64306 -0.17994,-0.66826 -0.17994,-0.66825 -0.44136,-0.34717 -0.44136,-0.34717 -0.66646,-0.17946 -0.66646,-0.17946 -0.62377,0.0519 -0.62376,0.0519 -0.0472,2.34709 -0.0472,2.34708 1.26679,-0.064 1.26679,-0.064 z m -107.58468,-6.01456 -1.84142,-0.31507 -0.14419,-0.14419 -0.14419,-0.14419 0.4065,-2.36625 0.40651,-2.36626 0.27165,-0.75477 0.27165,-0.75477 0.52247,-0.8142 0.52247,-0.81419 0.76307,-0.67169 0.76307,-0.67168 1.03574,-0.51756 1.03573,-0.51757 0.0545,0.16352 0.0545,0.16352 -0.52111,3.17013 -0.52111,3.17013 0.0455,0.0409 0.0455,0.0409 4.21832,-3.03023 4.21831,-3.03023 0.0612,0.0611 0.0611,0.0612 -0.33481,2.0522 -0.33481,2.05221 -0.19466,0.72293 -0.19467,0.72293 -0.31378,0.61506 -0.31378,0.61507 -0.25836,0.0991 -0.25836,0.0991 0.0904,0.23557 0.0904,0.23558 -0.98225,0.89989 -0.98225,0.89989 -1.10067,0.51154 -1.10066,0.51153 -1.778,0.0419 -1.778,0.0419 z"
         id="path869" />
    </g>
    <path
       style="fill:#ffffff;stroke-width:0.264583"
       id="path265"
       d="m 3.0311031,3.9283875 c 0.00638,-3.44e-4 0.013608,-0.00423 0.019137,-0.00103 0.02932,0.016941 0.080876,0.078824 0.10004,0.097332 0.060724,0.058646 0.1295519,0.1100709 0.1929908,0.1657554 0.1347298,0.091616 0.2605248,0.1938427 0.3845083,0.299235 0.1013582,0.1107093 0.1945238,0.2280369 0.3006606,0.3342698 0.1689312,0.2594988 0.418919,0.4328771 0.6770547,0.5938568 0.1964442,0.1202928 0.3960546,0.2387137 0.5837047,0.372718 0.058275,0.041615 0.1113542,0.090202 0.1696289,0.1318164 0.1173075,0.083771 0.2397334,0.1601941 0.3574076,0.2434492 0.3088103,0.2200447 0.6350685,0.4114372 0.9245756,0.6578328 0.2574404,0.2250014 0.4783987,0.4868928 0.7015067,0.7450259 0.041855,0.044653 0.080729,0.0923 0.1255649,0.133958 0.2922122,0.2714995 0.083987,0.032242 0.3839308,0.3436144 0.1906649,0.1979292 0.3630676,0.4162983 0.532724,0.6320319 0.2572729,0.3790182 0.5357437,0.7424777 0.7992536,1.1167424 0.03636,0.056216 0.069023,0.1150052 0.1090811,0.1686494 0.034024,0.045564 0.2592869,0.3031111 0.2952848,0.3453241 0.1432713,0.168008 0.2758392,0.343358 0.4123438,0.516806 0.18854,0.205601 0.307799,0.458477 0.448991,0.695475 0.01473,0.02473 0.173452,0.267072 0.192464,0.296161 0.113204,0.177236 0.220027,0.364105 0.366929,0.516863 0.07195,0.07482 0.24424,0.218186 0.319999,0.282814 0.200753,0.214747 0.424241,0.408796 0.612651,0.634917 0.01758,0.0211 0.230735,0.296857 0.24892,0.320349 0.215327,0.291097 0.470098,0.551502 0.752393,0.777545 0.04389,0.03874 0.08838,0.07683 0.131683,0.116229 0.01493,0.01359 0.224127,0.2114 0.237761,0.222939 0.162078,0.137167 0.344911,0.247379 0.514401,0.375041 0.233719,0.144918 0.423128,0.341325 0.624325,0.524673 0.09398,0.08564 0.181899,0.149272 0.282647,0.226085 0.159905,0.165148 0.33136,0.317872 0.498423,0.475223 0.07642,0.06167 0.137241,0.135673 0.196615,0.213019 0,0 3.311696,-2.005352 3.311696,-2.005352 v 0 C 18.754178,14.417702 18.685915,14.320489 18.592627,14.247302 18.38998,14.096853 18.152139,14.000394 17.95473,13.840743 17.635087,13.605117 17.299188,13.391114 17.000107,13.128197 16.71291,12.896634 16.462708,12.627181 16.173339,12.398536 15.919066,12.163317 15.653092,11.939824 15.418981,11.683853 15.112277,11.373105 14.827462,11.041777 14.529491,10.722775 14.325296,10.464379 14.143529,10.189139 13.931764,9.9367667 13.688534,9.6170442 13.425684,9.3110925 13.210231,8.9712955 13.072997,8.795586 12.923413,8.6312144 12.785575,8.4561258 12.671613,8.3113667 12.640126,8.2563554 12.531141,8.1117047 12.48897,8.0557332 12.445045,8.0011055 12.401997,7.9458057 12.11294,7.5784704 11.83312,7.2035188 11.509546,6.864791 11.108921,6.3981723 11.553318,6.9210813 11.154786,6.4351661 11.097807,6.3656939 11.033843,6.3018405 10.980525,6.2295206 10.764887,5.9370324 10.905903,6.0808364 10.720809,5.8027731 10.686711,5.7515495 10.644541,5.7061845 10.606408,5.6578901 10.452434,5.485253 10.52769,5.5754238 10.381217,5.3868954 10.221361,5.201181 10.043198,5.0342836 9.8592001,4.8729135 9.5512275,4.6224017 9.2244959,4.3963933 8.8771263,4.203924 8.5055098,3.9745724 8.1321009,3.7471252 7.8009865,3.4597607 7.6124828,3.2841083 7.4438752,3.0978292 7.3261653,2.8665633 7.2414126,2.7132031 7.1218308,2.5886045 7.0105761,2.4536275 6.8867297,2.3374545 6.7428966,2.2474091 6.6165057,2.1335887 6.5166289,2.0649862 6.445224,1.9746602 6.4065398,1.8599171 c 0,0 -3.3754367,2.0684704 -3.3754367,2.0684704 z" />
    <path
       style="fill:#ffffff;stroke-width:0.264583"
       id="path267"
       d="m 5.4631521,16.226944 c 0.1581007,0.166721 0.2767729,0.366403 0.3845287,0.568508 0.078895,0.153967 0.1895861,0.277873 0.3253851,0.382529 0.1184891,0.132281 0.2744407,0.188236 0.4453879,0.213413 0.3445013,0.01254 0.6898315,-0.02386 1.0334723,-0.04709 0.3902065,-0.02529 0.7789529,0.02268 1.1684011,0.02912 0.3159386,-0.01152 0.6281491,-0.06594 0.943765,-0.08571 0.052172,-0.0082 0.1049986,-0.01291 0.1565151,-0.02452 0.1863157,-0.04198 0.3631257,-0.11838 0.5500767,-0.159943 0.136912,-0.03044 0.344405,-0.05733 0.480195,-0.07685 0.352943,-0.03251 0.708307,-0.01457 1.061318,0.0082 0.200458,0.016 0.401597,0.01824 0.602532,0.02215 0.143906,-0.0024 0.0681,3.44e-4 0.22737,-0.0092 0,0 3.07569,-2.234017 3.07569,-2.234017 v 0 c -0.135839,-0.01023 -0.06908,-0.0071 -0.20025,-0.0099 -0.222287,0.003 -0.444794,0.0042 -0.666655,0.02037 -0.407429,0.02601 -0.814501,0.05851 -1.222323,0.07715 -0.345949,0.002 -0.11303,-0.0029 -0.443182,0.01231 -0.212354,0.0098 -0.424032,0.01769 -0.616971,0.119102 -0.311647,0.07681 -0.635861,0.09533 -0.953209,0.141068 -0.411811,0.04997 -0.828169,0.05666 -1.242562,0.04848 -0.269946,-0.02222 -0.539616,-0.04837 -0.8096984,-0.0681 -0.096085,-0.0028 -0.2029878,0.0236 -0.2827157,-0.03661 -0.045789,-0.04129 -0.066556,-0.06798 -0.1232789,-0.09128 -0.015364,-0.0063 -0.033195,-0.0044 -0.048797,-0.01011 -0.073089,-0.0267 -0.12044,-0.08908 -0.1643621,-0.149645 -0.129164,-0.162254 -0.2632051,-0.33211 -0.2567234,-0.551387 0,0 -3.4239093,1.912002 -3.4239093,1.912002 z" />
    <path
       style="fill:#ffffff;stroke-width:0.264583"
       id="path273"
       d="m 35.722983,15.283145 c -0.06603,-0.183548 -0.06987,-0.379631 -0.0646,-0.572197 0.02132,-0.15369 7.93e-4,-0.314897 0.02676,-0.467909 0.02148,-0.127116 0.08176,-0.254259 0.113472,-0.379869 0.05479,-0.212127 0.11802,-0.421128 0.153207,-0.637712 0.0011,-0.03214 -0.0027,-0.06481 0.0031,-0.09643 0.0092,-0.0495 0.03703,-0.09389 0.0498,-0.142584 0.02119,-0.08078 0.01974,-0.160865 0.02418,-0.24375 0.0136,-0.167627 0.0149,-0.334115 6e-6,-0.501456 -0.01646,-0.21367 -0.01752,-0.427689 -0.01167,-0.64212 0.01955,-0.172113 -0.0016,-0.351206 0.03731,-0.520413 0.955857,-0.973378 0.08208,-0.07739 -3.420542,1.896401 -0.0072,0.0041 0.019,-0.0035 0.02469,0.0025 0.01413,0.01492 0.02148,0.03528 0.02916,0.05436 0.02096,0.05212 0.02551,0.09425 0.03541,0.149295 0.01175,0.170064 0.03057,0.339021 0.02962,0.50964 0.01127,0.17114 -0.0388,0.343779 -0.01847,0.511723 7.134492,-3.209294 3.837787,-0.407109 3.495712,-1.940781 -0.02722,-0.122044 -0.0313,-0.251795 -0.03742,-0.375987 -0.0024,-0.267756 0.0158,-0.535888 0.0351,-0.803 0.01058,-0.171941 0.03025,-0.344236 0.01984,-0.516526 -0.01865,-0.176858 -0.0062,-0.355213 -5e-5,-0.532484 0.0054,-0.1484022 0.0071,-0.2968941 0.0081,-0.4453796 5.29e-4,-0.1402902 5.29e-4,-0.2805826 5.29e-4,-0.420874 0.0037,-0.1477825 -1.45e-4,-0.294259 -0.01553,-0.441198 -0.03204,-0.1297895 -0.03489,-0.2651006 -0.05744,-0.3960698 -0.01228,-0.071348 -0.03222,-0.1412209 -0.04503,-0.2124763 -0.02792,-0.1140619 -0.01222,-0.2335671 -0.02641,-0.3485764 -0.0072,-0.058292 -0.0236,-0.1150776 -0.03486,-0.1727197 -0.02953,-0.1394429 -0.02,-0.2823689 -0.04707,-0.4216292 -0.02734,-0.1026131 -0.0347,-0.207147 -0.06804,-0.3077485 0,0 -3.421104,1.844975 -3.421104,1.844975 v 0 c 0.009,0.099736 0.03123,0.1971546 0.05581,0.2941143 0.02484,0.1379395 0.0306,0.2796767 0.07096,0.4150111 0.0351,0.163562 0.05266,0.3308623 0.09603,0.4929307 0.03336,0.1828614 0.04997,0.3716804 0.05241,0.5571844 -0.01439,0.152255 -0.01963,0.304026 -0.01553,0.457022 -3.5e-5,0.140117 -1.43e-4,0.280235 5.29e-4,0.42035 0.0011,0.145745 0.0026,0.291499 0.0081,0.437157 0.0065,0.177373 0.01842,0.355651 2.46e-4,0.532689 -0.0092,0.165248 0.0083,0.330182 0.02045,0.494968 0.01902,0.25334 0.03465,0.508875 0.01847,0.762571 -0.01437,0.127892 -0.02328,0.273628 -0.07712,0.393253 -0.01201,0.02669 -0.02072,0.06682 -0.0494,0.07259 -0.03049,0.0061 -0.108783,-0.03247 -0.08096,-0.04638 1.175002,-0.587737 2.372723,-1.128917 3.559083,-1.693376 -0.0019,0.01337 0.0063,0.0471 -0.0052,0.04012 -0.03088,-0.0187 -0.02223,-0.344407 -0.0317,-0.396002 -0.0074,-0.194141 0.0065,-0.388203 -0.04717,-0.577792 -0.02048,-0.09669 -0.0405,-0.193244 -0.05893,-0.290342 -0.0071,-0.03737 0.0123,-0.129181 -0.02167,-0.112041 -3.743172,1.889275 -4.805336,1.890157 -3.454088,1.882558 0.04627,0.153323 0.01339,0.324771 0.0379,0.482381 0.0066,0.21724 0.0056,0.434071 -0.01167,0.650615 -0.01537,0.157922 -0.01921,0.31621 -0.03747,0.473791 -0.01352,0.07251 -0.03588,0.14214 -0.04666,0.2151 -0.0314,0.212358 0.01286,-0.07159 -0.01109,0.167878 -0.0028,0.02787 -0.01035,0.05506 -0.01553,0.08259 -0.02718,0.196645 -0.07174,0.389884 -0.102899,0.58582 -0.053,0.289243 -0.04217,0.583781 -0.0782,0.875279 -0.02805,0.230777 -0.05087,0.464136 -0.104569,0.690521 0,0 3.512129,-1.789518 3.512129,-1.789518 z" />
    <path
       style="fill:#ffffff;stroke-width:0.264583"
       id="path1431"
       d="m 39.027906,11.35818 c -0.114461,-0.200414 -0.10492,-0.491869 -0.107905,-0.717163 0.0084,-0.249012 0.0398,-0.496362 0.05904,-0.7446144 0.0081,-0.1884584 -0.01468,-0.3753707 -0.0095,-0.5642742 0.0013,-0.032471 -0.0019,-0.065502 0.0042,-0.097412 0.0021,-0.010364 0.062,-0.1937184 0.06667,-0.2026603 0.008,-0.015317 0.02183,-0.028635 0.0376,-0.035686 0.0164,-0.00733 0.03579,-0.00341 0.05368,-0.00511 1.292432,0.336667 0.111742,0.013449 -3.225958,1.9523179 -0.0167,0.0097 0.02066,-0.03313 0.03478,-0.04631 0.0458,-0.04274 0.109805,-0.05201 0.16823,-0.06335 0,0 3.130598,-2.2999038 3.130598,-2.2999038 v 0 c -0.07082,-0.00521 -0.141198,-0.011036 -0.211371,-0.022339 -0.02463,-0.00397 -0.05198,-0.025675 -0.07365,-0.013314 -3.396211,1.9374358 -3.159221,0.6981595 -3.396917,2.0693628 -0.0067,0.167743 -0.01699,0.333851 0.0037,0.501071 0.0054,0.192052 -0.01778,0.382345 -0.0095,0.573941 0.01921,0.228208 0.05165,0.455343 0.05904,0.684449 -0.0036,0.276662 -0.0084,0.565682 -0.107905,0.827123 0,0 3.525097,-1.796126 3.525097,-1.796126 z" />
    <path
       style="fill:#ffffff;stroke-width:0.264583"
       id="path1433"
       d="m 40.795188,9.7526633 c -0.04371,-0.1679324 0.0122,-0.3280045 0.04697,-0.4915242 0.03381,-0.166202 0.04174,-0.3357292 0.04563,-0.5047903 0.02225,-0.1260009 -0.04254,-0.2919256 0.02703,-0.4027567 0.04827,-0.1183828 0.04385,-0.2500767 0.04555,-0.3758493 0.01143,-0.1162244 -0.01019,-0.2180929 -0.05147,-0.3259619 0,0 -3.414045,1.902021 -3.414045,1.902021 v 0 c 0.0013,0.053551 -0.0036,0.1091396 -0.01011,0.1630421 -0.01699,0.1201039 -0.0546,0.2363266 -0.06085,0.357608 0.01667,0.14217 0.0088,0.285513 0.006,0.428432 -0.007,0.141508 -0.01961,0.283201 -0.05998,0.419748 -0.02716,0.08931 -0.07221,0.307816 -0.170886,0.344387 -0.01916,0.0071 -0.04084,3.97e-4 -0.06126,6.09e-4 0,0 3.65746,-1.5149698 3.65746,-1.5149698 z" />
    <path
       style="fill:#ffffff;stroke-width:0.264583"
       id="path1439"
       d="M 41.624551,8.5509964 C 41.590293,8.3849598 41.526991,8.2521278 41.408683,8.128682 41.258452,8.0187767 41.075975,8.0012526 40.896182,7.9884796 c -0.08945,-0.01774 -0.179424,0.027236 -0.26821,0.00156 -0.0021,-5.821e-4 -0.124296,-0.053304 -0.127934,-0.05487 -0.135941,-0.098227 -0.295201,-0.1468228 -0.445405,-0.2153957 -0.171464,-0.024865 -0.335831,0.044217 -0.50427,0.06275 -1.217292,0.5988296 -0.38378,0.1871758 -3.424983,2.004672 -0.202626,0.1210942 0.120798,0.00502 -0.08495,0.08795 -0.01873,0.00755 -0.07652,0.023659 -0.05908,0.013465 1.090231,-0.6373241 2.186553,-1.2641638 3.27983,-1.896246 -0.06164,0.084905 -0.133945,0.056322 -0.214736,0.090459 -0.02132,0.00901 -0.04105,0.02141 -0.06157,0.032114 -0.0303,0.012708 -0.06059,0.025416 -0.09088,0.038126 -0.137213,0.021923 -0.273151,0.050371 -0.410832,0.068723 0,0 -3.021005,2.3829211 -3.021005,2.3829211 v 0 c 0.102312,-0.07549 0.225126,-0.130303 0.352214,-0.145357 0.0712,0.01092 0.139364,0.02834 0.207319,-0.0056 0.01794,-0.009 0.03036,-0.02875 0.04977,-0.03376 0.04731,-0.01223 0.09925,0.01699 0.146592,0.0011 1.130091,-0.6499873 2.264354,-1.2927788 3.390276,-1.9499609 0.03852,-0.022484 0.05091,-0.075355 0.0868,-0.1018442 0.0159,-0.011745 0.07114,-0.034389 0.05407,-0.024413 -3.472236,2.0287711 -4.349219,2.5785011 -3.224454,1.8745091 0.0808,-0.0945 0.0081,-0.02516 0.117269,-0.08796 0.02334,-0.01343 0.04178,-0.03515 0.06642,-0.04603 0.0656,-0.02897 0.145437,-0.0146 0.192617,-0.08069 0.01577,-0.010813 0.02893,-0.027141 0.0473,-0.032438 0.08327,-0.024008 0.243443,0.0324 0.31604,0.07067 0.149952,0.09939 0.0031,0.0065 0.154699,0.08994 0.108519,0.05973 0.210944,0.139428 0.342239,0.122183 0.08091,-0.0022 0.255087,0.0098 0.326334,-0.0095 0.009,-0.0024 0.01519,-0.01074 0.02278,-0.01611 0.0044,-0.0051 0.0087,-0.01017 0.01307,-0.01526 0.0016,-0.0037 0.0021,-0.0079 0.0046,-0.01114 0.04322,-0.05747 -0.06335,0.207302 -0.02869,0.14406 0,0 3.525096,-1.796126 3.525096,-1.796126 z" />
    <path
       style="fill:#ffffff;stroke-width:0.264583"
       id="path1441"
       d="M 39.016492,7.303173 C 38.793221,7.277927 38.568733,7.26572 38.344985,7.243154 38.184986,7.225662 38.024289,7.217325 37.863459,7.213231 c -0.02373,-3.704e-4 -0.04765,0.00188 -0.07119,-0.00114 -0.02445,-0.00311 -0.04749,-0.014084 -0.07196,-0.017095 -0.07995,-0.00985 -0.161703,0.021479 -0.237763,0.041108 -0.127976,0.0319 -0.259972,0.038495 -0.391189,0.043225 -0.132252,0.00204 -0.258694,0.024823 -0.388244,-0.00938 -0.13534,-0.041071 -0.272214,-0.1035319 -0.416015,-0.1017756 -0.149077,-0.027062 -0.296474,-0.060061 -0.447054,-0.078548 -0.143428,-0.015454 -0.287792,-0.017354 -0.431895,-0.01869 -0.114141,-0.00728 -0.224708,0.023947 -0.33501,-0.00918 -0.01857,-0.0044 -0.03717,-0.00881 -0.05575,-0.013208 0,0 -3.237307,2.1426678 -3.237307,2.1426678 v 0 c 0.02246,0.014748 0.04494,0.029494 0.06741,0.044242 0.08641,0.037595 0.04177,0.01506 0.132853,0.069675 0.09198,0.041598 0.190778,0.051174 0.290221,0.044735 0.139854,-9.261e-4 0.279699,-0.00273 0.419553,-0.00344 0.134892,7.408e-4 0.27265,-4.233e-4 0.402293,0.041968 0.02643,0.00895 0.05184,0.021706 0.07925,0.026855 0.107188,0.020127 0.226293,-0.013655 0.330666,0.033976 0.148936,0.054152 0.288427,0.1327515 0.452866,0.1142815 0.13684,0.00167 0.273672,0.00506 0.410522,0.00453 0.08203,-0.0029 0.163772,-0.00495 0.23812,-0.044419 0.01863,-0.00989 0.03305,-0.028335 0.05336,-0.033973 0.02344,-0.0065 0.04863,-7.144e-4 0.07295,-0.00106 0.170622,-0.00341 0.341153,-0.00993 0.511778,-0.0132 0.167354,-6.085e-4 0.34199,-0.00626 0.502637,0.04776 0,0 3.271919,-2.2199645 3.271919,-2.2199645 z" />
    <path
       style="fill:#ffffff;stroke-width:0.264583"
       id="path1443"
       d="M 9.1901702,14.321131 C 9.0564,14.30669 9.0409873,14.323751 8.9335884,14.228661 8.8375608,14.151863 8.7925295,14.041402 8.7390122,13.935339 8.6725269,13.833308 8.625107,13.731889 8.6110658,13.611224 8.6008794,13.470996 8.5392492,13.340815 8.4965505,13.208233 8.4193792,13.051522 8.2987244,12.90957 8.1505019,12.816307 8.0329872,12.752149 7.9387913,12.660597 7.8520366,12.560465 7.7529147,12.438754 7.7038006,12.289161 7.6285078,12.153468 7.5727332,12.037734 7.5341921,11.914065 7.4759168,11.799643 7.4209838,11.672388 7.3720073,11.547598 7.3506366,11.409775 7.32743,11.255324 7.3291498,11.09983 7.3327534,10.944171 7.3348436,10.795 7.3461308,10.645649 7.3347378,10.496739 7.2964412,10.324813 7.2346655,10.161326 7.211139,9.9858995 7.1951714,9.8449695 7.210848,9.7041191 7.1805161,9.565478 7.1414025,9.3970024 7.0718975,9.237492 7.0251462,9.0708672 6.973326,8.9020024 6.8987664,8.7413371 6.8646629,8.5674675 6.8517777,8.4304882 6.8481159,8.2968316 6.8183201,8.1620772 6.8010772,8.0359574 6.7783154,7.9149428 6.746464,7.7918301 6.7164746,7.6653455 6.7129749,7.5350819 6.7103098,7.4057607 6.7087223,7.2680337 6.7095689,7.1302924 6.7099393,6.9925604 c 3.969e-4,-0.1403718 5.028e-4,-0.2807438 5.821e-4,-0.4211159 0.010718,-0.091961 -0.014004,-0.1893808 4.34e-5,-0.2808266 0.0059,-0.038389 0.024289,-0.073873 0.033416,-0.1116243 0.028722,-0.1453631 0.033124,-0.2938624 0.036342,-0.4415403 -2.646e-4,-0.1448187 0.00713,-0.290009 -0.00554,-0.4343959 0.00298,-0.1138023 -0.00893,-0.2249408 -0.027674,-0.3369574 0,0 -3.427868,1.8214848 -3.427868,1.8214848 v 0 c 0.016325,0.089465 0.020717,0.1784167 0.012851,0.2694397 -0.011607,0.141251 -0.00541,0.2831177 -0.015608,0.4245483 -0.010329,0.1346872 -0.030116,0.267843 -0.05497,0.4006115 -0.015531,0.1492165 -0.0023,0.2998139 -0.00671,0.4497048 -1.442e-4,0.1404173 -4.233e-4,0.2808343 -3.969e-4,0.4212516 3.175e-4,0.1432769 4.498e-4,0.2866639 0.00883,0.4297487 0.01079,0.1499915 0.029524,0.2990927 0.063878,0.4457213 0.022503,0.1257652 0.02227,0.2556859 0.060263,0.3791303 0.031816,0.135808 0.034881,0.277371 0.08381,0.409481 0.05816,0.162633 0.1378699,0.316911 0.1844551,0.483727 0.040098,0.154962 0.071175,0.31301 0.094789,0.471385 -1.614e-4,0.147215 0.017158,0.29442 0.050501,0.43782 0.037566,0.144526 0.1047427,0.287656 0.091986,0.439341 -0.011343,0.150869 -0.00301,0.302238 0.00282,0.45328 0.00991,0.17691 0.017314,0.356158 0.052902,0.52982 0.04094,0.16115 0.078112,0.324516 0.1407213,0.478565 0.050722,0.130565 0.1258295,0.247624 0.1889241,0.372261 0.088054,0.152854 0.1727806,0.307033 0.2633493,0.457651 0.1036207,0.136561 0.2141924,0.270894 0.3477887,0.379304 0.079099,0.04769 0.1778059,0.07019 0.2009601,0.173175 0.04453,0.115515 0.086406,0.225569 0.093187,0.351263 0.03684,0.143706 0.091398,0.280362 0.1853872,0.397177 0.063449,0.148534 0.1403372,0.291751 0.2431389,0.417184 0.091944,0.101205 0.1911186,0.20836 0.3061872,0.281921 0,0 3.2719187,-2.219965 3.2719187,-2.219965 z" />
    <path
       style="fill:#ffffff;stroke-width:0.264583"
       id="path1445"
       d="M 6.9177264,5.696401 C 6.8139666,5.5414118 6.8200968,5.3342256 6.82104,5.1546841 6.8269508,4.9737031 6.8391825,4.7930326 6.8457415,4.612074 6.8504299,4.4563797 6.8407197,4.3013571 6.8429634,4.1454913 6.8678263,3.9381247 6.8059058,3.8163881 6.7103473,3.6388775 6.6393112,3.5145638 6.5524673,3.4048289 6.4354082,3.3219212 6.3151826,3.2278846 6.1843419,3.1500164 6.0647129,3.054392 6.0014175,3.0008766 5.9427461,2.9423817 5.8839935,2.8840395 c 0,0 -3.2792787,2.0555326 -3.2792787,2.0555326 v 0 c 0.067712,0.043196 0.1249943,0.097013 0.1918252,0.1415523 0.1043485,0.1045655 0.2053468,0.2179458 0.3289532,0.2997703 0.023667,0.024511 0.061434,0.067335 0.092105,0.08487 0.00864,0.00494 0.020338,0.00119 0.029359,0.00538 0.045555,0.021214 0.060992,0.072958 0.100833,0.1010774 0.016039,0.02797 0.039406,0.053434 0.046286,0.084934 0.016917,0.077454 -0.00148,0.1626973 0.00887,0.2407634 0.00204,0.1573488 -0.00831,0.3138951 -0.0034,0.4710724 0.00733,0.1757992 0.022019,0.3510434 0.041426,0.5259276 0.020159,0.2246466 0.026514,0.4503836 0.011091,0.6756419 0,0 3.465664,-1.874161 3.465664,-1.874161 z" />
    <path
       style="fill:#ffffff;stroke-width:0.264583"
       id="path1449"
       d="M 7.2852956,7.6512438 C 7.1040836,7.582509 6.9820453,7.4086219 6.8793862,7.2520232 6.7689523,7.0840599 6.7165881,6.8963063 6.7030663,6.6980455 6.662807,6.5479217 6.6007199,6.4078733 6.5789846,6.2528211 6.5478998,6.0872205 6.5475053,5.9176173 6.5481038,5.7496291 6.5532182,5.5812052 6.5618277,5.4129312 6.566368,5.2444848 6.5697414,5.1016278 6.5700563,4.9587245 6.570297,4.8158354 6.5472148,4.6880644 6.5193031,4.5622466 6.5083872,4.4326696 6.4871755,4.2990082 6.4248183,4.1795991 6.3875125,4.0511655 6.3398063,3.9143641 6.265497,3.7901975 6.1993729,3.6623516 6.152567,3.5577182 6.1508068,3.4425064 6.1477434,3.3299738 c -0.00177,-0.1357402 -3.175e-4,-0.2714985 3.44e-4,-0.4072424 -0.014875,-0.1583203 -0.0074,-0.3177465 -0.00415,-0.4764647 0.018351,-0.094347 -0.017976,-0.201572 0.0041,-0.2947574 0.00791,-0.033399 0.033282,-0.060283 0.04563,-0.092308 0.018822,-0.066891 5.292e-4,-0.1025076 0.052348,-0.1527887 0,0 -3.5309111,1.6636826 -3.5309111,1.6636826 v 0 c -0.00159,0.066043 -0.010057,0.1259195 -0.026188,0.190069 -0.00868,0.1461154 0.0175,0.2941394 0.00946,0.4412001 0.00298,0.1603259 0.00937,0.3212963 -0.00618,0.4811779 1.41e-5,0.1446186 -6.085e-4,0.2895044 0.011676,0.4337256 0.017764,0.1621346 0.049621,0.3221641 0.124636,0.4687684 0.054407,0.1081455 0.1113752,0.2148348 0.1493273,0.3297253 0.032029,0.1054159 0.062456,0.2112256 0.083642,0.3194294 0.013787,0.1149022 0.039164,0.227716 0.052957,0.3423264 1.336e-4,0.1414261 2.479e-4,0.2828633 0.00297,0.4242688 0.00375,0.1640851 0.011046,0.3280209 0.017907,0.4919991 0.00455,0.1976041 0.00315,0.3962395 0.028929,0.5925524 0.040234,0.1466987 0.1031271,0.2848644 0.140802,0.4321667 0.071099,0.2245378 0.1883275,0.4250663 0.3136775,0.6236049 0.1043255,0.1887252 0.2183453,0.3760565 0.2911266,0.5786051 0,0 3.3754367,-2.0684701 3.3754367,-2.0684701 z" />
    <path
       style="fill:#ffffff;stroke-width:0.264583"
       id="path1453"
       d="m 9.794591,15.999597 c -0.011292,-4.5e-4 -0.024813,0.0054 -0.033878,-0.0014 C 9.6470903,15.913623 9.5141289,15.64149 9.4509618,15.513803 9.3899565,15.323413 9.2934887,15.148084 9.2501002,14.95226 9.1870471,14.818621 9.1853738,14.670588 9.1508333,14.530143 9.1223011,14.353812 9.0230181,14.215228 8.9127668,14.079586 6.3266102,15.444207 5.1055947,14.790347 5.5239141,16.38748 c 0,0 3.4541809,-1.824746 3.4541809,-1.824746 v 0 c 0.00193,-0.03016 0.029387,-0.117023 0.08001,-0.09676 0.023574,0.0094 0.081253,0.03552 0.059143,0.04801 -1.1309037,0.63874 -2.2846752,1.236117 -3.4270129,1.854176 -0.056965,-0.212057 0.022955,-0.110083 0.043603,0.01926 0.046351,0.142709 0.073652,0.292074 0.1419818,0.427634 0.086517,0.194606 0.2030852,0.373517 0.2913891,0.56747 0.1106093,0.221534 0.2139566,0.430629 0.2694945,0.674776 0,0 3.3578871,-2.057716 3.3578871,-2.057716 z" />
    <path
       style="fill:#ffffff;stroke-width:0.264583"
       id="path1455"
       d="M 9.405889,15.749874 C 9.38215,15.735994 9.356049,15.725534 9.334675,15.708234 9.2384815,15.630376 9.1017041,15.40405 9.0352932,15.294142 8.9789205,15.172311 8.8731356,15.07304 8.830661,14.945065 8.7783373,14.844664 8.7092635,14.763518 8.6872275,14.650444 8.6743211,14.516696 8.606756,14.397276 8.5658528,14.27111 8.5063556,14.146591 8.4535903,14.018748 8.3908634,13.895845 8.3440113,13.790108 8.3009212,13.682961 8.2561765,13.575708 8.2063618,13.453641 8.1900203,13.323571 8.1525392,13.197637 8.0797923,13.087584 8.0694376,12.957526 8.0281424,12.836621 c -0.028493,-0.08229 -0.039697,-0.168213 -0.04812,-0.254367 0,0 -3.4290764,1.810489 -3.4290764,1.810489 v 0 c 0.018603,0.100203 0.04119,0.199365 0.068738,0.297532 0.02491,0.133006 0.069549,0.258984 0.1190062,0.38457 0.046259,0.129268 0.075856,0.263894 0.1340799,0.388979 0.046272,0.126772 0.057266,0.266945 0.1387541,0.380229 0.065191,0.09359 0.1130406,0.203078 0.1509239,0.310097 0.043956,0.115888 0.08616,0.229739 0.107105,0.352645 0.039508,0.126519 0.09292,0.246444 0.1698572,0.35507 0.074542,0.143983 0.1853363,0.249807 0.2977517,0.364787 0.1132023,0.156093 0.2446351,0.320606 0.2628781,0.518946 0,0 3.4058487,-1.995724 3.4058489,-1.995724 z" />
  </g>
</svg>
