<?xml version="1.0" encoding="UTF-8" standalone="no"?>
<!-- Created with Inkscape (http://www.inkscape.org/) -->

<svg
   version="1.1"
   id="svg2"
   xml:space="preserve"
   width="2863.7068"
   height="1241.6947"
   viewBox="0 0 2863.7068 1241.6947"
   sodipodi:docname="desenvolvimento-social.svg"
   inkscape:version="1.1.1 (3bf5ae0d25, 2021-09-20)"
   xmlns:inkscape="http://www.inkscape.org/namespaces/inkscape"
   xmlns:sodipodi="http://sodipodi.sourceforge.net/DTD/sodipodi-0.dtd"
   xmlns="http://www.w3.org/2000/svg"
   xmlns:svg="http://www.w3.org/2000/svg"><defs
     id="defs6"><linearGradient
       x1="0"
       y1="0"
       x2="1"
       y2="0"
       gradientUnits="userSpaceOnUse"
       gradientTransform="matrix(-1381.9891,-1381.9891,1381.9891,-1381.9891,1691.3381,675.71826)"
       spreadMethod="pad"
       id="linearGradient34"><stop
         style="stop-opacity:1;stop-color:#ed1c24"
         offset="0"
         id="stop22" /><stop
         style="stop-opacity:1;stop-color:#df9177"
         offset="0.18724"
         id="stop24" /><stop
         style="stop-opacity:1;stop-color:#d3d5d6"
         offset="0.479527"
         id="stop26" /><stop
         style="stop-opacity:1;stop-color:#bb9871"
         offset="0.803606"
         id="stop28" /><stop
         style="stop-opacity:1;stop-color:#aa6d2b"
         offset="0.926062"
         id="stop30" /><stop
         style="stop-opacity:1;stop-color:#aa6d2b"
         offset="1"
         id="stop32" /></linearGradient><linearGradient
       x1="0"
       y1="0"
       x2="1"
       y2="0"
       gradientUnits="userSpaceOnUse"
       gradientTransform="matrix(0,-723.90356,723.90356,0,1073.8895,731.27441)"
       spreadMethod="pad"
       id="linearGradient56"><stop
         style="stop-opacity:1;stop-color:#ffffff"
         offset="0"
         id="stop50" /><stop
         style="stop-opacity:1;stop-color:#e0e1e2"
         offset="0.986178"
         id="stop52" /><stop
         style="stop-opacity:1;stop-color:#e0e1e2"
         offset="1"
         id="stop54" /></linearGradient><clipPath
       clipPathUnits="userSpaceOnUse"
       id="clipPath66"><path
         d="M 403.289,188.12 V 56.749 c 26.671,-11.839 54.1,-22.606 83.163,-31.088 v 0 C 530.012,12.947 571.241,7.369 610.624,7.369 v 0 c 3.061,0 6.105,0.034 9.145,0.1 v 0 128.474 C 581.578,155.59 538.91,175.007 494.63,188.12 v 0 z"
         id="path64" /></clipPath><clipPath
       clipPathUnits="userSpaceOnUse"
       id="clipPath80"><path
         d="M 618.329,116.12 V 7.44 c 37.82,0.697 73.97,6.497 108.96,15.986 v 0 54.123 c -19.162,9.78 -43.075,23.613 -70.338,38.571 v 0 z"
         id="path78" /></clipPath><clipPath
       clipPathUnits="userSpaceOnUse"
       id="clipPath94"><path
         d="m 725.849,23.038 c 25.019,6.706 49.44,15.304 73.44,25.278 v 0 5.035 c -19.135,3.415 -38.605,9.153 -58.476,17.639 v 0 c -4.61,2.088 -9.606,4.54 -14.964,7.297 v 0 z"
         id="path92" /></clipPath><clipPath
       clipPathUnits="userSpaceOnUse"
       id="clipPath108"><path
         d="m 377.424,204.015 c -15.875,-0.87 -31.193,-2.893 -46.135,-5.781 v 0 -107.211 c 24.273,-11.931 48.515,-23.896 73.44,-34.912 v 0 148.022 c -4.198,0.185 -8.402,0.28 -12.592,0.28 v 0 c -4.917,0 -9.815,-0.129 -14.713,-0.398"
         id="path106" /></clipPath><clipPath
       clipPathUnits="userSpaceOnUse"
       id="clipPath122"><path
         d="m 797.849,47.719 c 3.363,1.389 6.713,2.803 10.06,4.245 v 0 c -3.343,0.479 -6.696,1.027 -10.06,1.648 v 0 z"
         id="path120" /></clipPath><clipPath
       clipPathUnits="userSpaceOnUse"
       id="clipPath136"><path
         d="m 259.769,178.263 v -53.455 c 24.793,-10.838 48.88,-22.655 72.96,-34.493 v 0 108.195 c -25.084,-4.746 -49.104,-11.946 -72.96,-20.247"
         id="path134" /></clipPath><clipPath
       clipPathUnits="userSpaceOnUse"
       id="clipPath150"><path
         d="m 1843.096,204.015 c -1.706,-0.781 -3.403,-1.566 -5.087,-2.352 v 0 -83.525 c 15.478,-4.068 31.018,-6 46.625,-6 v 0 c 20.656,0 41.427,3.382 62.335,9.675 v 0 101.095 c -4.504,0.259 -9.029,0.394 -13.581,0.394 v 0 c -28.886,0 -58.764,-5.437 -90.292,-19.287"
         id="path148" /></clipPath><clipPath
       clipPathUnits="userSpaceOnUse"
       id="clipPath164"><path
         d="m 188.62,151.726 c 13.995,-4.442 27.76,-9.288 41.262,-14.543 v 0 c 10.593,-4.121 21.021,-8.481 31.327,-13.006 v 0 54.586 C 237.128,170.432 213.24,160.956 188.62,151.726"
         id="path162" /></clipPath><clipPath
       clipPathUnits="userSpaceOnUse"
       id="clipPath178"><path
         d="m 618.329,114.68 h 41.243 c -13.014,7.161 -26.81,14.602 -41.243,22.002 v 0 z"
         id="path176" /></clipPath><clipPath
       clipPathUnits="userSpaceOnUse"
       id="clipPath192"><path
         d="m 1810.439,188.12 c -15.522,-7.997 -30.205,-16.167 -44.43,-24.373 v 0 -11.294 c 5.837,-3.55 11.669,-7.113 17.495,-10.68 v 0 c 18.561,-11.361 37.207,-19.244 55.945,-24.007 v 0 70.354 z"
         id="path190" /></clipPath><clipPath
       clipPathUnits="userSpaceOnUse"
       id="clipPath206"><path
         d="m 1945.529,121.384 c 15.967,4.705 32.015,11.115 48.149,19.02 v 0 c 8.45,4.141 16.87,8.3 25.291,12.428 v 0 56.751 c -24.072,6.985 -48.404,12.116 -73.44,13.404 v 0 z"
         id="path204" /></clipPath><clipPath
       clipPathUnits="userSpaceOnUse"
       id="clipPath220"><path
         d="m 1756.499,158.22 c 3.651,-2.208 7.302,-4.423 10.95,-6.643 v 0 13 c -3.679,-2.117 -7.328,-4.237 -10.95,-6.357"
         id="path218" /></clipPath><clipPath
       clipPathUnits="userSpaceOnUse"
       id="clipPath234"><path
         d="m 2017.529,152.126 c 23.81,11.682 47.627,23.147 72.231,33.307 v 0 c -24.09,8.756 -48.019,17.617 -72.231,24.565 v 0 z"
         id="path232" /></clipPath><clipPath
       clipPathUnits="userSpaceOnUse"
       id="clipPath248"><path
         d="m 403.289,186.68 h 96.116 c -31.521,9.679 -63.912,16.253 -96.116,17.513 v 0 z"
         id="path246" /></clipPath><clipPath
       clipPathUnits="userSpaceOnUse"
       id="clipPath262"><path
         d="m 1807.657,186.68 h 31.792 v 15.654 c -11.029,-5.12 -21.589,-10.351 -31.792,-15.654"
         id="path260" /></clipPath><clipPath
       clipPathUnits="userSpaceOnUse"
       id="clipPath276"><path
         d="M 0,931.271 H 2147.778 V 0 H 0 Z"
         id="path274" /></clipPath></defs><sodipodi:namedview
     id="namedview4"
     pagecolor="#ffffff"
     bordercolor="#666666"
     borderopacity="1.0"
     inkscape:pageshadow="2"
     inkscape:pageopacity="0.0"
     inkscape:pagecheckerboard="0"
     showgrid="false"
     inkscape:zoom="0.21755021"
     inkscape:cx="1808.7779"
     inkscape:cy="783.72714"
     inkscape:window-width="1366"
     inkscape:window-height="715"
     inkscape:window-x="1592"
     inkscape:window-y="-8"
     inkscape:window-maximized="1"
     inkscape:current-layer="g8"
     inkscape:snap-global="false" /><g
     id="g8"
     inkscape:groupmode="layer"
     inkscape:label="PMAC-Secretarias"
     transform="matrix(1.3333333,0,0,-1.3333333,0,1241.6947)"><g
       id="g6694"
       transform="matrix(2.7972367,0,0,2.7972367,-494.43118,-647.10864)"><g
         id="g278"
         transform="translate(273.43229,412.4435)"><path
           d="m 0,0 c -5.201,-2.228 -10.115,-4.331 -16.482,-4.331 -6.368,0 -11.281,2.103 -16.483,4.331 -5.223,2.236 -10.626,4.55 -17.548,4.55 -6.923,0 -12.324,-2.314 -17.548,-4.55 -1.059,-0.453 -2.107,-0.896 -3.157,-1.323 v -2.913 c 1.436,0.559 2.837,1.154 4.223,1.748 5.201,2.227 10.115,4.331 16.482,4.331 6.367,0 11.281,-2.104 16.483,-4.331 5.223,-2.237 10.626,-4.55 17.548,-4.55 6.922,0 12.324,2.313 17.547,4.55 3.112,1.332 6.154,2.559 9.431,3.38 V 3.66 C 6.717,2.789 3.299,1.413 0,0"
           style="fill:#6d6e71;fill-opacity:1;fill-rule:nonzero;stroke:none"
           id="path280" /></g><g
         id="g282"
         transform="translate(273.43229,428.0362)"><path
           d="m 0,0 c -5.201,-2.227 -10.115,-4.331 -16.482,-4.331 -6.368,0 -11.281,2.104 -16.483,4.331 -5.223,2.237 -10.626,4.55 -17.548,4.55 -6.923,0 -12.324,-2.313 -17.548,-4.55 -1.059,-0.453 -2.107,-0.896 -3.157,-1.322 v -2.914 c 1.436,0.559 2.837,1.155 4.223,1.748 5.201,2.226 10.115,4.331 16.482,4.331 6.367,0 11.281,-2.105 16.483,-4.331 5.223,-2.237 10.626,-4.55 17.548,-4.55 6.922,0 12.324,2.313 17.547,4.55 3.112,1.332 6.154,2.559 9.431,3.38 V 3.661 C 6.717,2.789 3.299,1.413 0,0"
           style="fill:#6d6e71;fill-opacity:1;fill-rule:nonzero;stroke:none"
           id="path284" /></g><g
         id="g286"
         transform="translate(273.43229,443.63)"><path
           d="m 0,0 c -5.201,-2.228 -10.115,-4.331 -16.482,-4.331 -6.368,0 -11.281,2.103 -16.483,4.331 -5.223,2.236 -10.626,4.549 -17.548,4.549 -6.923,0 -12.324,-2.313 -17.548,-4.549 -1.059,-0.454 -2.107,-0.896 -3.157,-1.323 v -2.913 c 1.436,0.558 2.837,1.154 4.223,1.748 5.201,2.226 10.115,4.331 16.482,4.331 6.367,0 11.281,-2.105 16.483,-4.331 5.223,-2.238 10.626,-4.55 17.548,-4.55 6.922,0 12.324,2.312 17.547,4.55 3.112,1.332 6.154,2.558 9.431,3.379 V 3.66 C 6.717,2.789 3.299,1.413 0,0"
           style="fill:#aa6d2b;fill-opacity:1;fill-rule:nonzero;stroke:none"
           id="path288" /></g><g
         id="g290"
         transform="translate(211.30149,466.5861)"><path
           d="m 0,0 c -1.465,0 -2.867,0.249 -4.206,0.746 -1.339,0.498 -2.577,1.262 -3.717,2.293 l 2.008,2.388 c 0.923,-0.796 1.858,-1.406 2.809,-1.831 0.949,-0.426 2.011,-0.638 3.187,-0.638 1.031,0 1.85,0.221 2.456,0.665 0.606,0.442 0.909,1.017 0.909,1.723 V 5.399 C 3.446,5.743 3.388,6.047 3.27,6.309 3.152,6.571 2.935,6.819 2.618,7.055 2.302,7.29 1.868,7.507 1.316,7.706 0.764,7.905 0.045,8.104 -0.841,8.304 c -1.013,0.234 -1.913,0.502 -2.7,0.8 -0.787,0.298 -1.447,0.66 -1.98,1.085 -0.535,0.425 -0.942,0.945 -1.222,1.56 -0.28,0.615 -0.42,1.357 -0.42,2.226 v 0.053 c 0,0.815 0.162,1.561 0.488,2.24 0.325,0.677 0.774,1.256 1.343,1.736 0.57,0.478 1.253,0.854 2.049,1.126 0.796,0.271 1.664,0.407 2.605,0.407 1.393,0 2.646,-0.204 3.758,-0.61 1.112,-0.407 2.157,-1 3.134,-1.778 L 4.423,14.626 c -0.868,0.633 -1.728,1.116 -2.577,1.451 -0.851,0.335 -1.71,0.502 -2.578,0.502 -0.977,0 -1.737,-0.217 -2.28,-0.651 -0.543,-0.434 -0.814,-0.968 -0.814,-1.601 v -0.055 c 0,-0.361 0.063,-0.682 0.19,-0.962 0.126,-0.281 0.362,-0.535 0.705,-0.76 0.344,-0.227 0.805,-0.439 1.384,-0.638 0.579,-0.199 1.33,-0.407 2.253,-0.624 C 1.7,11.034 2.578,10.754 3.338,10.447 4.098,10.139 4.735,9.764 5.251,9.32 5.767,8.877 6.15,8.361 6.404,7.774 6.657,7.187 6.784,6.503 6.784,5.726 V 5.671 C 6.784,4.785 6.616,3.989 6.281,3.283 5.947,2.578 5.481,1.98 4.885,1.492 4.287,1.004 3.572,0.633 2.74,0.38 1.908,0.127 0.995,0 0,0"
           style="fill:#6d6e71;fill-opacity:1;fill-rule:nonzero;stroke:none"
           id="path292" /></g><g
         id="g294"
         transform="translate(225.81909,485.8517)"><path
           d="M 0,0 H 14.082 V -2.985 H 3.337 v -4.939 h 9.524 v -2.984 H 3.337 v -5.102 h 10.881 v -2.984 H 0 Z"
           style="fill:#6d6e71;fill-opacity:1;fill-rule:nonzero;stroke:none"
           id="path296" /></g><g
         id="g298"
         transform="translate(256.61589,466.5323)"><path
           d="M 0,0 C -1.394,0 -2.678,0.253 -3.854,0.76 -5.029,1.266 -6.047,1.957 -6.905,2.835 -7.765,3.712 -8.438,4.748 -8.927,5.942 -9.416,7.136 -9.66,8.411 -9.66,9.768 v 0.054 c 0,1.357 0.24,2.627 0.72,3.813 0.478,1.184 1.153,2.224 2.021,3.12 0.868,0.895 1.899,1.6 3.093,2.116 1.194,0.516 2.514,0.774 3.962,0.774 0.868,0 1.659,-0.073 2.374,-0.215 0.715,-0.144 1.37,-0.346 1.968,-0.606 0.596,-0.26 1.148,-0.569 1.655,-0.928 0.506,-0.358 0.985,-0.752 1.437,-1.182 L 5.427,14.245 c -0.76,0.705 -1.565,1.276 -2.415,1.709 -0.851,0.435 -1.818,0.651 -2.904,0.651 -0.904,0 -1.741,-0.176 -2.509,-0.53 -0.77,-0.353 -1.43,-0.834 -1.981,-1.44 C -4.935,14.027 -5.368,13.315 -5.685,12.5 -6.001,11.685 -6.159,10.814 -6.159,9.89 V 9.836 c 0,-0.925 0.153,-1.8 0.461,-2.624 0.307,-0.825 0.741,-1.541 1.302,-2.149 0.561,-0.606 1.225,-1.086 1.995,-1.44 0.768,-0.353 1.605,-0.53 2.509,-0.53 1.158,0 2.153,0.217 2.986,0.651 0.831,0.435 1.654,1.031 2.468,1.791 L 7.706,3.364 C 7.218,2.839 6.706,2.374 6.173,1.967 5.64,1.56 5.064,1.207 4.45,0.908 3.835,0.61 3.161,0.384 2.429,0.23 1.696,0.077 0.886,0 0,0"
           style="fill:#6d6e71;fill-opacity:1;fill-rule:nonzero;stroke:none"
           id="path300" /></g><g
         id="g302"
         transform="translate(279.84249,476.4357)"><path
           d="m 0,0 c 1.193,0 2.144,0.285 2.849,0.855 0.706,0.57 1.058,1.343 1.058,2.32 V 3.229 C 3.907,4.261 3.563,5.043 2.876,5.576 2.188,6.109 1.221,6.377 -0.027,6.377 H -4.885 V 0 Z M -8.222,9.416 H 0.244 C 1.437,9.416 2.496,9.248 3.419,8.914 4.341,8.579 5.109,8.113 5.725,7.517 6.231,6.991 6.62,6.386 6.892,5.698 7.163,5.011 7.299,4.251 7.299,3.419 V 3.365 C 7.299,1.809 6.878,0.557 6.037,-0.394 5.196,-1.343 4.115,-2.008 2.795,-2.388 l 5.128,-7.19 H 3.961 l -4.667,6.621 h -4.179 v -6.621 h -3.337 z"
           style="fill:#6d6e71;fill-opacity:1;fill-rule:nonzero;stroke:none"
           id="path304" /></g><g
         id="g306"
         transform="translate(295.03779,485.8517)"><path
           d="M 0,0 H 14.082 V -2.985 H 3.337 v -4.939 h 9.524 v -2.984 H 3.337 v -5.102 h 10.881 v -2.984 H 0 Z"
           style="fill:#6d6e71;fill-opacity:1;fill-rule:nonzero;stroke:none"
           id="path308" /></g><g
         id="g310"
         transform="translate(321.68329,482.7579)"><path
           d="M 0,0 H -6.024 V 3.094 H 9.389 V 0 H 3.364 V -15.9 H 0 Z"
           style="fill:#6d6e71;fill-opacity:1;fill-rule:nonzero;stroke:none"
           id="path312" /></g><g
         id="g314"
         transform="translate(349.90299,474.4005)"><path
           d="M 0,0 -3.283,7.598 -6.54,0 Z m -4.776,11.587 h 3.093 L 6.675,-7.543 H 3.147 l -1.926,4.586 h -8.982 l -1.953,-4.586 h -3.419 z"
           style="fill:#6d6e71;fill-opacity:1;fill-rule:nonzero;stroke:none"
           id="path316" /></g><g
         id="g318"
         transform="translate(371.85419,476.4357)"><path
           d="m 0,0 c 1.193,0 2.144,0.285 2.849,0.855 0.706,0.57 1.058,1.343 1.058,2.32 V 3.229 C 3.907,4.261 3.563,5.043 2.876,5.576 2.188,6.109 1.221,6.377 -0.027,6.377 H -4.885 V 0 Z M -8.222,9.416 H 0.244 C 1.437,9.416 2.496,9.248 3.419,8.914 4.341,8.579 5.109,8.113 5.725,7.517 6.231,6.991 6.62,6.386 6.892,5.698 7.163,5.011 7.299,4.251 7.299,3.419 V 3.365 C 7.299,1.809 6.878,0.557 6.037,-0.394 5.196,-1.343 4.115,-2.008 2.795,-2.388 l 5.128,-7.19 H 3.961 l -4.667,6.621 h -4.179 v -6.621 h -3.337 z"
           style="fill:#6d6e71;fill-opacity:1;fill-rule:nonzero;stroke:none"
           id="path320" /></g><path
         d="m 387.23929,485.8519 h 3.338 v -18.994 h -3.338 z"
         style="fill:#6d6e71;fill-opacity:1;fill-rule:nonzero;stroke:none"
         id="path322" /><g
         id="g324"
         transform="translate(410.95479,474.4005)"><path
           d="M 0,0 -3.283,7.598 -6.54,0 Z m -4.776,11.587 h 3.093 L 6.675,-7.543 H 3.147 l -1.926,4.586 h -8.982 l -1.953,-4.586 h -3.419 z"
           style="fill:#6d6e71;fill-opacity:1;fill-rule:nonzero;stroke:none"
           id="path326" /></g><g
         id="g328"
         transform="translate(439.95969,482.8126)"><path
           d="m 0,0 v -12.916 h 3.745 c 0.994,0 1.9,0.158 2.713,0.475 0.814,0.316 1.506,0.759 2.076,1.33 0.57,0.569 1.013,1.248 1.329,2.035 0.317,0.786 0.476,1.641 0.476,2.563 v 0.055 c 0,0.923 -0.159,1.781 -0.476,2.578 -0.316,0.795 -0.759,1.479 -1.329,2.048 -0.57,0.57 -1.262,1.018 -2.076,1.344 C 5.645,-0.163 4.739,0 3.745,0 Z m -3.337,3.039 h 7.082 c 1.483,0 2.844,-0.24 4.083,-0.719 1.239,-0.479 2.307,-1.144 3.202,-1.995 0.896,-0.85 1.588,-1.849 2.076,-2.998 0.489,-1.149 0.733,-2.392 0.733,-3.731 v -0.054 c 0,-1.339 -0.244,-2.587 -0.733,-3.744 -0.488,-1.158 -1.18,-2.162 -2.076,-3.013 -0.895,-0.85 -1.963,-1.519 -3.202,-2.008 -1.239,-0.488 -2.6,-0.732 -4.083,-0.732 h -7.082 z"
           style="fill:#6d6e71;fill-opacity:1;fill-rule:nonzero;stroke:none"
           id="path330" /></g><g
         id="g332"
         transform="translate(461.64029,485.8517)"><path
           d="M 0,0 H 14.082 V -2.985 H 3.337 v -4.939 h 9.524 v -2.984 H 3.337 v -5.102 h 10.881 v -2.984 H 0 Z"
           style="fill:#6d6e71;fill-opacity:1;fill-rule:nonzero;stroke:none"
           id="path334" /></g><g
         id="g336"
         transform="translate(316.62669,437.4913)"><path
           d="m 0,0 v -21.655 h 4.792 c 3.558,0 6.409,0.929 8.553,2.79 2.143,1.86 3.215,4.509 3.215,7.947 v 0.121 c 0,3.437 -1.072,6.096 -3.215,7.977 C 11.201,-0.939 8.35,0 4.792,0 Z m -11.769,10.373 h 16.44 c 3.761,0 7.127,-0.516 10.1,-1.547 2.972,-1.031 5.479,-2.477 7.521,-4.337 2.042,-1.86 3.6,-4.074 4.671,-6.642 1.071,-2.569 1.607,-5.389 1.607,-8.462 v -0.121 c 0,-3.075 -0.546,-5.914 -1.637,-8.523 -1.092,-2.608 -2.669,-4.863 -4.732,-6.763 -2.062,-1.902 -4.59,-3.388 -7.582,-4.459 -2.993,-1.073 -6.39,-1.608 -10.191,-1.608 h -16.197 z"
           style="fill:#aa6d2b;fill-opacity:1;fill-rule:nonzero;stroke:none"
           id="path338" /></g><g
         id="g340"
         transform="translate(351.32299,447.8644)"><path
           d="M 0,0 H 34.152 V -9.948 H 11.647 v -6.49 H 32.029 V -25.72 H 11.647 v -6.733 H 34.455 V -42.462 H 0 Z"
           style="fill:#aa6d2b;fill-opacity:1;fill-rule:nonzero;stroke:none"
           id="path342" /></g><g
         id="g344"
         transform="translate(408.52609,404.6749)"><path
           d="m 0,0 c -3.802,0 -7.4,0.586 -10.798,1.759 -3.396,1.173 -6.43,2.931 -9.098,5.277 l 6.551,7.825 c 4.326,-3.396 8.917,-5.095 13.77,-5.095 1.617,0 2.841,0.252 3.67,0.758 0.828,0.505 1.243,1.223 1.243,2.154 v 0.121 c 0,0.444 -0.101,0.849 -0.303,1.213 -0.203,0.364 -0.576,0.698 -1.122,1.001 -0.546,0.303 -1.284,0.607 -2.215,0.91 -0.93,0.304 -2.123,0.637 -3.578,1.001 -2.266,0.525 -4.368,1.101 -6.309,1.728 -1.941,0.627 -3.63,1.436 -5.065,2.427 -1.436,0.99 -2.568,2.214 -3.397,3.67 -0.829,1.456 -1.244,3.275 -1.244,5.459 v 0.122 c 0,1.981 0.374,3.801 1.123,5.459 0.748,1.658 1.839,3.094 3.275,4.307 1.435,1.214 3.164,2.154 5.186,2.821 2.022,0.667 4.307,1.001 6.855,1.001 3.64,0 6.886,-0.476 9.736,-1.426 2.851,-0.95 5.429,-2.356 7.735,-4.216 l -5.884,-8.31 c -1.942,1.415 -3.934,2.466 -5.976,3.154 -2.042,0.688 -4.013,1.031 -5.914,1.031 -1.416,0 -2.477,-0.253 -3.184,-0.757 -0.708,-0.507 -1.062,-1.164 -1.062,-1.972 v -0.121 c 0,-0.486 0.11,-0.91 0.333,-1.275 0.222,-0.364 0.607,-0.697 1.153,-1.001 0.546,-0.302 1.293,-0.606 2.245,-0.91 0.949,-0.303 2.172,-0.616 3.67,-0.939 2.425,-0.527 4.61,-1.144 6.55,-1.851 1.942,-0.708 3.6,-1.567 4.975,-2.578 1.374,-1.011 2.427,-2.234 3.154,-3.67 0.728,-1.435 1.092,-3.144 1.092,-5.126 V 13.83 c 0,-2.184 -0.415,-4.125 -1.243,-5.823 C 15.094,6.309 13.932,4.862 12.436,3.67 10.938,2.477 9.139,1.566 7.037,0.939 4.934,0.313 2.588,0 0,0"
           style="fill:#aa6d2b;fill-opacity:1;fill-rule:nonzero;stroke:none"
           id="path346" /></g><g
         id="g348"
         transform="translate(431.39429,447.8644)"><path
           d="M 0,0 H 34.152 V -9.948 H 11.647 v -6.49 H 32.029 V -25.72 H 11.647 v -6.733 H 34.455 V -42.462 H 0 Z"
           style="fill:#aa6d2b;fill-opacity:1;fill-rule:nonzero;stroke:none"
           id="path350" /></g><g
         id="g352"
         transform="translate(471.91569,447.8644)"><path
           d="M 0,0 H 10.979 L 28.45,-22.444 V 0 H 40.097 V -42.462 H 29.845 L 11.647,-19.168 V -42.462 H 0 Z"
           style="fill:#aa6d2b;fill-opacity:1;fill-rule:nonzero;stroke:none"
           id="path354" /></g><g
         id="g356"
         transform="translate(516.19699,447.8644)"><path
           d="M 0,0 H 13.103 L 22.747,-26.872 32.453,0 h 12.86 L 28.086,-42.766 H 17.167 Z"
           style="fill:#aa6d2b;fill-opacity:1;fill-rule:nonzero;stroke:none"
           id="path358" /></g><g
         id="g360"
         transform="translate(584.43919,415.1691)"><path
           d="m 0,0 c 1.617,0 3.084,0.303 4.398,0.909 1.314,0.608 2.436,1.426 3.367,2.457 0.929,1.031 1.658,2.235 2.184,3.61 0.525,1.374 0.788,2.83 0.788,4.367 v 0.122 c 0,1.536 -0.263,3.002 -0.788,4.397 -0.526,1.396 -1.264,2.618 -2.215,3.67 -0.95,1.051 -2.092,1.881 -3.426,2.488 -1.335,0.606 -2.812,0.91 -4.429,0.91 -1.618,0 -3.094,-0.304 -4.428,-0.91 -1.335,-0.607 -2.468,-1.426 -3.397,-2.458 -0.931,-1.031 -1.658,-2.234 -2.184,-3.609 -0.526,-1.375 -0.788,-2.831 -0.788,-4.367 v -0.121 c 0,-1.538 0.262,-2.993 0.788,-4.368 0.526,-1.375 1.274,-2.588 2.244,-3.64 C -6.915,2.405 -5.763,1.566 -4.428,0.94 -3.093,0.312 -1.617,0 0,0 m -0.121,-10.616 c -3.275,0 -6.309,0.576 -9.099,1.729 -2.791,1.153 -5.197,2.719 -7.218,4.701 -2.023,1.981 -3.61,4.307 -4.762,6.976 -1.153,2.669 -1.729,5.521 -1.729,8.553 v 0.122 c 0,3.032 0.576,5.893 1.729,8.583 1.152,2.689 2.76,5.035 4.822,7.037 2.063,2.001 4.489,3.578 7.279,4.731 2.79,1.153 5.824,1.729 9.099,1.729 3.276,0 6.31,-0.576 9.1,-1.729 2.79,-1.153 5.196,-2.72 7.218,-4.701 2.022,-1.982 3.61,-4.307 4.762,-6.976 1.152,-2.669 1.729,-5.52 1.729,-8.553 v -0.121 c 0,-3.033 -0.577,-5.895 -1.729,-8.584 -1.152,-2.69 -2.76,-5.034 -4.822,-7.036 -2.063,-2.002 -4.489,-3.579 -7.279,-4.732 -2.792,-1.153 -5.824,-1.729 -9.1,-1.729"
           style="fill:#aa6d2b;fill-opacity:1;fill-rule:nonzero;stroke:none"
           id="path362" /></g><g
         id="g364"
         transform="translate(613.31319,447.8644)"><path
           d="M 0,0 H 11.769 V -32.149 H 32.332 V -42.462 H 0 Z"
           style="fill:#aa6d2b;fill-opacity:1;fill-rule:nonzero;stroke:none"
           id="path366" /></g><g
         id="g368"
         transform="translate(640.42939,447.8644)"><path
           d="M 0,0 H 13.103 L 22.747,-26.872 32.453,0 h 12.86 L 28.086,-42.766 H 17.167 Z"
           style="fill:#aa6d2b;fill-opacity:1;fill-rule:nonzero;stroke:none"
           id="path370" /></g><path
         d="m 690.17029,447.8639 h 11.768 v -42.462 h -11.768 z"
         style="fill:#aa6d2b;fill-opacity:1;fill-rule:nonzero;stroke:none"
         id="path372" /><g
         id="g374"
         transform="translate(709.70189,447.8644)"><path
           d="M 0,0 H 12.436 L 22.565,-16.438 32.696,0 H 45.132 V -42.462 H 33.424 v 24.386 L 22.565,-34.697 h -0.242 l -10.798,16.56 V -42.462 H 0 Z"
           style="fill:#aa6d2b;fill-opacity:1;fill-rule:nonzero;stroke:none"
           id="path376" /></g><g
         id="g378"
         transform="translate(762.35519,447.8644)"><path
           d="M 0,0 H 34.152 V -9.948 H 11.647 v -6.49 H 32.029 V -25.72 H 11.647 v -6.733 H 34.455 V -42.462 H 0 Z"
           style="fill:#aa6d2b;fill-opacity:1;fill-rule:nonzero;stroke:none"
           id="path380" /></g><g
         id="g382"
         transform="translate(802.87669,447.8644)"><path
           d="M 0,0 H 10.979 L 28.45,-22.444 V 0 H 40.097 V -42.462 H 29.845 L 11.647,-19.168 V -42.462 H 0 Z"
           style="fill:#aa6d2b;fill-opacity:1;fill-rule:nonzero;stroke:none"
           id="path384" /></g><g
         id="g386"
         transform="translate(860.86689,437.5528)"><path
           d="M 0,0 H -12.678 V 10.312 H 24.507 V 0 H 11.769 V -32.15 H 0 Z"
           style="fill:#aa6d2b;fill-opacity:1;fill-rule:nonzero;stroke:none"
           id="path388" /></g><g
         id="g390"
         transform="translate(910.24389,415.1691)"><path
           d="m 0,0 c 1.617,0 3.084,0.303 4.398,0.909 1.314,0.608 2.436,1.426 3.367,2.457 0.929,1.031 1.658,2.235 2.184,3.61 0.525,1.374 0.788,2.83 0.788,4.367 v 0.122 c 0,1.536 -0.263,3.002 -0.788,4.397 -0.526,1.396 -1.264,2.618 -2.215,3.67 -0.95,1.051 -2.092,1.881 -3.426,2.488 -1.335,0.606 -2.812,0.91 -4.429,0.91 -1.618,0 -3.094,-0.304 -4.428,-0.91 -1.335,-0.607 -2.468,-1.426 -3.397,-2.458 -0.931,-1.031 -1.658,-2.234 -2.184,-3.609 -0.526,-1.375 -0.788,-2.831 -0.788,-4.367 v -0.121 c 0,-1.538 0.262,-2.993 0.788,-4.368 0.526,-1.375 1.274,-2.588 2.244,-3.64 C -6.915,2.405 -5.763,1.566 -4.428,0.94 -3.093,0.312 -1.617,0 0,0 m -0.121,-10.616 c -3.275,0 -6.309,0.576 -9.099,1.729 -2.791,1.153 -5.197,2.719 -7.218,4.701 -2.023,1.981 -3.61,4.307 -4.762,6.976 -1.153,2.669 -1.729,5.521 -1.729,8.553 v 0.122 c 0,3.032 0.576,5.893 1.729,8.583 1.152,2.689 2.76,5.035 4.822,7.037 2.063,2.001 4.489,3.578 7.279,4.731 2.79,1.153 5.824,1.729 9.099,1.729 3.276,0 6.31,-0.576 9.1,-1.729 2.79,-1.153 5.196,-2.72 7.218,-4.701 2.022,-1.982 3.61,-4.307 4.762,-6.976 1.152,-2.669 1.729,-5.52 1.729,-8.553 v -0.121 c 0,-3.033 -0.577,-5.895 -1.729,-8.584 -1.152,-2.69 -2.76,-5.034 -4.822,-7.036 -2.063,-2.002 -4.489,-3.579 -7.279,-4.732 -2.792,-1.153 -5.824,-1.729 -9.1,-1.729"
           style="fill:#aa6d2b;fill-opacity:1;fill-rule:nonzero;stroke:none"
           id="path392" /></g><g
         id="g394"
         transform="translate(321.53979,346.2072)"><path
           d="m 0,0 c -3.802,0 -7.4,0.586 -10.798,1.759 -3.396,1.173 -6.43,2.931 -9.098,5.277 l 6.551,7.825 c 4.326,-3.396 8.917,-5.095 13.77,-5.095 1.617,0 2.841,0.252 3.67,0.758 0.828,0.505 1.243,1.223 1.243,2.154 v 0.121 c 0,0.444 -0.101,0.849 -0.303,1.213 -0.203,0.364 -0.576,0.698 -1.122,1.001 -0.546,0.303 -1.284,0.607 -2.215,0.91 -0.93,0.304 -2.123,0.637 -3.578,1.001 -2.266,0.525 -4.368,1.101 -6.309,1.728 -1.941,0.627 -3.63,1.436 -5.065,2.427 -1.436,0.99 -2.568,2.214 -3.397,3.67 -0.829,1.456 -1.244,3.275 -1.244,5.459 v 0.122 c 0,1.981 0.374,3.801 1.123,5.459 0.748,1.658 1.839,3.094 3.275,4.307 1.435,1.214 3.164,2.154 5.186,2.821 2.022,0.667 4.307,1.001 6.855,1.001 3.64,0 6.886,-0.476 9.736,-1.426 2.851,-0.95 5.429,-2.356 7.735,-4.216 l -5.884,-8.31 c -1.942,1.415 -3.934,2.466 -5.976,3.154 -2.042,0.688 -4.013,1.031 -5.914,1.031 -1.416,0 -2.477,-0.253 -3.184,-0.757 -0.708,-0.507 -1.062,-1.164 -1.062,-1.972 v -0.121 c 0,-0.486 0.11,-0.91 0.333,-1.275 0.222,-0.364 0.607,-0.697 1.153,-1.001 0.546,-0.302 1.293,-0.606 2.245,-0.91 0.949,-0.303 2.172,-0.616 3.67,-0.939 2.425,-0.527 4.61,-1.144 6.55,-1.851 1.942,-0.708 3.6,-1.567 4.975,-2.578 1.374,-1.011 2.427,-2.234 3.154,-3.67 0.728,-1.435 1.092,-3.144 1.092,-5.126 V 13.83 c 0,-2.184 -0.415,-4.125 -1.243,-5.823 C 15.094,6.309 13.932,4.862 12.436,3.67 10.938,2.477 9.139,1.566 7.037,0.939 4.934,0.313 2.588,0 0,0"
           style="fill:#aa6d2b;fill-opacity:1;fill-rule:nonzero;stroke:none"
           id="path396" /></g><g
         id="g398"
         transform="translate(365.94209,356.7013)"><path
           d="m 0,0 c 1.617,0 3.084,0.303 4.398,0.909 1.314,0.608 2.436,1.426 3.367,2.457 0.929,1.031 1.658,2.235 2.184,3.61 0.525,1.374 0.788,2.83 0.788,4.367 v 0.122 c 0,1.536 -0.263,3.002 -0.788,4.397 -0.526,1.396 -1.264,2.618 -2.215,3.67 -0.95,1.051 -2.092,1.881 -3.426,2.488 -1.335,0.606 -2.812,0.91 -4.429,0.91 -1.618,0 -3.094,-0.304 -4.428,-0.91 -1.335,-0.607 -2.468,-1.426 -3.397,-2.458 -0.931,-1.031 -1.658,-2.234 -2.184,-3.609 -0.526,-1.375 -0.788,-2.831 -0.788,-4.367 v -0.121 c 0,-1.538 0.262,-2.993 0.788,-4.368 0.526,-1.375 1.274,-2.588 2.244,-3.64 C -6.915,2.405 -5.763,1.566 -4.428,0.94 -3.093,0.312 -1.617,0 0,0 m -0.121,-10.616 c -3.275,0 -6.309,0.576 -9.099,1.729 -2.791,1.153 -5.197,2.719 -7.218,4.701 -2.023,1.981 -3.61,4.307 -4.762,6.976 -1.153,2.669 -1.729,5.521 -1.729,8.553 v 0.122 c 0,3.032 0.576,5.893 1.729,8.583 1.152,2.689 2.76,5.035 4.822,7.037 2.063,2.001 4.489,3.578 7.279,4.731 2.79,1.153 5.824,1.729 9.099,1.729 3.276,0 6.31,-0.576 9.1,-1.729 2.79,-1.153 5.196,-2.72 7.218,-4.701 2.022,-1.982 3.61,-4.307 4.762,-6.976 1.152,-2.669 1.729,-5.52 1.729,-8.553 v -0.121 c 0,-3.033 -0.577,-5.895 -1.729,-8.584 -1.152,-2.69 -2.76,-5.034 -4.822,-7.036 -2.063,-2.002 -4.489,-3.579 -7.279,-4.732 -2.792,-1.153 -5.824,-1.729 -9.1,-1.729"
           style="fill:#aa6d2b;fill-opacity:1;fill-rule:nonzero;stroke:none"
           id="path400" /></g><g
         id="g402"
         transform="translate(415.31999,346.0851)"><path
           d="m 0,0 c -3.032,0 -5.884,0.546 -8.553,1.639 -2.669,1.091 -4.984,2.617 -6.945,4.579 -1.962,1.961 -3.519,4.286 -4.671,6.976 -1.152,2.689 -1.728,5.611 -1.728,8.765 v 0.122 c 0,3.072 0.554,5.954 1.668,8.644 1.111,2.689 2.668,5.035 4.67,7.037 2.002,2.002 4.357,3.568 7.067,4.701 2.709,1.132 5.681,1.698 8.917,1.698 2.183,0 4.165,-0.212 5.945,-0.637 1.778,-0.424 3.406,-1.031 4.883,-1.82 1.476,-0.788 2.81,-1.719 4.004,-2.79 1.192,-1.072 2.254,-2.255 3.184,-3.549 L 9.585,28.511 c -1.213,1.496 -2.548,2.699 -4.004,3.609 -1.456,0.91 -3.215,1.365 -5.277,1.365 -1.496,0 -2.862,-0.294 -4.095,-0.88 -1.233,-0.586 -2.295,-1.395 -3.185,-2.426 -0.889,-1.032 -1.587,-2.235 -2.092,-3.61 -0.506,-1.375 -0.758,-2.831 -0.758,-4.367 v -0.121 c 0,-1.577 0.252,-3.063 0.758,-4.459 0.505,-1.395 1.203,-2.599 2.092,-3.609 0.89,-1.011 1.952,-1.811 3.185,-2.396 1.233,-0.587 2.599,-0.88 4.095,-0.88 1.092,0 2.092,0.121 3.003,0.365 0.91,0.242 1.738,0.595 2.487,1.061 0.747,0.464 1.455,1.01 2.123,1.638 0.667,0.626 1.324,1.324 1.971,2.093 L 18.744,9.585 C 17.733,8.209 16.631,6.936 15.438,5.763 14.245,4.59 12.891,3.579 11.374,2.73 9.857,1.881 8.169,1.214 6.31,0.729 4.448,0.243 2.346,0 0,0"
           style="fill:#aa6d2b;fill-opacity:1;fill-rule:nonzero;stroke:none"
           id="path404" /></g><path
         d="m 439.46229,389.3969 h 11.768 v -42.462 h -11.768 z"
         style="fill:#aa6d2b;fill-opacity:1;fill-rule:nonzero;stroke:none"
         id="path406" /><g
         id="g408"
         transform="translate(483.98599,363.7374)"><path
           d="M 0,0 -4.731,12.011 -9.523,0 Z M -10.313,25.963 H 1.031 L 19.108,-16.803 H 6.491 l -3.033,7.644 h -16.439 l -3.034,-7.644 h -12.313 z"
           style="fill:#aa6d2b;fill-opacity:1;fill-rule:nonzero;stroke:none"
           id="path410" /></g><g
         id="g412"
         transform="translate(507.21939,389.3966)"><path
           d="M 0,0 H 11.769 V -32.149 H 32.332 V -42.462 H 0 Z"
           style="fill:#aa6d2b;fill-opacity:1;fill-rule:nonzero;stroke:none"
           id="path414" /></g><g
         id="g416"
         transform="translate(567.10619,388.9015)"><path
           d="M 0,0 H -5.096 V 2.617 H 7.941 V 0 H 2.847 V -13.45 H 0 Z"
           style="fill:#aa6d2b;fill-opacity:1;fill-rule:nonzero;stroke:none"
           id="path418" /></g><g
         id="g420"
         transform="translate(584.98699,383.5539)"><path
           d="m 0,0 c 1.01,0 1.813,0.241 2.41,0.723 0.597,0.482 0.896,1.136 0.896,1.963 v 0.045 c 0,0.873 -0.291,1.535 -0.872,1.986 -0.582,0.451 -1.401,0.677 -2.456,0.677 h -4.11 V 0 Z M -6.955,7.965 H 0.207 C 1.217,7.965 2.111,7.823 2.893,7.54 3.673,7.257 4.323,6.863 4.843,6.358 5.271,5.914 5.601,5.401 5.83,4.82 6.06,4.238 6.175,3.596 6.175,2.892 V 2.846 C 6.175,1.53 5.818,0.471 5.107,-0.333 4.396,-1.137 3.481,-1.698 2.364,-2.02 l 4.338,-6.083 h -3.35 l -3.949,5.601 h -3.535 v -5.601 h -2.823 z"
           style="fill:#aa6d2b;fill-opacity:1;fill-rule:nonzero;stroke:none"
           id="path422" /></g><g
         id="g424"
         transform="translate(604.35909,381.8322)"><path
           d="M 0,0 -2.777,6.427 -5.531,0 Z m -4.04,9.801 h 2.617 L 5.646,-6.381 H 2.663 l -1.63,3.879 h -7.597 l -1.653,-3.879 h -2.892 z"
           style="fill:#aa6d2b;fill-opacity:1;fill-rule:nonzero;stroke:none"
           id="path426" /></g><g
         id="g428"
         transform="translate(623.31809,380.2023)"><path
           d="m 0,0 c 0,0.688 -0.271,1.221 -0.814,1.596 -0.544,0.375 -1.374,0.562 -2.491,0.562 h -4.476 v -4.407 h 4.682 c 0.964,0 1.722,0.184 2.273,0.551 C -0.275,-1.331 0,-0.78 0,-0.046 Z m -0.895,6.771 c 0,0.643 -0.241,1.144 -0.723,1.504 -0.482,0.36 -1.182,0.539 -2.1,0.539 H -7.781 V 4.545 h 3.856 c 0.918,0 1.653,0.18 2.203,0.54 0.552,0.358 0.827,0.906 0.827,1.641 z m -9.664,4.545 h 7.208 C -1.5,11.316 -0.1,10.842 0.85,9.894 1.568,9.174 1.929,8.286 1.929,7.23 V 7.185 C 1.929,6.694 1.863,6.263 1.733,5.888 1.603,5.513 1.435,5.184 1.229,4.9 1.021,4.617 0.776,4.369 0.494,4.155 0.21,3.94 -0.076,3.757 -0.367,3.604 0.107,3.436 0.54,3.24 0.93,3.019 1.32,2.797 1.656,2.533 1.939,2.227 2.223,1.921 2.44,1.562 2.594,1.148 2.747,0.734 2.823,0.253 2.823,-0.298 V -0.344 C 2.823,-1.063 2.682,-1.698 2.398,-2.249 2.115,-2.8 1.714,-3.259 1.193,-3.626 0.674,-3.993 0.046,-4.272 -0.688,-4.464 -1.423,-4.655 -2.234,-4.751 -3.121,-4.751 h -7.438 z"
           style="fill:#aa6d2b;fill-opacity:1;fill-rule:nonzero;stroke:none"
           id="path430" /></g><g
         id="g432"
         transform="translate(639.06319,381.8322)"><path
           d="M 0,0 -2.777,6.427 -5.531,0 Z m -4.04,9.801 h 2.617 L 5.646,-6.381 H 2.663 l -1.63,3.879 h -7.597 l -1.653,-3.879 h -2.892 z"
           style="fill:#aa6d2b;fill-opacity:1;fill-rule:nonzero;stroke:none"
           id="path434" /></g><g
         id="g436"
         transform="translate(647.46459,391.5187)"><path
           d="m 0,0 h 2.823 v -13.497 h 8.448 v -2.57 H 0 Z"
           style="fill:#aa6d2b;fill-opacity:1;fill-rule:nonzero;stroke:none"
           id="path438" /></g><g
         id="g440"
         transform="translate(661.67159,391.5187)"><path
           d="M 0,0 H 2.823 V -6.68 H 10.49 V 0 h 2.823 V -16.067 H 10.49 v 6.771 H 2.823 v -6.771 H 0 Z"
           style="fill:#aa6d2b;fill-opacity:1;fill-rule:nonzero;stroke:none"
           id="path442" /></g><g
         id="g444"
         transform="translate(686.82879,377.7921)"><path
           d="m 0,0 c 0.795,0 1.526,0.149 2.191,0.448 0.666,0.3 1.237,0.702 1.71,1.208 0.475,0.506 0.846,1.104 1.114,1.794 0.267,0.691 0.402,1.426 0.402,2.208 v 0.046 c 0,0.782 -0.135,1.522 -0.402,2.22 C 4.747,8.621 4.372,9.227 3.891,9.74 3.408,10.254 2.83,10.664 2.157,10.971 c -0.674,0.306 -1.408,0.46 -2.203,0.46 -0.796,0 -1.526,-0.15 -2.192,-0.449 C -2.904,10.684 -3.474,10.277 -3.948,9.764 -4.423,9.25 -4.794,8.648 -5.062,7.958 -5.329,7.268 -5.463,6.532 -5.463,5.75 V 5.704 c 0,-0.782 0.134,-1.517 0.401,-2.208 0.268,-0.69 0.643,-1.295 1.125,-1.816 0.482,-0.522 1.06,-0.932 1.733,-1.232 C -1.53,0.149 -0.796,0 0,0 m -0.046,-2.616 c -1.239,0 -2.372,0.218 -3.397,0.654 -1.026,0.436 -1.906,1.028 -2.64,1.778 -0.734,0.75 -1.309,1.626 -1.722,2.629 -0.413,1.002 -0.619,2.07 -0.619,3.201 v 0.046 c 0,1.133 0.206,2.201 0.619,3.203 0.413,1.001 0.995,1.882 1.745,2.639 0.749,0.758 1.637,1.359 2.663,1.802 1.025,0.444 2.158,0.666 3.397,0.666 1.239,0 2.371,-0.218 3.396,-0.654 1.026,-0.437 1.906,-1.03 2.64,-1.78 C 6.771,10.819 7.345,9.942 7.758,8.94 8.171,7.938 8.378,6.871 8.378,5.738 V 5.692 C 8.378,4.561 8.171,3.493 7.758,2.491 7.345,1.488 6.763,0.608 6.014,-0.148 5.264,-0.906 4.376,-1.507 3.351,-1.95 2.325,-2.395 1.193,-2.616 -0.046,-2.616"
           style="fill:#aa6d2b;fill-opacity:1;fill-rule:nonzero;stroke:none"
           id="path446" /></g><g
         id="g448"
         transform="translate(696.42259,373.2941)"><path
           d="M 0,0 C 1.408,0.275 2.066,0.994 1.974,2.157 H 0.78 V 5.325 H 3.833 V 2.64 C 3.833,1.354 3.535,0.421 2.938,-0.161 2.342,-0.742 1.461,-1.087 0.299,-1.194 Z"
           style="fill:#aa6d2b;fill-opacity:1;fill-rule:nonzero;stroke:none"
           id="path450" /></g><g
         id="g452"
         transform="translate(716.80539,383.5539)"><path
           d="m 0,0 c 1.01,0 1.813,0.241 2.41,0.723 0.597,0.482 0.896,1.136 0.896,1.963 v 0.045 c 0,0.873 -0.291,1.535 -0.872,1.986 -0.582,0.451 -1.401,0.677 -2.456,0.677 h -4.11 V 0 Z M -6.955,7.965 H 0.207 C 1.217,7.965 2.111,7.823 2.893,7.54 3.673,7.257 4.323,6.863 4.843,6.358 5.271,5.914 5.601,5.401 5.83,4.82 6.06,4.238 6.175,3.596 6.175,2.892 V 2.846 C 6.175,1.53 5.818,0.471 5.107,-0.333 4.396,-1.137 3.481,-1.698 2.364,-2.02 l 4.338,-6.083 h -3.35 l -3.949,5.601 h -3.535 v -5.601 h -2.823 z"
           style="fill:#aa6d2b;fill-opacity:1;fill-rule:nonzero;stroke:none"
           id="path454" /></g><g
         id="g456"
         transform="translate(726.44499,391.5187)"><path
           d="M 0,0 H 11.913 V -2.525 H 2.823 V -6.702 H 10.88 V -9.228 H 2.823 v -4.315 h 9.205 v -2.524 H 0 Z"
           style="fill:#aa6d2b;fill-opacity:1;fill-rule:nonzero;stroke:none"
           id="path458" /></g><g
         id="g460"
         transform="translate(741.82389,391.5187)"><path
           d="m 0,0 h 2.617 l 8.608,-11.109 V 0 h 2.777 v -16.067 h -2.364 l -8.861,11.43 v -11.43 H 0 Z"
           style="fill:#aa6d2b;fill-opacity:1;fill-rule:nonzero;stroke:none"
           id="path462" /></g><g
         id="g464"
         transform="translate(762.77999,388.9474)"><path
           d="m 0,0 v -10.926 h 3.168 c 0.842,0 1.606,0.134 2.295,0.403 0.688,0.267 1.274,0.642 1.756,1.124 0.482,0.482 0.857,1.056 1.125,1.721 0.267,0.666 0.401,1.389 0.401,2.169 v 0.046 c 0,0.781 -0.134,1.508 -0.401,2.181 C 8.076,-2.608 7.701,-2.031 7.219,-1.549 6.737,-1.067 6.151,-0.688 5.463,-0.413 4.774,-0.138 4.01,0 3.168,0 Z m -2.823,2.571 h 5.991 c 1.255,0 2.406,-0.203 3.454,-0.608 1.048,-0.405 1.951,-0.968 2.709,-1.688 0.757,-0.718 1.343,-1.564 1.756,-2.536 0.413,-0.971 0.619,-2.023 0.619,-3.156 v -0.046 c 0,-1.132 -0.206,-2.188 -0.619,-3.167 -0.413,-0.979 -0.999,-1.829 -1.756,-2.548 -0.758,-0.719 -1.661,-1.285 -2.709,-1.698 -1.048,-0.413 -2.199,-0.62 -3.454,-0.62 h -5.991 z"
           style="fill:#aa6d2b;fill-opacity:1;fill-rule:nonzero;stroke:none"
           id="path466" /></g><g
         id="g468"
         transform="translate(787.63839,381.8322)"><path
           d="M 0,0 -2.777,6.427 -5.531,0 Z m -4.04,9.801 h 2.617 L 5.646,-6.381 H 2.663 l -1.63,3.879 h -7.597 l -1.653,-3.879 h -2.892 z"
           style="fill:#aa6d2b;fill-opacity:1;fill-rule:nonzero;stroke:none"
           id="path470" /></g><g
         id="g472"
         transform="translate(563.15789,363.2062)"><path
           d="M 0,0 H 11.913 V -2.525 H 2.823 V -6.702 H 10.88 V -9.228 H 2.823 v -4.315 h 9.205 v -2.524 H 0 Z"
           style="fill:#aa6d2b;fill-opacity:1;fill-rule:nonzero;stroke:none"
           id="path474" /></g><g
         id="g476"
         transform="translate(588.24579,360.6349)"><path
           d="m 0,0 v -10.926 h 3.168 c 0.842,0 1.606,0.134 2.295,0.403 0.688,0.267 1.274,0.642 1.756,1.124 0.482,0.482 0.857,1.056 1.125,1.721 0.267,0.666 0.401,1.389 0.401,2.169 v 0.046 c 0,0.781 -0.134,1.508 -0.401,2.181 C 8.076,-2.608 7.701,-2.031 7.219,-1.549 6.737,-1.067 6.151,-0.688 5.463,-0.413 4.774,-0.138 4.01,0 3.168,0 Z m -2.823,2.571 h 5.991 c 1.255,0 2.406,-0.203 3.454,-0.608 1.048,-0.405 1.951,-0.968 2.709,-1.688 0.757,-0.718 1.343,-1.564 1.756,-2.536 0.413,-0.971 0.619,-2.023 0.619,-3.156 v -0.046 c 0,-1.132 -0.206,-2.188 -0.619,-3.167 -0.413,-0.979 -0.999,-1.829 -1.756,-2.548 -0.758,-0.719 -1.661,-1.285 -2.709,-1.698 -1.048,-0.413 -2.199,-0.62 -3.454,-0.62 h -5.991 z"
           style="fill:#aa6d2b;fill-opacity:1;fill-rule:nonzero;stroke:none"
           id="path478" /></g><path
         d="m 603.53329,363.2059 h 2.823 v -16.067 h -2.823 z"
         style="fill:#aa6d2b;fill-opacity:1;fill-rule:nonzero;stroke:none"
         id="path480" /><g
         id="g482"
         transform="translate(617.60229,355.2414)"><path
           d="m 0,0 c 1.01,0 1.813,0.241 2.41,0.723 0.597,0.482 0.896,1.136 0.896,1.963 v 0.045 c 0,0.873 -0.291,1.535 -0.872,1.986 -0.582,0.451 -1.401,0.677 -2.456,0.677 h -4.11 V 0 Z M -6.955,7.965 H 0.207 C 1.217,7.965 2.111,7.823 2.893,7.54 3.673,7.257 4.323,6.863 4.843,6.358 5.271,5.914 5.601,5.401 5.83,4.82 6.06,4.238 6.175,3.596 6.175,2.892 V 2.846 C 6.175,1.53 5.818,0.471 5.107,-0.333 4.396,-1.137 3.481,-1.698 2.364,-2.02 l 4.338,-6.083 h -3.35 l -3.949,5.601 h -3.535 v -5.601 h -2.823 z"
           style="fill:#aa6d2b;fill-opacity:1;fill-rule:nonzero;stroke:none"
           id="path484" /></g><g
         id="g486"
         transform="translate(627.24289,363.2062)"><path
           d="M 0,0 H 11.913 V -2.525 H 2.823 V -6.702 H 10.88 V -9.228 H 2.823 v -4.315 h 9.205 v -2.524 H 0 Z"
           style="fill:#aa6d2b;fill-opacity:1;fill-rule:nonzero;stroke:none"
           id="path488" /></g><path
         d="m 642.78229,363.2059 h 2.823 v -16.067 h -2.823 z"
         style="fill:#aa6d2b;fill-opacity:1;fill-rule:nonzero;stroke:none"
         id="path490" /><g
         id="g492"
         transform="translate(653.84539,360.589)"><path
           d="M 0,0 H -5.096 V 2.617 H 7.941 V 0 H 2.847 V -13.45 H 0 Z"
           style="fill:#aa6d2b;fill-opacity:1;fill-rule:nonzero;stroke:none"
           id="path494" /></g><g
         id="g496"
         transform="translate(671.61099,349.4796)"><path
           d="m 0,0 c 0.795,0 1.526,0.149 2.191,0.448 0.666,0.3 1.237,0.702 1.71,1.208 0.475,0.506 0.846,1.104 1.114,1.794 0.267,0.691 0.402,1.426 0.402,2.208 v 0.046 c 0,0.782 -0.135,1.522 -0.402,2.22 C 4.747,8.621 4.372,9.227 3.891,9.74 3.408,10.254 2.83,10.664 2.157,10.971 c -0.674,0.306 -1.408,0.46 -2.203,0.46 -0.796,0 -1.526,-0.15 -2.192,-0.449 C -2.904,10.684 -3.474,10.277 -3.948,9.764 -4.423,9.25 -4.794,8.648 -5.062,7.958 -5.329,7.268 -5.463,6.532 -5.463,5.75 V 5.704 c 0,-0.782 0.134,-1.517 0.401,-2.208 0.268,-0.69 0.643,-1.295 1.125,-1.816 0.482,-0.522 1.06,-0.932 1.733,-1.232 C -1.53,0.149 -0.796,0 0,0 m -0.046,-2.616 c -1.239,0 -2.372,0.218 -3.397,0.654 -1.026,0.436 -1.906,1.028 -2.64,1.778 -0.734,0.75 -1.309,1.626 -1.722,2.629 -0.413,1.002 -0.619,2.07 -0.619,3.201 v 0.046 c 0,1.133 0.206,2.201 0.619,3.203 0.413,1.001 0.995,1.882 1.745,2.639 0.749,0.758 1.637,1.359 2.663,1.802 1.025,0.444 2.158,0.666 3.397,0.666 1.239,0 2.371,-0.218 3.396,-0.654 1.026,-0.437 1.906,-1.03 2.64,-1.78 C 6.771,10.819 7.345,9.942 7.758,8.94 8.171,7.938 8.378,6.871 8.378,5.738 V 5.692 C 8.378,4.561 8.171,3.493 7.758,2.491 7.345,1.488 6.763,0.608 6.014,-0.148 5.264,-0.906 4.376,-1.507 3.351,-1.95 2.325,-2.395 1.193,-2.616 -0.046,-2.616"
           style="fill:#aa6d2b;fill-opacity:1;fill-rule:nonzero;stroke:none"
           id="path498" /></g><g
         id="g500"
         transform="translate(688.91769,346.9093)"><path
           d="M 0,0 C -1.239,0 -2.426,0.211 -3.558,0.631 -4.69,1.052 -5.738,1.698 -6.702,2.57 l 1.698,2.021 c 0.78,-0.674 1.572,-1.191 2.376,-1.55 0.803,-0.359 1.702,-0.539 2.696,-0.539 0.873,0 1.565,0.187 2.078,0.562 0.512,0.375 0.769,0.861 0.769,1.457 v 0.046 c 0,0.291 -0.05,0.547 -0.149,0.77 C 2.666,5.559 2.482,5.769 2.215,5.968 1.947,6.166 1.58,6.351 1.113,6.519 0.646,6.687 0.038,6.855 -0.712,7.023 c -0.856,0.2 -1.618,0.425 -2.283,0.678 -0.666,0.252 -1.225,0.558 -1.676,0.918 -0.452,0.36 -0.796,0.799 -1.033,1.319 -0.237,0.521 -0.356,1.148 -0.356,1.883 v 0.046 c 0,0.689 0.138,1.32 0.414,1.894 0.275,0.573 0.654,1.063 1.135,1.468 0.483,0.406 1.06,0.723 1.734,0.953 0.673,0.229 1.407,0.344 2.203,0.344 1.178,0 2.238,-0.172 3.179,-0.516 0.941,-0.344 1.825,-0.846 2.651,-1.503 L 3.741,12.372 c -0.734,0.535 -1.462,0.944 -2.18,1.228 -0.72,0.283 -1.447,0.424 -2.181,0.424 -0.826,0 -1.469,-0.183 -1.928,-0.55 -0.459,-0.368 -0.688,-0.82 -0.688,-1.355 v -0.046 c 0,-0.306 0.053,-0.578 0.16,-0.814 0.107,-0.238 0.306,-0.452 0.597,-0.643 0.291,-0.192 0.68,-0.372 1.17,-0.54 C -0.819,9.908 -0.184,9.732 0.597,9.549 1.438,9.334 2.181,9.097 2.823,8.837 3.466,8.576 4.005,8.259 4.441,7.885 4.877,7.509 5.202,7.073 5.417,6.576 5.631,6.079 5.738,5.501 5.738,4.843 V 4.797 C 5.738,4.047 5.597,3.374 5.313,2.777 5.03,2.181 4.637,1.676 4.132,1.263 3.627,0.85 3.021,0.535 2.318,0.321 1.614,0.107 0.841,0 0,0"
           style="fill:#aa6d2b;fill-opacity:1;fill-rule:nonzero;stroke:none"
           id="path502" /></g><g
         id="g504"
         transform="translate(704.86979,363.2062)"><path
           d="M 0,0 H 2.823 V -6.68 H 10.49 V 0 h 2.823 V -16.067 H 10.49 v 6.771 H 2.823 v -6.771 H 0 Z"
           style="fill:#aa6d2b;fill-opacity:1;fill-rule:nonzero;stroke:none"
           id="path506" /></g><g
         id="g508"
         transform="translate(728.90209,346.8859)"><path
           d="M 0,0 C -1.041,0 -1.981,0.149 -2.823,0.448 -3.665,0.746 -4.384,1.194 -4.98,1.791 -5.577,2.388 -6.037,3.126 -6.358,4.006 -6.68,4.886 -6.84,5.907 -6.84,7.07 v 9.25 h 2.823 V 7.185 c 0,-1.5 0.36,-2.636 1.079,-3.409 0.719,-0.773 1.713,-1.159 2.984,-1.159 1.255,0 2.241,0.371 2.961,1.113 0.719,0.743 1.079,1.856 1.079,3.34 v 9.25 H 6.909 V 7.208 C 6.909,6.015 6.744,4.966 6.415,4.063 6.086,3.16 5.624,2.406 5.026,1.803 4.43,1.197 3.707,0.746 2.857,0.448 2.009,0.149 1.056,0 0,0"
           style="fill:#aa6d2b;fill-opacity:1;fill-rule:nonzero;stroke:none"
           id="path510" /></g><g
         id="g512"
         transform="translate(739.68919,363.2062)"><path
           d="M 0,0 H 3.007 L 7.896,-7.598 12.785,0 h 3.007 V -16.067 H 12.969 V -4.545 L 7.896,-12.119 H 7.805 L 2.777,-4.591 V -16.067 H 0 Z"
           style="fill:#aa6d2b;fill-opacity:1;fill-rule:nonzero;stroke:none"
           id="path514" /></g><g
         id="g516"
         transform="translate(769.34439,353.5197)"><path
           d="M 0,0 -2.777,6.427 -5.531,0 Z m -4.04,9.801 h 2.617 L 5.646,-6.381 H 2.663 l -1.63,3.879 h -7.597 l -1.653,-3.879 h -2.892 z"
           style="fill:#aa6d2b;fill-opacity:1;fill-rule:nonzero;stroke:none"
           id="path518" /></g><g
         id="g520"
         transform="translate(777.74479,363.2062)"><path
           d="m 0,0 h 2.617 l 8.608,-11.109 V 0 h 2.777 v -16.067 h -2.364 l -8.861,11.43 v -11.43 H 0 Z"
           style="fill:#aa6d2b;fill-opacity:1;fill-rule:nonzero;stroke:none"
           id="path522" /></g><g
         id="g524"
         transform="translate(803.59149,349.4796)"><path
           d="m 0,0 c 0.795,0 1.526,0.149 2.191,0.448 0.666,0.3 1.237,0.702 1.71,1.208 0.475,0.506 0.846,1.104 1.114,1.794 0.267,0.691 0.402,1.426 0.402,2.208 v 0.046 c 0,0.782 -0.135,1.522 -0.402,2.22 C 4.747,8.621 4.372,9.227 3.891,9.74 3.408,10.254 2.83,10.664 2.157,10.971 c -0.674,0.306 -1.408,0.46 -2.203,0.46 -0.796,0 -1.526,-0.15 -2.192,-0.449 C -2.904,10.684 -3.474,10.277 -3.948,9.764 -4.423,9.25 -4.794,8.648 -5.062,7.958 -5.329,7.268 -5.463,6.532 -5.463,5.75 V 5.704 c 0,-0.782 0.134,-1.517 0.401,-2.208 0.268,-0.69 0.643,-1.295 1.125,-1.816 0.482,-0.522 1.06,-0.932 1.733,-1.232 C -1.53,0.149 -0.796,0 0,0 m -0.046,-2.616 c -1.239,0 -2.372,0.218 -3.397,0.654 -1.026,0.436 -1.906,1.028 -2.64,1.778 -0.734,0.75 -1.309,1.626 -1.722,2.629 -0.413,1.002 -0.619,2.07 -0.619,3.201 v 0.046 c 0,1.133 0.206,2.201 0.619,3.203 0.413,1.001 0.995,1.882 1.745,2.639 0.749,0.758 1.637,1.359 2.663,1.802 1.025,0.444 2.158,0.666 3.397,0.666 1.239,0 2.371,-0.218 3.396,-0.654 1.026,-0.437 1.906,-1.03 2.64,-1.78 C 6.771,10.819 7.345,9.942 7.758,8.94 8.171,7.938 8.378,6.871 8.378,5.738 V 5.692 C 8.378,4.561 8.171,3.493 7.758,2.491 7.345,1.488 6.763,0.608 6.014,-0.148 5.264,-0.906 4.376,-1.507 3.351,-1.95 2.325,-2.395 1.193,-2.616 -0.046,-2.616"
           style="fill:#aa6d2b;fill-opacity:1;fill-rule:nonzero;stroke:none"
           id="path526" /></g><g
         id="g528"
         transform="translate(820.89819,346.9093)"><path
           d="M 0,0 C -1.239,0 -2.426,0.211 -3.558,0.631 -4.69,1.052 -5.738,1.698 -6.702,2.57 l 1.698,2.021 c 0.78,-0.674 1.572,-1.191 2.376,-1.55 0.803,-0.359 1.702,-0.539 2.696,-0.539 0.873,0 1.565,0.187 2.078,0.562 0.512,0.375 0.769,0.861 0.769,1.457 v 0.046 c 0,0.291 -0.05,0.547 -0.149,0.77 C 2.666,5.559 2.482,5.769 2.215,5.968 1.947,6.166 1.58,6.351 1.113,6.519 0.646,6.687 0.038,6.855 -0.712,7.023 c -0.856,0.2 -1.618,0.425 -2.283,0.678 -0.666,0.252 -1.225,0.558 -1.676,0.918 -0.452,0.36 -0.796,0.799 -1.033,1.319 -0.237,0.521 -0.356,1.148 -0.356,1.883 v 0.046 c 0,0.689 0.138,1.32 0.414,1.894 0.275,0.573 0.654,1.063 1.135,1.468 0.483,0.406 1.06,0.723 1.734,0.953 0.673,0.229 1.407,0.344 2.203,0.344 1.178,0 2.238,-0.172 3.179,-0.516 0.941,-0.344 1.825,-0.846 2.651,-1.503 L 3.741,12.372 c -0.734,0.535 -1.462,0.944 -2.18,1.228 -0.72,0.283 -1.447,0.424 -2.181,0.424 -0.826,0 -1.469,-0.183 -1.928,-0.55 -0.459,-0.368 -0.688,-0.82 -0.688,-1.355 v -0.046 c 0,-0.306 0.053,-0.578 0.16,-0.814 0.107,-0.238 0.306,-0.452 0.597,-0.643 0.291,-0.192 0.68,-0.372 1.17,-0.54 C -0.819,9.908 -0.184,9.732 0.597,9.549 1.438,9.334 2.181,9.097 2.823,8.837 3.466,8.576 4.005,8.259 4.441,7.885 4.877,7.509 5.202,7.073 5.417,6.576 5.631,6.079 5.738,5.501 5.738,4.843 V 4.797 C 5.738,4.047 5.597,3.374 5.313,2.777 5.03,2.181 4.637,1.676 4.132,1.263 3.627,0.85 3.021,0.535 2.318,0.321 1.614,0.107 0.841,0 0,0"
           style="fill:#aa6d2b;fill-opacity:1;fill-rule:nonzero;stroke:none"
           id="path530" /></g></g></g></svg>
