<?xml version="1.0" encoding="UTF-8" standalone="no"?>
<svg
   xmlns:dc="http://purl.org/dc/elements/1.1/"
   xmlns:cc="http://creativecommons.org/ns#"
   xmlns:rdf="http://www.w3.org/1999/02/22-rdf-syntax-ns#"
   xmlns:svg="http://www.w3.org/2000/svg"
   xmlns="http://www.w3.org/2000/svg"
   xmlns:sodipodi="http://sodipodi.sourceforge.net/DTD/sodipodi-0.dtd"
   xmlns:inkscape="http://www.inkscape.org/namespaces/inkscape"
   width="210mm"
   height="297mm"
   viewBox="0 0 210 297"
   version="1.1"
   id="svg5613"
   inkscape:export-filename="C:\Users\jocat\Documents\CODE\EDUC\pmac-educ-icon.png"
   inkscape:export-xdpi="96"
   inkscape:export-ydpi="96"
   inkscape:version="1.0.1 (3bc2e813f5, 2020-09-07)"
   sodipodi:docname="pmac-educ-icon.svg">
  <defs
     id="defs5607" />
  <sodipodi:namedview
     id="base"
     pagecolor="#ffffff"
     bordercolor="#666666"
     borderopacity="1.0"
     inkscape:pageopacity="0.0"
     inkscape:pageshadow="2"
     inkscape:zoom="0.35"
     inkscape:cx="400"
     inkscape:cy="560"
     inkscape:document-units="mm"
     inkscape:current-layer="layer1"
     inkscape:document-rotation="0"
     showgrid="false"
     inkscape:window-width="1366"
     inkscape:window-height="768"
     inkscape:window-x="0"
     inkscape:window-y="769"
     inkscape:window-maximized="0" />
  <metadata
     id="metadata5610">
    <rdf:RDF>
      <cc:Work
         rdf:about="">
        <dc:format>image/svg+xml</dc:format>
        <dc:type
           rdf:resource="http://purl.org/dc/dcmitype/StillImage" />
        <dc:title></dc:title>
      </cc:Work>
    </rdf:RDF>
  </metadata>
  <g
     inkscape:label="Layer 1"
     inkscape:groupmode="layer"
     id="layer1">
    <g
       id="g6394"
       transform="translate(-2.3452405,7.8928532)">
      <g
         id="g2202"
         transform="matrix(1.91425,0,0,-1.91425,170.38945,242.58668)">
        <path
           d="m 0,0 c -5.81,-2.488 -11.298,-4.837 -18.41,-4.837 -7.112,0 -12.6,2.349 -18.411,4.837 -5.835,2.498 -11.868,5.082 -19.6,5.082 -7.732,0 -13.766,-2.584 -19.6,-5.082 -1.184,-0.507 -2.354,-1.001 -3.527,-1.478 v -3.254 c 1.604,0.625 3.169,1.29 4.716,1.952 5.811,2.488 11.299,4.838 18.411,4.838 7.112,0 12.599,-2.35 18.41,-4.838 5.835,-2.498 11.869,-5.081 19.601,-5.081 7.732,0 13.765,2.583 19.6,5.081 3.475,1.488 6.873,2.859 10.534,3.775 V 4.088 C 7.502,3.115 3.685,1.578 0,0"
           style="fill:#6d6e71;fill-opacity:1;fill-rule:nonzero;stroke:none"
           id="path2204" />
      </g>
      <g
         id="g2206"
         transform="matrix(1.91425,0,0,-1.91425,170.38945,209.24621)">
        <path
           d="m 0,0 c -5.81,-2.488 -11.298,-4.838 -18.41,-4.838 -7.112,0 -12.6,2.35 -18.411,4.838 -5.835,2.498 -11.868,5.081 -19.6,5.081 -7.732,0 -13.766,-2.583 -19.6,-5.081 -1.184,-0.507 -2.354,-1.001 -3.527,-1.478 v -3.254 c 1.604,0.625 3.169,1.29 4.716,1.952 5.811,2.488 11.299,4.838 18.411,4.838 7.112,0 12.599,-2.35 18.41,-4.838 5.835,-2.498 11.869,-5.082 19.601,-5.082 7.732,0 13.765,2.584 19.6,5.082 3.475,1.488 6.873,2.859 10.534,3.775 V 4.088 C 7.502,3.115 3.685,1.577 0,0"
           style="fill:#6d6e71;fill-opacity:1;fill-rule:nonzero;stroke:none"
           id="path2208" />
      </g>
      <g
         id="g2210"
         transform="matrix(1.91425,0,0,-1.91425,170.38945,175.90664)">
        <path
           d="m 0,0 c -5.81,-2.487 -11.298,-4.837 -18.41,-4.837 -7.112,0 -12.6,2.35 -18.411,4.837 -5.835,2.499 -11.868,5.082 -19.6,5.082 -7.732,0 -13.766,-2.583 -19.6,-5.082 -1.184,-0.506 -2.354,-1.001 -3.527,-1.477 v -3.254 c 1.604,0.624 3.169,1.289 4.716,1.952 5.811,2.487 11.299,4.837 18.411,4.837 7.112,0 12.599,-2.35 18.41,-4.837 5.835,-2.499 11.869,-5.081 19.601,-5.081 7.732,0 13.765,2.582 19.6,5.081 3.475,1.487 6.873,2.858 10.534,3.775 V 4.089 C 7.502,3.115 3.685,1.579 0,0"
           style="fill:#009a74;fill-opacity:1;fill-rule:nonzero;stroke:none"
           id="path2212" />
      </g>
      <g
         id="g2446"
         transform="matrix(1.91425,0,0,-1.91425,196.57579,143.26448)">
        <path
           d="M 0,0 C -0.007,-0.001 -0.014,-0.002 -0.021,-0.002 L -0.01,0.001 Z"
           style="fill:#183041;fill-opacity:1;fill-rule:nonzero;stroke:none"
           id="path2448" />
      </g>
      <g
         id="g2450"
         transform="matrix(1.91425,0,0,-1.91425,108.86599,114.74139)">
        <path
           d="m 0,0 c 0,-2.443 1.988,-4.431 4.431,-4.431 h 39.432 v 5.213 c 0,0.877 -0.71,1.587 -1.587,1.587 H 9.347 l 27.784,9.951 c 0.841,0.249 1.32,1.133 1.071,1.973 -0.249,0.841 -1.132,1.32 -1.973,1.071 L 7.656,5.179 30.835,21.393 c 0.724,0.495 0.909,1.482 0.415,2.207 -0.495,0.723 -1.483,0.909 -2.207,0.414 L 0,3.79 Z"
           style="fill:#de2027;fill-opacity:1;fill-rule:nonzero;stroke:none"
           id="path2452" />
      </g>
      <g
         id="g2454"
         transform="matrix(1.91425,0,0,-1.91425,102.0802,107.48619)">
        <path
           d="m 0,0 -29.043,20.224 c -0.724,0.495 -1.712,0.309 -2.207,-0.414 -0.494,-0.725 -0.309,-1.712 0.415,-2.207 L -7.656,1.389 -36.229,11.574 c -0.841,0.249 -1.724,-0.23 -1.973,-1.071 -0.249,-0.84 0.23,-1.724 1.071,-1.973 l 27.784,-9.951 h -32.929 c -0.877,0 -1.587,-0.71 -1.587,-1.587 V -8.221 H -4.431 C -1.988,-8.221 0,-6.233 0,-3.79 Z"
           style="fill:#de2027;fill-opacity:1;fill-rule:nonzero;stroke:none"
           id="path2456" />
      </g>
      <g
         id="g2458"
         transform="matrix(1.91425,0,0,-1.91425,152.17689,46.327448)">
        <path
           d="m 0,0 c -12.428,15.833 -36.348,15.856 -48.793,0 -0.826,-1.052 -0.063,-2.582 1.254,-2.582 0.473,0 0.942,0.21 1.257,0.611 11.146,14.21 32.614,14.224 43.77,0 0.545,-0.693 1.548,-0.814 2.241,-0.269 C 0.423,-1.697 0.543,-0.693 0,0 m -42.298,-4.776 c -0.842,-1.049 -0.08,-2.594 1.244,-2.594 0.468,0 0.93,0.204 1.245,0.597 7.886,9.83 22.793,9.849 30.721,0.127 0.558,-0.683 1.563,-0.785 2.245,-0.228 0.684,0.557 0.785,1.562 0.229,2.246 -9.244,11.329 -26.528,11.268 -35.684,-0.148 m 7.723,-4.145 c -0.622,-0.623 -0.622,-1.634 0.001,-2.258 0.622,-0.623 1.633,-0.623 2.256,0 4.378,4.378 11.464,4.378 15.842,0 0.311,-0.311 0.72,-0.467 1.128,-0.467 1.408,0 2.137,1.716 1.129,2.725 -5.627,5.625 -14.729,5.625 -20.356,0 m 15.329,-10.178 c 0,-4.536 -5.528,-6.906 -8.793,-3.642 -3.258,3.255 -0.904,8.793 3.642,8.793 2.847,0 5.151,-2.303 5.151,-5.151"
           style="fill:#009a74;fill-opacity:1;fill-rule:nonzero;stroke:none"
           id="path2460" />
      </g>
    </g>
  </g>
</svg>
