<?xml version="1.0" encoding="UTF-8" standalone="no"?>
<svg
   xmlns:dc="http://purl.org/dc/elements/1.1/"
   xmlns:cc="http://creativecommons.org/ns#"
   xmlns:rdf="http://www.w3.org/1999/02/22-rdf-syntax-ns#"
   xmlns:svg="http://www.w3.org/2000/svg"
   xmlns="http://www.w3.org/2000/svg"
   xmlns:sodipodi="http://sodipodi.sourceforge.net/DTD/sodipodi-0.dtd"
   xmlns:inkscape="http://www.inkscape.org/namespaces/inkscape"
   version="1.1"
   id="svg2"
   xml:space="preserve"
   width="1000"
   height="400"
   viewBox="0 0 1000 400"
   sodipodi:docname="logo-educ.svg"
   inkscape:export-filename="C:\Users\jocat\Documents\CODE\EDUC\logo-educ.png"
   inkscape:export-xdpi="96"
   inkscape:export-ydpi="96"
   inkscape:version="1.0.1 (3bc2e813f5, 2020-09-07)"><metadata
     id="metadata8"><rdf:RDF><cc:Work
         rdf:about=""><dc:format>image/svg+xml</dc:format><dc:type
           rdf:resource="http://purl.org/dc/dcmitype/StillImage" /><dc:title></dc:title></cc:Work></rdf:RDF></metadata><defs
     id="defs6"><clipPath
       clipPathUnits="userSpaceOnUse"
       id="clipPath18"><path
         d="m 1993.68,140.404 c -36.77,-18.016 -73.084,-28.266 -109.044,-28.266 v 0 c -34.013,0 -67.71,9.178 -101.134,29.634 v 0 c -8.988,5.504 -17.991,10.998 -27.004,16.448 v 0 C 1702.305,126.514 1653.682,94.769 1588.722,70.989 v 0 c -21.355,-5.685 -42.407,-8.182 -63.14,-8.182 v 0 c -108.627,0 -208.706,68.5 -300.249,105.735 v 0 c -10.098,3.696 -23.057,5.889 -37.05,5.889 v 0 c -19.578,10e-4 -41.185,-4.29 -59.855,-14.758 v 0 C 1039.811,109.981 946.922,49.394 844.176,49.394 v 0 c -11.954,0 -24.036,0.82 -36.264,2.571 v 0 C 745.879,25.242 681.163,7.369 610.623,7.369 v 0 c -39.382,0 -80.612,5.577 -124.172,18.292 v 0 C 393.723,52.727 317.58,103.06 229.883,137.183 v 0 c -13.502,5.255 -27.266,10.102 -41.261,14.543 v 0 c -17.352,-6.505 -35.06,-12.886 -53.458,-18.658 v 0 C 94.21,121.075 47.719,117.195 0,116.537 v 0 V 0 h 2147.778 v 165.753 c -19.584,5.814 -38.854,12.714 -58.019,19.681 v 0 c -32.812,-13.55 -64.217,-29.419 -96.079,-45.03"
         id="path16" /></clipPath><linearGradient
       x1="0"
       y1="0"
       x2="1"
       y2="0"
       gradientUnits="userSpaceOnUse"
       gradientTransform="matrix(1381.9891,1381.9891,-1381.9891,1381.9891,481.04764,-534.57227)"
       spreadMethod="pad"
       id="linearGradient36"><stop
         style="stop-opacity:1;stop-color:#009974"
         offset="0"
         id="stop24" /><stop
         style="stop-opacity:1;stop-color:#64bca4"
         offset="0.223217"
         id="stop26" /><stop
         style="stop-opacity:1;stop-color:#c3e5d7"
         offset="0.49405"
         id="stop28" /><stop
         style="stop-opacity:1;stop-color:#dc9876"
         offset="0.735196"
         id="stop30" /><stop
         style="stop-opacity:1;stop-color:#ed1c24"
         offset="0.907392"
         id="stop32" /><stop
         style="stop-opacity:1;stop-color:#ed1c24"
         offset="1"
         id="stop34" /></linearGradient><clipPath
       clipPathUnits="userSpaceOnUse"
       id="clipPath46"><path
         d="M 0,731.273 V 186.322 C 64.924,182.26 128.84,170.7 188.622,151.726 v 0 c 62.617,23.475 120.519,48.548 188.801,52.289 v 0 c 4.899,0.269 9.8,0.398 14.717,0.398 v 0 C 530.822,204.409 675.188,100.715 740.812,70.989 v 0 c 22.854,-9.759 45.207,-15.886 67.1,-19.024 v 0 c 178.917,77.076 335.492,227.809 545.172,235.872 v 0 c 7.412,0.285 14.759,0.425 22.004,0.425 v 0 c 152.564,0 268.583,-61.831 381.41,-130.042 v 0 c 26.649,15.592 54.653,31.177 86.598,45.795 v 0 c 31.528,13.849 61.408,19.288 90.293,19.288 v 0 c 54.236,0 104.947,-19.179 156.37,-37.869 v 0 c 18.764,7.749 37.988,14.739 58.019,20.49 v 0 525.349 z"
         id="path44" /></clipPath><linearGradient
       x1="0"
       y1="0"
       x2="1"
       y2="0"
       gradientUnits="userSpaceOnUse"
       gradientTransform="matrix(0,-723.90356,723.90356,0,1073.8892,731.27399)"
       spreadMethod="pad"
       id="linearGradient58"><stop
         style="stop-opacity:1;stop-color:#ffffff"
         offset="0"
         id="stop52" /><stop
         style="stop-opacity:1;stop-color:#e0e1e2"
         offset="0.986178"
         id="stop54" /><stop
         style="stop-opacity:1;stop-color:#e0e1e2"
         offset="1"
         id="stop56" /></linearGradient><clipPath
       clipPathUnits="userSpaceOnUse"
       id="clipPath68"><path
         d="M 403.084,188.059 V 56.84 c 26.734,-11.874 54.231,-22.675 83.367,-31.179 v 0 C 530.011,12.946 571.241,7.369 610.623,7.369 v 0 c 2.992,0 5.969,0.032 8.941,0.096 v 0 128.584 c -38.071,19.577 -80.606,38.923 -124.722,52.01 v 0 z"
         id="path66" /></clipPath><clipPath
       clipPathUnits="userSpaceOnUse"
       id="clipPath82"><path
         d="M 618.124,116.059 V 7.437 c 37.993,0.681 74.3,6.514 109.44,16.064 v 0 53.907 c -19.186,9.776 -43.149,23.642 -70.501,38.651 v 0 z"
         id="path80" /></clipPath><clipPath
       clipPathUnits="userSpaceOnUse"
       id="clipPath96"><path
         d="m 726.124,23.112 c 24.849,6.675 49.117,15.219 72.96,25.118 v 0 5.16 c -19.066,3.421 -38.481,9.148 -58.272,17.599 v 0 c -4.53,2.052 -9.436,4.457 -14.688,7.156 v 0 z"
         id="path94" /></clipPath><clipPath
       clipPathUnits="userSpaceOnUse"
       id="clipPath110"><path
         d="m 377.423,204.015 c -15.778,-0.865 -31.003,-2.869 -45.859,-5.728 v 0 -107.399 c 24.111,-11.851 48.205,-23.738 72.96,-34.686 v 0 147.941 c -4.13,0.178 -8.262,0.27 -12.384,0.27 v 0 c -4.917,0 -9.818,-0.129 -14.717,-0.398"
         id="path108" /></clipPath><clipPath
       clipPathUnits="userSpaceOnUse"
       id="clipPath124"><path
         d="m 797.644,47.634 c 3.432,1.417 6.853,2.86 10.268,4.331 v 0 c -3.411,0.489 -6.834,1.051 -10.268,1.687 v 0 z"
         id="path122" /></clipPath><clipPath
       clipPathUnits="userSpaceOnUse"
       id="clipPath138"><path
         d="m 259.564,178.191 v -53.294 c 24.958,-10.902 49.203,-22.802 73.44,-34.716 v 0 108.38 c -25.253,-4.759 -49.432,-12.01 -73.44,-20.37"
         id="path136" /></clipPath><clipPath
       clipPathUnits="userSpaceOnUse"
       id="clipPath152"><path
         d="m 1843.096,204.015 c -1.776,-0.813 -3.54,-1.629 -5.292,-2.448 v 0 -83.374 c 15.545,-4.105 31.156,-6.055 46.832,-6.055 v 0 c 20.588,0 41.288,3.359 62.127,9.612 v 0 101.171 c -4.436,0.251 -8.892,0.382 -13.374,0.382 v 0 c -28.885,0 -58.765,-5.439 -90.293,-19.288"
         id="path150" /></clipPath><clipPath
       clipPathUnits="userSpaceOnUse"
       id="clipPath166"><path
         d="m 188.622,151.726 c 13.995,-4.441 27.759,-9.288 41.261,-14.543 v 0 c 10.524,-4.094 20.882,-8.423 31.121,-12.916 v 0 54.424 c -24.008,-8.313 -47.834,-17.762 -72.382,-26.965"
         id="path164" /></clipPath><clipPath
       clipPathUnits="userSpaceOnUse"
       id="clipPath180"><path
         d="m 618.124,114.619 h 41.559 c -13.106,7.213 -27.012,14.714 -41.559,22.17 v 0 z"
         id="path178" /></clipPath><clipPath
       clipPathUnits="userSpaceOnUse"
       id="clipPath194"><path
         d="m 1810.322,188.059 c -15.379,-7.927 -29.936,-16.024 -44.039,-24.154 v 0 -11.62 c 5.745,-3.494 11.485,-7.002 17.219,-10.513 v 0 c 18.495,-11.319 37.072,-19.185 55.742,-23.953 v 0 70.24 z"
         id="path192" /></clipPath><clipPath
       clipPathUnits="userSpaceOnUse"
       id="clipPath208"><path
         d="m 1945.323,121.323 c 16.035,4.71 32.153,11.142 48.357,19.081 v 0 c 8.382,4.106 16.731,8.23 25.083,12.326 v 0 56.913 c -24.07,6.974 -48.404,12.088 -73.44,13.355 v 0 z"
         id="path206" /></clipPath><clipPath
       clipPathUnits="userSpaceOnUse"
       id="clipPath222"><path
         d="m 1756.498,158.22 c 3.743,-2.263 7.486,-4.535 11.225,-6.811 v 0 13.325 c -3.773,-2.169 -7.512,-4.341 -11.225,-6.514"
         id="path220" /></clipPath><clipPath
       clipPathUnits="userSpaceOnUse"
       id="clipPath236"><path
         d="m 2017.323,152.024 c 23.878,11.717 47.759,23.219 72.436,33.41 v 0 c -24.155,8.78 -48.156,17.668 -72.436,24.624 v 0 z"
         id="path234" /></clipPath><clipPath
       clipPathUnits="userSpaceOnUse"
       id="clipPath250"><path
         d="m 403.084,186.619 h 96.525 c -31.65,9.732 -64.186,16.34 -96.525,17.582 v 0 z"
         id="path248" /></clipPath><clipPath
       clipPathUnits="userSpaceOnUse"
       id="clipPath264"><path
         d="m 1807.541,186.619 h 31.703 v 15.619 c -10.995,-5.108 -21.527,-10.328 -31.703,-15.619"
         id="path262" /></clipPath><clipPath
       clipPathUnits="userSpaceOnUse"
       id="clipPath278"><path
         d="M 0,931.271 H 2147.778 V 0 H 0 Z"
         id="path276" /></clipPath></defs><sodipodi:namedview
     pagecolor="#ffffff"
     bordercolor="#666666"
     borderopacity="1"
     objecttolerance="10"
     gridtolerance="10"
     guidetolerance="10"
     inkscape:pageopacity="0"
     inkscape:pageshadow="2"
     inkscape:window-width="1600"
     inkscape:window-height="837"
     id="namedview4"
     showgrid="false"
     inkscape:zoom="0.70075926"
     inkscape:cx="486.36952"
     inkscape:cy="279.86032"
     inkscape:window-x="-8"
     inkscape:window-y="760"
     inkscape:window-maximized="1"
     inkscape:current-layer="g10" /><g
     id="g10"
     inkscape:groupmode="layer"
     inkscape:label="PMAC-Secretarias"
     transform="matrix(1.3333333,0,0,-1.3333333,0,1241.6947)"><g
       id="g5605"
       transform="matrix(1.3808251,0,0,1.3808251,-474.98503,55.080497)"><g
         id="g2202"
         transform="translate(437.0943,453.6108)"><path
           d="m 0,0 c -5.81,-2.488 -11.298,-4.837 -18.41,-4.837 -7.112,0 -12.6,2.349 -18.411,4.837 -5.835,2.498 -11.868,5.082 -19.6,5.082 -7.732,0 -13.766,-2.584 -19.6,-5.082 -1.184,-0.507 -2.354,-1.001 -3.527,-1.478 v -3.254 c 1.604,0.625 3.169,1.29 4.716,1.952 5.811,2.488 11.299,4.838 18.411,4.838 7.112,0 12.599,-2.35 18.41,-4.838 5.835,-2.498 11.869,-5.081 19.601,-5.081 7.732,0 13.765,2.583 19.6,5.081 3.475,1.488 6.873,2.859 10.534,3.775 V 4.088 C 7.502,3.115 3.685,1.578 0,0"
           style="fill:#6d6e71;fill-opacity:1;fill-rule:nonzero;stroke:none"
           id="path2204" /></g><g
         id="g2206"
         transform="translate(437.0943,471.0278)"><path
           d="m 0,0 c -5.81,-2.488 -11.298,-4.838 -18.41,-4.838 -7.112,0 -12.6,2.35 -18.411,4.838 -5.835,2.498 -11.868,5.081 -19.6,5.081 -7.732,0 -13.766,-2.583 -19.6,-5.081 -1.184,-0.507 -2.354,-1.001 -3.527,-1.478 v -3.254 c 1.604,0.625 3.169,1.29 4.716,1.952 5.811,2.488 11.299,4.838 18.411,4.838 7.112,0 12.599,-2.35 18.41,-4.838 5.835,-2.498 11.869,-5.082 19.601,-5.082 7.732,0 13.765,2.584 19.6,5.082 3.475,1.488 6.873,2.859 10.534,3.775 V 4.088 C 7.502,3.115 3.685,1.577 0,0"
           style="fill:#6d6e71;fill-opacity:1;fill-rule:nonzero;stroke:none"
           id="path2208" /></g><g
         id="g2210"
         transform="translate(437.0943,488.4443)"><path
           d="m 0,0 c -5.81,-2.487 -11.298,-4.837 -18.41,-4.837 -7.112,0 -12.6,2.35 -18.411,4.837 -5.835,2.499 -11.868,5.082 -19.6,5.082 -7.732,0 -13.766,-2.583 -19.6,-5.082 -1.184,-0.506 -2.354,-1.001 -3.527,-1.477 v -3.254 c 1.604,0.624 3.169,1.289 4.716,1.952 5.811,2.487 11.299,4.837 18.411,4.837 7.112,0 12.599,-2.35 18.41,-4.837 5.835,-2.499 11.869,-5.081 19.601,-5.081 7.732,0 13.765,2.582 19.6,5.081 3.475,1.487 6.873,2.858 10.534,3.775 V 4.089 C 7.502,3.115 3.685,1.579 0,0"
           style="fill:#009a74;fill-opacity:1;fill-rule:nonzero;stroke:none"
           id="path2212" /></g><g
         id="g2214"
         transform="translate(367.7007,584.1889)"><path
           d="m 0,0 c -1.637,0 -3.203,0.278 -4.698,0.833 -1.495,0.556 -2.879,1.41 -4.152,2.562 l 2.243,2.667 c 1.03,-0.89 2.076,-1.572 3.136,-2.046 1.061,-0.475 2.248,-0.712 3.562,-0.712 1.151,0 2.065,0.247 2.743,0.742 0.676,0.495 1.015,1.137 1.015,1.925 v 0.06 C 3.849,6.415 3.783,6.753 3.652,7.046 3.521,7.339 3.278,7.617 2.925,7.88 2.571,8.143 2.086,8.385 1.47,8.607 0.854,8.829 0.05,9.052 -0.939,9.274 c -1.132,0.262 -2.137,0.561 -3.016,0.894 -0.879,0.334 -1.617,0.737 -2.213,1.213 -0.596,0.474 -1.051,1.055 -1.364,1.742 -0.313,0.687 -0.469,1.516 -0.469,2.485 v 0.061 c 0,0.909 0.182,1.743 0.545,2.5 0.364,0.758 0.864,1.405 1.5,1.94 0.637,0.536 1.399,0.955 2.289,1.258 0.889,0.303 1.858,0.454 2.909,0.454 1.556,0 2.955,-0.227 4.197,-0.681 1.244,-0.455 2.411,-1.117 3.501,-1.986 l -2,-2.818 c -0.97,0.707 -1.93,1.247 -2.879,1.621 -0.95,0.374 -1.91,0.561 -2.879,0.561 -1.092,0 -1.94,-0.243 -2.546,-0.727 -0.607,-0.485 -0.909,-1.082 -0.909,-1.789 v -0.06 c 0,-0.405 0.07,-0.763 0.211,-1.076 0.142,-0.313 0.405,-0.596 0.789,-0.848 0.383,-0.253 0.898,-0.491 1.545,-0.713 0.647,-0.222 1.485,-0.454 2.516,-0.697 1.111,-0.283 2.091,-0.596 2.94,-0.94 C 4.576,11.325 5.289,10.905 5.864,10.411 6.44,9.915 6.869,9.34 7.152,8.683 7.436,8.026 7.577,7.264 7.577,6.395 V 6.334 C 7.577,5.344 7.39,4.455 7.016,3.667 6.642,2.879 6.122,2.212 5.455,1.667 4.789,1.121 3.99,0.707 3.061,0.424 2.131,0.142 1.111,0 0,0"
           style="fill:#6d6e71;fill-opacity:1;fill-rule:nonzero;stroke:none"
           id="path2216" /></g><g
         id="g2218"
         transform="translate(383.9156,605.7075)"><path
           d="M 0,0 H 15.729 V -3.334 H 3.728 V -8.85 h 10.638 v -3.334 H 3.728 v -5.698 h 12.153 v -3.334 H 0 Z"
           style="fill:#6d6e71;fill-opacity:1;fill-rule:nonzero;stroke:none"
           id="path2220" /></g><g
         id="g2222"
         transform="translate(418.315,584.1284)"><path
           d="m 0,0 c -1.556,0 -2.991,0.283 -4.304,0.849 -1.313,0.565 -2.45,1.338 -3.409,2.318 -0.96,0.979 -1.713,2.137 -2.259,3.47 -0.545,1.334 -0.818,2.759 -0.818,4.274 v 0.061 c 0,1.515 0.268,2.934 0.804,4.257 0.535,1.324 1.288,2.486 2.257,3.486 0.97,1 2.122,1.788 3.456,2.364 1.333,0.576 2.808,0.864 4.424,0.864 0.97,0 1.854,-0.081 2.653,-0.241 0.798,-0.16 1.53,-0.386 2.197,-0.676 C 5.667,20.735 6.284,20.391 6.85,19.99 7.415,19.589 7.951,19.148 8.456,18.669 L 6.062,15.912 c -0.849,0.787 -1.749,1.424 -2.698,1.909 -0.95,0.485 -2.031,0.727 -3.243,0.727 -1.011,0 -1.945,-0.197 -2.804,-0.592 -0.858,-0.395 -1.596,-0.932 -2.212,-1.61 -0.617,-0.678 -1.101,-1.472 -1.455,-2.384 -0.353,-0.911 -0.53,-1.883 -0.53,-2.915 v -0.061 c 0,-1.032 0.172,-2.009 0.515,-2.93 0.344,-0.921 0.829,-1.721 1.455,-2.4 0.626,-0.677 1.369,-1.214 2.227,-1.609 0.859,-0.395 1.793,-0.592 2.804,-0.592 1.293,0 2.404,0.242 3.334,0.728 0.929,0.484 1.849,1.151 2.758,2 L 8.607,3.758 C 8.062,3.172 7.491,2.652 6.895,2.197 6.299,1.742 5.657,1.349 4.971,1.015 4.283,0.682 3.531,0.429 2.712,0.258 1.895,0.086 0.99,0 0,0"
           style="fill:#6d6e71;fill-opacity:1;fill-rule:nonzero;stroke:none"
           id="path2224" /></g><g
         id="g2226"
         transform="translate(444.2583,595.1909)"><path
           d="M 0,0 C 1.333,0 2.395,0.318 3.182,0.954 3.97,1.591 4.364,2.455 4.364,3.546 v 0.06 C 4.364,4.758 3.98,5.632 3.213,6.228 2.444,6.824 1.364,7.122 -0.03,7.122 H -5.456 V 0 Z m -9.184,10.517 h 9.456 c 1.334,0 2.516,-0.187 3.546,-0.561 C 4.849,9.582 5.708,9.062 6.395,8.395 6.96,7.809 7.395,7.132 7.698,6.364 8.001,5.596 8.153,4.748 8.153,3.818 V 3.758 C 8.153,2.02 7.683,0.621 6.743,-0.439 5.804,-1.5 4.596,-2.243 3.122,-2.667 L 8.85,-10.699 H 4.425 l -5.213,7.395 h -4.668 v -7.395 h -3.728 z"
           style="fill:#6d6e71;fill-opacity:1;fill-rule:nonzero;stroke:none"
           id="path2228" /></g><g
         id="g2230"
         transform="translate(461.2305,605.7075)"><path
           d="M 0,0 H 15.73 V -3.334 H 3.728 V -8.85 h 10.638 v -3.334 H 3.728 v -5.698 h 12.153 v -3.334 H 0 Z"
           style="fill:#6d6e71;fill-opacity:1;fill-rule:nonzero;stroke:none"
           id="path2232" /></g><g
         id="g2234"
         transform="translate(490.9927,602.2524)"><path
           d="M 0,0 H -6.729 V 3.455 H 10.486 V 0 H 3.758 V -17.761 H 0 Z"
           style="fill:#6d6e71;fill-opacity:1;fill-rule:nonzero;stroke:none"
           id="path2236" /></g><g
         id="g2238"
         transform="translate(522.5132,592.9174)"><path
           d="M 0,0 -3.667,8.486 -7.305,0 Z m -5.334,12.941 h 3.455 L 7.456,-8.426 H 3.516 L 1.363,-3.304 H -8.668 l -2.183,-5.122 h -3.818 z"
           style="fill:#6d6e71;fill-opacity:1;fill-rule:nonzero;stroke:none"
           id="path2240" /></g><g
         id="g2242"
         transform="translate(547.0317,595.1909)"><path
           d="m 0,0 c 1.334,0 2.395,0.318 3.183,0.954 0.788,0.637 1.181,1.501 1.181,2.592 v 0.06 C 4.364,4.758 3.98,5.632 3.213,6.228 2.444,6.824 1.364,7.122 -0.03,7.122 H -5.455 V 0 Z m -9.183,10.517 h 9.456 c 1.333,0 2.516,-0.187 3.546,-0.561 C 4.85,9.582 5.708,9.062 6.395,8.395 6.96,7.809 7.396,7.132 7.698,6.364 8.001,5.596 8.153,4.748 8.153,3.818 V 3.758 C 8.153,2.02 7.683,0.621 6.744,-0.439 5.804,-1.5 4.597,-2.243 3.122,-2.667 L 8.85,-10.699 H 4.425 l -5.213,7.395 h -4.667 v -7.395 h -3.728 z"
           style="fill:#6d6e71;fill-opacity:1;fill-rule:nonzero;stroke:none"
           id="path2244" /></g><path
         d="m 564.216,605.707 h 3.728 v -21.216 h -3.728 z"
         style="fill:#6d6e71;fill-opacity:1;fill-rule:nonzero;stroke:none"
         id="path2246" /><g
         id="g2248"
         transform="translate(590.7051,592.9174)"><path
           d="M 0,0 -3.667,8.486 -7.304,0 Z m -5.334,12.941 h 3.455 L 7.456,-8.426 H 3.516 L 1.364,-3.304 H -8.668 l -2.182,-5.122 h -3.819 z"
           style="fill:#6d6e71;fill-opacity:1;fill-rule:nonzero;stroke:none"
           id="path2250" /></g><g
         id="g2252"
         transform="translate(623.1035,602.3129)"><path
           d="m 0,0 v -14.427 h 4.183 c 1.11,0 2.121,0.177 3.03,0.531 0.91,0.353 1.683,0.848 2.319,1.485 0.636,0.637 1.132,1.394 1.485,2.273 0.354,0.879 0.53,1.833 0.53,2.864 v 0.061 c 0,1.03 -0.176,1.989 -0.53,2.879 -0.353,0.889 -0.849,1.652 -1.485,2.288 C 8.896,-1.409 8.123,-0.909 7.213,-0.545 6.304,-0.182 5.293,0 4.183,0 Z m -3.728,3.395 h 7.911 c 1.656,0 3.177,-0.269 4.561,-0.804 1.383,-0.535 2.576,-1.278 3.576,-2.227 1,-0.95 1.773,-2.066 2.319,-3.349 0.545,-1.284 0.818,-2.673 0.818,-4.167 v -0.061 c 0,-1.496 -0.273,-2.89 -0.818,-4.183 -0.546,-1.293 -1.319,-2.415 -2.319,-3.364 -1,-0.95 -2.193,-1.697 -3.576,-2.243 -1.384,-0.545 -2.905,-0.818 -4.561,-0.818 h -7.911 z"
           style="fill:#6d6e71;fill-opacity:1;fill-rule:nonzero;stroke:none"
           id="path2254" /></g><g
         id="g2256"
         transform="translate(647.3198,605.7075)"><path
           d="M 0,0 H 15.729 V -3.334 H 3.728 V -8.85 h 10.638 v -3.334 H 3.728 v -5.698 h 12.153 v -3.334 H 0 Z"
           style="fill:#6d6e71;fill-opacity:1;fill-rule:nonzero;stroke:none"
           id="path2258" /></g><g
         id="g2260"
         transform="translate(472.1997,563.2778)"><path
           d="M 0,0 H 38.146 V -11.112 H 13.009 v -7.249 H 35.775 V -28.729 H 13.009 v -7.52 h 25.476 v -11.18 H 0 Z"
           style="fill:#009a74;fill-opacity:1;fill-rule:nonzero;stroke:none"
           id="path2262" /></g><g
         id="g2264"
         transform="translate(530.605,551.6918)"><path
           d="m 0,0 v -24.189 h 5.353 c 3.974,0 7.159,1.039 9.553,3.117 2.394,2.077 3.591,5.036 3.591,8.876 v 0.135 c 0,3.839 -1.197,6.81 -3.591,8.91 C 12.512,-1.05 9.327,0 5.353,0 Z M -13.145,11.586 H 5.217 c 4.201,0 7.961,-0.576 11.281,-1.728 3.32,-1.152 6.121,-2.767 8.402,-4.844 2.281,-2.078 4.02,-4.552 5.217,-7.419 1.196,-2.869 1.796,-6.02 1.796,-9.452 v -0.136 c 0,-3.433 -0.61,-6.606 -1.83,-9.52 -1.219,-2.913 -2.981,-5.431 -5.285,-7.554 -2.303,-2.124 -5.127,-3.784 -8.469,-4.98 -3.344,-1.198 -7.138,-1.796 -11.383,-1.796 h -18.091 z"
           style="fill:#009a74;fill-opacity:1;fill-rule:nonzero;stroke:none"
           id="path2266" /></g><g
         id="g2268"
         transform="translate(590.7036,514.9682)"><path
           d="m 0,0 c -3.344,0 -6.369,0.43 -9.079,1.287 -2.711,0.858 -5.014,2.179 -6.911,3.964 -1.898,1.784 -3.354,4.042 -4.37,6.775 -1.017,2.733 -1.525,5.952 -1.525,9.656 V 48.31 h 13.28 V 21.953 c 0,-3.433 0.79,-5.974 2.372,-7.623 1.58,-1.649 3.703,-2.473 6.368,-2.473 2.711,0 4.855,0.79 6.437,2.372 1.581,1.581 2.371,4.042 2.371,7.385 V 48.31 H 22.224 V 22.021 c 0,-3.794 -0.532,-7.081 -1.593,-9.859 C 19.569,9.384 18.079,7.091 16.159,5.285 14.239,3.478 11.913,2.145 9.181,1.287 6.447,0.43 3.388,0 0,0"
           style="fill:#009a74;fill-opacity:1;fill-rule:nonzero;stroke:none"
           id="path2270" /></g><g
         id="g2272"
         transform="translate(643.6196,514.9008)"><path
           d="m 0,0 c -3.388,0 -6.572,0.609 -9.553,1.829 -2.981,1.22 -5.568,2.924 -7.758,5.115 -2.192,2.191 -3.93,4.788 -5.217,7.792 -1.287,3.004 -1.931,6.268 -1.931,9.791 v 0.136 c 0,3.432 0.62,6.65 1.863,9.655 1.242,3.003 2.981,5.623 5.217,7.86 2.236,2.235 4.867,3.985 7.894,5.251 3.025,1.263 6.345,1.897 9.96,1.897 2.439,0 4.651,-0.238 6.64,-0.712 1.987,-0.474 3.804,-1.152 5.454,-2.032 1.648,-0.881 3.139,-1.921 4.472,-3.117 1.332,-1.197 2.518,-2.519 3.557,-3.964 L 10.706,31.845 C 9.351,33.516 7.86,34.86 6.234,35.876 4.607,36.893 2.643,37.4 0.339,37.4 c -1.672,0 -3.196,-0.328 -4.573,-0.982 -1.379,-0.655 -2.565,-1.558 -3.558,-2.71 -0.994,-1.152 -1.772,-2.496 -2.337,-4.031 -0.565,-1.536 -0.847,-3.163 -0.847,-4.879 v -0.135 c 0,-1.762 0.282,-3.422 0.847,-4.98 0.565,-1.559 1.343,-2.903 2.337,-4.032 0.993,-1.13 2.179,-2.022 3.558,-2.676 1.377,-0.656 2.901,-0.983 4.573,-0.983 1.22,0 2.338,0.136 3.354,0.407 1.016,0.271 1.942,0.665 2.778,1.186 0.836,0.519 1.626,1.128 2.372,1.829 0.745,0.7 1.478,1.479 2.201,2.337 l 9.893,-7.046 C 19.807,9.169 18.576,7.746 17.244,6.437 15.911,5.126 14.398,3.997 12.705,3.049 11.011,2.1 9.124,1.354 7.047,0.812 4.969,0.271 2.62,0 0,0"
           style="fill:#009a74;fill-opacity:1;fill-rule:nonzero;stroke:none"
           id="path2274" /></g><g
         id="g2276"
         transform="translate(698.1621,534.6176)"><path
           d="M 0,0 -5.285,13.415 -10.637,0 Z M -11.518,28.999 H 1.152 L 21.343,-18.769 H 7.25 l -3.388,8.538 H -14.5 l -3.387,-8.538 h -13.755 z"
           style="fill:#009a74;fill-opacity:1;fill-rule:nonzero;stroke:none"
           id="path2278" /></g><g
         id="g2280"
         transform="translate(735.4956,508.4638)"><path
           d="m 0,0 5.285,7.182 c -2.62,0.678 -5.048,1.728 -7.284,3.151 -2.236,1.422 -4.167,3.172 -5.793,5.25 -1.626,2.078 -2.892,4.416 -3.794,7.013 -0.904,2.597 -1.355,5.387 -1.355,8.368 V 31.1 c 0,3.432 0.62,6.65 1.863,9.655 1.242,3.003 2.981,5.623 5.217,7.86 2.236,2.235 4.867,3.985 7.893,5.251 3.026,1.263 6.346,1.897 9.96,1.897 2.44,0 4.653,-0.238 6.641,-0.712 1.987,-0.474 3.804,-1.152 5.454,-2.032 1.648,-0.881 3.139,-1.921 4.472,-3.117 1.332,-1.197 2.517,-2.519 3.557,-3.964 l -9.892,-7.656 c -1.356,1.671 -2.846,3.015 -4.472,4.031 -1.627,1.017 -3.591,1.524 -5.895,1.524 -1.671,0 -3.196,-0.328 -4.574,-0.982 C 5.905,42.2 4.719,41.297 3.727,40.145 2.732,38.993 1.953,37.649 1.389,36.114 0.823,34.578 0.542,32.951 0.542,31.235 V 31.1 c 0,-1.762 0.281,-3.422 0.847,-4.98 0.564,-1.559 1.343,-2.903 2.338,-4.032 0.992,-1.13 2.178,-2.022 3.556,-2.676 1.378,-0.656 2.903,-0.983 4.574,-0.983 1.22,0 2.337,0.136 3.354,0.407 1.016,0.271 1.941,0.665 2.778,1.186 0.835,0.519 1.626,1.128 2.371,1.829 0.745,0.7 1.479,1.479 2.202,2.337 l 9.893,-7.046 C 31.415,15.696 30.286,14.375 29.067,13.178 27.847,11.981 26.492,10.919 25.001,9.994 23.511,9.067 21.851,8.311 20.021,7.724 18.192,7.137 16.17,6.753 13.957,6.572 L 10.163,-4.336 Z"
           style="fill:#009a74;fill-opacity:1;fill-rule:nonzero;stroke:none"
           id="path2282" /></g><g
         id="g2284"
         transform="translate(801.1499,534.6176)"><path
           d="M 0,0 -5.285,13.415 -10.638,0 Z m 1.287,32.59 c -1.13,0 -2.281,0.158 -3.455,0.474 -1.176,0.316 -2.327,0.655 -3.456,1.017 -0.904,0.315 -1.717,0.586 -2.439,0.813 -0.723,0.225 -1.333,0.338 -1.83,0.338 -0.948,0 -1.671,-0.26 -2.168,-0.779 -0.497,-0.519 -0.971,-1.321 -1.422,-2.405 l -6.166,1.694 c 0.767,3.388 1.795,5.917 3.083,7.589 1.287,1.67 3.105,2.506 5.454,2.506 1.129,0 2.28,-0.169 3.456,-0.508 1.174,-0.339 2.303,-0.689 3.387,-1.05 0.903,-0.317 1.728,-0.576 2.473,-0.779 0.746,-0.203 1.366,-0.305 1.863,-0.305 0.949,0 1.661,0.259 2.135,0.779 0.474,0.519 0.937,1.298 1.389,2.338 L 9.757,42.618 C 9.033,39.23 8.017,36.711 6.708,35.063 5.397,33.414 3.591,32.59 1.287,32.59 M -11.519,28.999 H 1.151 L 21.343,-18.769 H 7.25 l -3.388,8.538 H -14.5 l -3.388,-8.538 h -13.754 z"
           style="fill:#009a74;fill-opacity:1;fill-rule:nonzero;stroke:none"
           id="path2286" /></g><g
         id="g2288"
         transform="translate(848.104,526.7578)"><path
           d="m 0,0 c 1.806,0 3.444,0.338 4.912,1.016 1.468,0.678 2.721,1.592 3.761,2.744 1.038,1.152 1.851,2.495 2.439,4.032 0.586,1.535 0.881,3.161 0.881,4.878 v 0.136 c 0,1.716 -0.295,3.354 -0.881,4.912 -0.588,1.558 -1.412,2.924 -2.473,4.099 -1.062,1.174 -2.338,2.1 -3.828,2.778 -1.491,0.678 -3.14,1.017 -4.947,1.017 -1.806,0 -3.455,-0.339 -4.946,-1.017 -1.49,-0.678 -2.755,-1.592 -3.794,-2.744 -1.04,-1.152 -1.853,-2.496 -2.439,-4.031 -0.587,-1.536 -0.881,-3.163 -0.881,-4.879 v -0.135 c 0,-1.718 0.294,-3.344 0.881,-4.879 0.586,-1.536 1.423,-2.891 2.507,-4.065 C -7.724,2.687 -6.437,1.75 -4.946,1.05 -3.455,0.349 -1.807,0 0,0 m -0.136,-11.857 c -3.658,0 -7.046,0.644 -10.163,1.931 -3.117,1.287 -5.805,3.037 -8.062,5.251 -2.26,2.213 -4.032,4.81 -5.32,7.792 -1.287,2.981 -1.93,6.166 -1.93,9.553 v 0.136 c 0,3.387 0.643,6.583 1.93,9.587 1.288,3.003 3.083,5.624 5.387,7.859 2.304,2.237 5.014,3.998 8.131,5.286 3.117,1.287 6.504,1.931 10.163,1.931 3.659,0 7.047,-0.644 10.163,-1.931 3.117,-1.288 5.804,-3.038 8.064,-5.251 2.257,-2.214 4.031,-4.811 5.318,-7.792 1.288,-2.982 1.931,-6.166 1.931,-9.554 v -0.135 c 0,-3.388 -0.643,-6.584 -1.931,-9.588 -1.287,-3.004 -3.083,-5.623 -5.387,-7.859 -2.304,-2.236 -5.013,-3.998 -8.13,-5.285 -3.117,-1.287 -6.505,-1.931 -10.164,-1.931"
           style="fill:#009a74;fill-opacity:1;fill-rule:nonzero;stroke:none"
           id="path2290" /></g><g
         id="g2292"
         transform="translate(479.6529,478.4394)"><path
           d="M 0,0 C -1.155,0 -2.22,0.21 -3.195,0.63 -4.17,1.05 -5.014,1.624 -5.726,2.351 -6.439,3.079 -6.998,3.938 -7.402,4.928 -7.808,5.917 -8.01,6.975 -8.01,8.1 v 0.045 c 0,1.125 0.199,2.179 0.596,3.161 0.397,0.983 0.956,1.845 1.677,2.588 0.719,0.742 1.574,1.327 2.565,1.755 0.989,0.427 2.085,0.641 3.285,0.641 0.72,0 1.376,-0.06 1.969,-0.179 0.592,-0.118 1.136,-0.286 1.63,-0.501 0.496,-0.216 0.953,-0.472 1.373,-0.77 0.42,-0.297 0.817,-0.624 1.193,-0.981 L 4.5,11.813 C 3.87,12.397 3.203,12.87 2.498,13.23 1.792,13.59 0.99,13.77 0.09,13.77 c -0.75,0 -1.444,-0.146 -2.081,-0.44 -0.638,-0.293 -1.185,-0.691 -1.643,-1.195 -0.457,-0.503 -0.817,-1.093 -1.08,-1.769 C -4.976,9.689 -5.107,8.968 -5.107,8.201 V 8.156 C -5.107,7.39 -4.98,6.664 -4.725,5.98 -4.47,5.297 -4.11,4.703 -3.645,4.199 -3.18,3.696 -2.629,3.298 -1.991,3.004 -1.354,2.711 -0.66,2.565 0.09,2.565 c 0.96,0 1.785,0.18 2.475,0.54 0.69,0.36 1.373,0.855 2.048,1.485 L 6.39,2.79 C 5.985,2.355 5.561,1.969 5.119,1.631 4.676,1.294 4.2,1.001 3.69,0.754 3.18,0.506 2.622,0.318 2.014,0.191 1.406,0.064 0.735,0 0,0"
           style="fill:#009a74;fill-opacity:1;fill-rule:nonzero;stroke:none"
           id="path2294" /></g><g
         id="g2296"
         transform="translate(495.4029,478.4619)"><path
           d="M 0,0 C -1.02,0 -1.943,0.146 -2.768,0.439 -3.593,0.731 -4.297,1.17 -4.882,1.755 -5.467,2.34 -5.917,3.063 -6.232,3.926 -6.547,4.789 -6.705,5.79 -6.705,6.93 v 9.068 h 2.767 V 7.042 c 0,-1.47 0.353,-2.584 1.058,-3.341 0.705,-0.757 1.68,-1.136 2.925,-1.136 1.23,0 2.197,0.364 2.903,1.091 0.704,0.728 1.057,1.819 1.057,3.274 v 9.068 H 6.772 V 7.065 C 6.772,5.895 6.611,4.868 6.289,3.982 5.966,3.097 5.513,2.359 4.928,1.766 4.343,1.173 3.634,0.731 2.801,0.439 1.969,0.146 1.035,0 0,0"
           style="fill:#009a74;fill-opacity:1;fill-rule:nonzero;stroke:none"
           id="path2298" /></g><g
         id="g2300"
         transform="translate(505.9776,494.4594)"><path
           d="m 0,0 h 2.768 v -13.23 h 8.279 v -2.52 H 0 Z"
           style="fill:#009a74;fill-opacity:1;fill-rule:nonzero;stroke:none"
           id="path2302" /></g><g
         id="g2304"
         transform="translate(521.5249,491.8945)"><path
           d="M 0,0 H -4.995 V 2.565 H 7.785 V 0 H 2.79 V -13.185 H 0 Z"
           style="fill:#009a74;fill-opacity:1;fill-rule:nonzero;stroke:none"
           id="path2306" /></g><g
         id="g2308"
         transform="translate(538.6924,478.4619)"><path
           d="M 0,0 C -1.02,0 -1.943,0.146 -2.768,0.439 -3.593,0.731 -4.297,1.17 -4.882,1.755 -5.467,2.34 -5.917,3.063 -6.232,3.926 -6.547,4.789 -6.705,5.79 -6.705,6.93 v 9.068 h 2.767 V 7.042 c 0,-1.47 0.353,-2.584 1.058,-3.341 0.705,-0.757 1.68,-1.136 2.925,-1.136 1.23,0 2.197,0.364 2.903,1.091 0.704,0.728 1.057,1.819 1.057,3.274 v 9.068 H 6.772 V 7.065 C 6.772,5.895 6.611,4.868 6.289,3.982 5.966,3.097 5.513,2.359 4.928,1.766 4.343,1.173 3.634,0.731 2.801,0.439 1.969,0.146 1.035,0 0,0"
           style="fill:#009a74;fill-opacity:1;fill-rule:nonzero;stroke:none"
           id="path2310" /></g><g
         id="g2312"
         transform="translate(556.0845,486.6518)"><path
           d="M 0,0 C 0.99,0 1.778,0.236 2.363,0.709 2.948,1.181 3.24,1.823 3.24,2.633 V 2.678 C 3.24,3.533 2.955,4.181 2.385,4.624 1.815,5.066 1.013,5.288 -0.022,5.288 H -4.05 V 0 Z m -6.817,7.808 h 7.02 C 1.193,7.808 2.07,7.669 2.835,7.392 3.6,7.114 4.238,6.728 4.748,6.232 5.167,5.797 5.49,5.295 5.715,4.725 5.94,4.155 6.053,3.525 6.053,2.835 V 2.79 C 6.053,1.5 5.704,0.461 5.006,-0.326 4.309,-1.114 3.413,-1.665 2.318,-1.98 L 6.57,-7.942 H 3.285 l -3.87,5.49 H -4.05 v -5.49 h -2.767 z"
           style="fill:#009a74;fill-opacity:1;fill-rule:nonzero;stroke:none"
           id="path2314" /></g><g
         id="g2316"
         transform="translate(575.0742,484.9643)"><path
           d="M 0,0 -2.723,6.3 -5.422,0 Z m -3.96,9.607 h 2.565 L 5.535,-6.255 H 2.61 l -1.597,3.803 h -7.448 l -1.62,-3.803 h -2.835 z"
           style="fill:#009a74;fill-opacity:1;fill-rule:nonzero;stroke:none"
           id="path2318" /></g><g
         id="g2320"
         transform="translate(582.0493,476.5942)"><path
           d="M 0,0 C 1.38,0.27 2.025,0.976 1.935,2.115 H 0.765 V 5.22 H 3.757 V 2.588 C 3.757,1.328 3.465,0.413 2.88,-0.157 2.295,-0.727 1.432,-1.064 0.292,-1.17 Z"
           style="fill:#009a74;fill-opacity:1;fill-rule:nonzero;stroke:none"
           id="path2322" /></g><g
         id="g2324"
         transform="translate(602.5239,478.4394)"><path
           d="M 0,0 C -1.155,0 -2.22,0.21 -3.195,0.63 -4.17,1.05 -5.014,1.624 -5.726,2.351 -6.439,3.079 -6.998,3.938 -7.402,4.928 -7.808,5.917 -8.01,6.975 -8.01,8.1 v 0.045 c 0,1.125 0.199,2.179 0.596,3.161 0.397,0.983 0.956,1.845 1.677,2.588 0.719,0.742 1.574,1.327 2.565,1.755 0.989,0.427 2.085,0.641 3.285,0.641 0.72,0 1.376,-0.06 1.969,-0.179 0.592,-0.118 1.136,-0.286 1.63,-0.501 0.496,-0.216 0.953,-0.472 1.373,-0.77 0.42,-0.297 0.817,-0.624 1.193,-0.981 L 4.5,11.813 C 3.87,12.397 3.203,12.87 2.498,13.23 1.792,13.59 0.99,13.77 0.09,13.77 c -0.75,0 -1.444,-0.146 -2.081,-0.44 -0.638,-0.293 -1.185,-0.691 -1.643,-1.195 -0.457,-0.503 -0.817,-1.093 -1.08,-1.769 C -4.976,9.689 -5.107,8.968 -5.107,8.201 V 8.156 C -5.107,7.39 -4.98,6.664 -4.725,5.98 -4.47,5.297 -4.11,4.703 -3.645,4.199 -3.18,3.696 -2.629,3.298 -1.991,3.004 -1.354,2.711 -0.66,2.565 0.09,2.565 c 0.96,0 1.785,0.18 2.475,0.54 0.69,0.36 1.373,0.855 2.048,1.485 L 6.39,2.79 C 5.985,2.355 5.561,1.969 5.119,1.631 4.676,1.294 4.2,1.001 3.69,0.754 3.18,0.506 2.622,0.318 2.014,0.191 1.406,0.064 0.735,0 0,0"
           style="fill:#009a74;fill-opacity:1;fill-rule:nonzero;stroke:none"
           id="path2326" /></g><path
         d="m 611.974,494.459 h 2.768 v -15.75 h -2.768 z"
         style="fill:#009a74;fill-opacity:1;fill-rule:nonzero;stroke:none"
         id="path2328" /><g
         id="g2330"
         transform="translate(623.5386,498.8017)"><path
           d="M 0,0 H 2.565 L 5.287,-3.037 H 2.992 L 1.26,-1.732 -0.473,-3.037 h -2.25 z M -4.59,-4.342 H 7.087 v -2.475 h -8.91 v -4.095 h 7.898 v -2.475 h -7.898 v -4.23 H 7.2 v -2.475 H -4.59 Z"
           style="fill:#009a74;fill-opacity:1;fill-rule:nonzero;stroke:none"
           id="path2332" /></g><g
         id="g2334"
         transform="translate(634.0234,494.4594)"><path
           d="m 0,0 h 2.565 l 8.437,-10.89 V 0 h 2.723 V -15.75 H 11.408 L 2.723,-4.545 V -15.75 H 0 Z"
           style="fill:#009a74;fill-opacity:1;fill-rule:nonzero;stroke:none"
           id="path2336" /></g><g
         id="g2338"
         transform="translate(659.1108,478.4394)"><path
           d="M 0,0 C -1.155,0 -2.22,0.21 -3.195,0.63 -4.17,1.05 -5.014,1.624 -5.726,2.351 -6.439,3.079 -6.998,3.938 -7.402,4.928 -7.808,5.917 -8.01,6.975 -8.01,8.1 v 0.045 c 0,1.125 0.199,2.179 0.596,3.161 0.397,0.983 0.956,1.845 1.677,2.588 0.719,0.742 1.574,1.327 2.565,1.755 0.989,0.427 2.085,0.641 3.285,0.641 0.72,0 1.376,-0.06 1.969,-0.179 0.592,-0.118 1.136,-0.286 1.63,-0.501 0.496,-0.216 0.953,-0.472 1.373,-0.77 0.42,-0.297 0.817,-0.624 1.193,-0.981 L 4.5,11.813 C 3.87,12.397 3.203,12.87 2.498,13.23 1.792,13.59 0.99,13.77 0.09,13.77 c -0.75,0 -1.444,-0.146 -2.081,-0.44 -0.638,-0.293 -1.185,-0.691 -1.643,-1.195 -0.457,-0.503 -0.817,-1.093 -1.08,-1.769 C -4.976,9.689 -5.107,8.968 -5.107,8.201 V 8.156 C -5.107,7.39 -4.98,6.664 -4.725,5.98 -4.47,5.297 -4.11,4.703 -3.645,4.199 -3.18,3.696 -2.629,3.298 -1.991,3.004 -1.354,2.711 -0.66,2.565 0.09,2.565 c 0.96,0 1.785,0.18 2.475,0.54 0.69,0.36 1.373,0.855 2.048,1.485 L 6.39,2.79 C 5.985,2.355 5.561,1.969 5.119,1.631 4.676,1.294 4.2,1.001 3.69,0.754 3.18,0.506 2.622,0.318 2.014,0.191 1.406,0.064 0.735,0 0,0"
           style="fill:#009a74;fill-opacity:1;fill-rule:nonzero;stroke:none"
           id="path2340" /></g><path
         d="m 668.561,494.459 h 2.768 v -15.75 h -2.768 z"
         style="fill:#009a74;fill-opacity:1;fill-rule:nonzero;stroke:none"
         id="path2342" /><g
         id="g2344"
         transform="translate(685.0752,484.9643)"><path
           d="M 0,0 -2.723,6.3 -5.422,0 Z m -3.96,9.607 h 2.565 L 5.535,-6.255 H 2.61 l -1.597,3.803 h -7.448 l -1.62,-3.803 h -2.835 z"
           style="fill:#009a74;fill-opacity:1;fill-rule:nonzero;stroke:none"
           id="path2346" /></g><g
         id="g2348"
         transform="translate(692.0503,476.5942)"><path
           d="M 0,0 C 1.38,0.27 2.025,0.976 1.935,2.115 H 0.765 V 5.22 H 3.757 V 2.588 C 3.757,1.328 3.465,0.413 2.88,-0.157 2.295,-0.727 1.432,-1.064 0.292,-1.17 Z"
           style="fill:#009a74;fill-opacity:1;fill-rule:nonzero;stroke:none"
           id="path2350" /></g><g
         id="g2352"
         transform="translate(709.0825,491.8945)"><path
           d="M 0,0 H -4.995 V 2.565 H 7.785 V 0 H 2.79 V -13.185 H 0 Z"
           style="fill:#009a74;fill-opacity:1;fill-rule:nonzero;stroke:none"
           id="path2354" /></g><g
         id="g2356"
         transform="translate(719.792,494.4594)"><path
           d="M 0,0 H 11.678 V -2.475 H 2.768 V -6.57 h 7.897 V -9.045 H 2.768 v -4.23 H 11.79 V -15.75 H 0 Z"
           style="fill:#009a74;fill-opacity:1;fill-rule:nonzero;stroke:none"
           id="path2358" /></g><g
         id="g2360"
         transform="translate(742.1797,478.4394)"><path
           d="M 0,0 C -1.155,0 -2.22,0.21 -3.195,0.63 -4.17,1.05 -5.014,1.624 -5.726,2.351 -6.439,3.079 -6.998,3.938 -7.402,4.928 -7.808,5.917 -8.01,6.975 -8.01,8.1 v 0.045 c 0,1.125 0.199,2.179 0.596,3.161 0.397,0.983 0.956,1.845 1.677,2.588 0.719,0.742 1.574,1.327 2.565,1.755 0.989,0.427 2.085,0.641 3.285,0.641 0.72,0 1.376,-0.06 1.969,-0.179 0.592,-0.118 1.136,-0.286 1.63,-0.501 0.496,-0.216 0.953,-0.472 1.373,-0.77 0.42,-0.297 0.817,-0.624 1.193,-0.981 L 4.5,11.813 C 3.87,12.397 3.203,12.87 2.498,13.23 1.792,13.59 0.99,13.77 0.09,13.77 c -0.75,0 -1.444,-0.146 -2.081,-0.44 -0.638,-0.293 -1.185,-0.691 -1.643,-1.195 -0.457,-0.503 -0.817,-1.093 -1.08,-1.769 C -4.976,9.689 -5.107,8.968 -5.107,8.201 V 8.156 C -5.107,7.39 -4.98,6.664 -4.725,5.98 -4.47,5.297 -4.11,4.703 -3.645,4.199 -3.18,3.696 -2.629,3.298 -1.991,3.004 -1.354,2.711 -0.66,2.565 0.09,2.565 c 0.96,0 1.785,0.18 2.475,0.54 0.69,0.36 1.373,0.855 2.048,1.485 L 6.39,2.79 C 5.985,2.355 5.561,1.969 5.119,1.631 4.676,1.294 4.2,1.001 3.69,0.754 3.18,0.506 2.622,0.318 2.014,0.191 1.406,0.064 0.735,0 0,0"
           style="fill:#009a74;fill-opacity:1;fill-rule:nonzero;stroke:none"
           id="path2362" /></g><g
         id="g2364"
         transform="translate(751.4722,494.4594)"><path
           d="m 0,0 h 2.565 l 8.437,-10.89 V 0 h 2.723 V -15.75 H 11.408 L 2.723,-4.545 V -15.75 H 0 Z"
           style="fill:#009a74;fill-opacity:1;fill-rule:nonzero;stroke:none"
           id="path2366" /></g><g
         id="g2368"
         transform="translate(776.8066,481.0043)"><path
           d="M 0,0 C 0.78,0 1.496,0.146 2.149,0.439 2.801,0.733 3.36,1.127 3.825,1.623 4.29,2.119 4.654,2.706 4.917,3.382 5.179,4.058 5.31,4.78 5.31,5.546 v 0.045 c 0,0.767 -0.131,1.492 -0.393,2.176 -0.263,0.684 -0.631,1.277 -1.103,1.781 -0.473,0.503 -1.039,0.906 -1.699,1.206 -0.66,0.301 -1.38,0.451 -2.16,0.451 -0.78,0 -1.496,-0.146 -2.149,-0.44 C -2.846,10.472 -3.405,10.074 -3.87,9.57 -4.335,9.067 -4.699,8.477 -4.961,7.801 -5.224,7.124 -5.355,6.403 -5.355,5.636 V 5.591 c 0,-0.766 0.131,-1.488 0.394,-2.164 0.262,-0.677 0.63,-1.27 1.102,-1.781 C -3.386,1.135 -2.82,0.733 -2.16,0.439 -1.5,0.146 -0.78,0 0,0 m -0.045,-2.565 c -1.215,0 -2.325,0.214 -3.33,0.641 -1.005,0.428 -1.868,1.009 -2.587,1.744 -0.721,0.735 -1.283,1.594 -1.688,2.576 -0.405,0.982 -0.607,2.029 -0.607,3.139 V 5.58 c 0,1.11 0.202,2.156 0.607,3.139 0.405,0.982 0.975,1.845 1.71,2.587 0.735,0.743 1.605,1.331 2.61,1.767 1.005,0.434 2.115,0.652 3.33,0.652 1.215,0 2.325,-0.214 3.33,-0.641 C 4.335,12.656 5.198,12.075 5.917,11.34 6.638,10.605 7.2,9.746 7.605,8.764 8.01,7.781 8.212,6.735 8.212,5.625 V 5.58 C 8.212,4.47 8.01,3.424 7.605,2.441 7.2,1.458 6.63,0.596 5.895,-0.146 5.16,-0.889 4.29,-1.478 3.285,-1.913 2.28,-2.347 1.17,-2.565 -0.045,-2.565"
           style="fill:#009a74;fill-opacity:1;fill-rule:nonzero;stroke:none"
           id="path2370" /></g><g
         id="g2372"
         transform="translate(788.3716,494.4594)"><path
           d="m 0,0 h 2.768 v -13.23 h 8.279 v -2.52 H 0 Z"
           style="fill:#009a74;fill-opacity:1;fill-rule:nonzero;stroke:none"
           id="path2374" /></g><g
         id="g2376"
         transform="translate(808.959,481.0043)"><path
           d="M 0,0 C 0.78,0 1.496,0.146 2.149,0.439 2.801,0.733 3.36,1.127 3.825,1.623 4.29,2.119 4.654,2.706 4.917,3.382 5.179,4.058 5.31,4.78 5.31,5.546 v 0.045 c 0,0.767 -0.131,1.492 -0.393,2.176 -0.263,0.684 -0.631,1.277 -1.103,1.781 -0.473,0.503 -1.039,0.906 -1.699,1.206 -0.66,0.301 -1.38,0.451 -2.16,0.451 -0.78,0 -1.496,-0.146 -2.149,-0.44 C -2.846,10.472 -3.405,10.074 -3.87,9.57 -4.335,9.067 -4.699,8.477 -4.961,7.801 -5.224,7.124 -5.355,6.403 -5.355,5.636 V 5.591 c 0,-0.766 0.131,-1.488 0.394,-2.164 0.262,-0.677 0.63,-1.27 1.102,-1.781 C -3.386,1.135 -2.82,0.733 -2.16,0.439 -1.5,0.146 -0.78,0 0,0 m -0.045,-2.565 c -1.215,0 -2.325,0.214 -3.33,0.641 -1.005,0.428 -1.868,1.009 -2.587,1.744 -0.721,0.735 -1.283,1.594 -1.688,2.576 -0.405,0.982 -0.607,2.029 -0.607,3.139 V 5.58 c 0,1.11 0.202,2.156 0.607,3.139 0.405,0.982 0.975,1.845 1.71,2.587 0.735,0.743 1.605,1.331 2.61,1.767 1.005,0.434 2.115,0.652 3.33,0.652 1.215,0 2.325,-0.214 3.33,-0.641 C 4.335,12.656 5.198,12.075 5.917,11.34 6.638,10.605 7.2,9.746 7.605,8.764 8.01,7.781 8.212,6.735 8.212,5.625 V 5.58 C 8.212,4.47 8.01,3.424 7.605,2.441 7.2,1.458 6.63,0.596 5.895,-0.146 5.16,-0.889 4.29,-1.478 3.285,-1.913 2.28,-2.347 1.17,-2.565 -0.045,-2.565"
           style="fill:#009a74;fill-opacity:1;fill-rule:nonzero;stroke:none"
           id="path2378" /></g><g
         id="g2380"
         transform="translate(827.9941,478.4394)"><path
           d="m 0,0 c -1.23,0 -2.348,0.207 -3.353,0.619 -1.005,0.412 -1.864,0.982 -2.576,1.71 -0.713,0.727 -1.264,1.582 -1.654,2.565 -0.39,0.982 -0.584,2.051 -0.584,3.206 v 0.045 c 0,1.095 0.198,2.138 0.596,3.127 0.397,0.991 0.956,1.857 1.676,2.599 0.72,0.743 1.579,1.331 2.576,1.767 0.998,0.434 2.089,0.652 3.274,0.652 0.69,0 1.316,-0.048 1.878,-0.145 0.563,-0.097 1.084,-0.234 1.564,-0.413 0.48,-0.178 0.934,-0.397 1.362,-0.657 0.427,-0.261 0.844,-0.562 1.248,-0.904 L 4.252,12.083 c -0.3,0.254 -0.607,0.487 -0.922,0.697 -0.315,0.21 -0.645,0.386 -0.99,0.529 -0.345,0.142 -0.724,0.254 -1.136,0.337 -0.413,0.083 -0.867,0.124 -1.362,0.124 -0.719,0 -1.391,-0.15 -2.013,-0.451 -0.623,-0.3 -1.163,-0.703 -1.621,-1.206 -0.457,-0.504 -0.817,-1.093 -1.08,-1.77 C -5.134,9.667 -5.265,8.953 -5.265,8.201 V 8.156 c 0,-0.811 0.127,-1.563 0.382,-2.254 C -4.628,5.21 -4.264,4.616 -3.792,4.121 -3.319,3.625 -2.756,3.234 -2.104,2.948 -1.451,2.663 -0.72,2.52 0.09,2.52 c 0.75,0 1.451,0.108 2.104,0.326 0.652,0.217 1.218,0.507 1.699,0.866 V 6.66 H -0.135 V 9.067 H 6.57 V 2.453 C 6.18,2.123 5.749,1.808 5.276,1.507 4.804,1.208 4.293,0.945 3.746,0.72 3.198,0.495 2.61,0.318 1.98,0.191 1.35,0.064 0.689,0 0,0"
           style="fill:#009a74;fill-opacity:1;fill-rule:nonzero;stroke:none"
           id="path2382" /></g><path
         d="m 838.321,494.459 h 2.768 v -15.75 h -2.768 z"
         style="fill:#009a74;fill-opacity:1;fill-rule:nonzero;stroke:none"
         id="path2384" /><g
         id="g2386"
         transform="translate(854.8359,484.9643)"><path
           d="M 0,0 -2.723,6.3 -5.422,0 Z m -3.96,9.607 h 2.565 L 5.535,-6.255 H 2.61 l -1.597,3.803 h -7.448 l -1.62,-3.803 h -2.835 z"
           style="fill:#009a74;fill-opacity:1;fill-rule:nonzero;stroke:none"
           id="path2388" /></g><g
         id="g2390"
         transform="translate(861.811,476.5942)"><path
           d="M 0,0 C 1.38,0.27 2.025,0.976 1.935,2.115 H 0.765 V 5.22 H 3.757 V 2.588 C 3.757,1.328 3.465,0.413 2.88,-0.157 2.295,-0.727 1.432,-1.064 0.292,-1.17 Z"
           style="fill:#009a74;fill-opacity:1;fill-rule:nonzero;stroke:none"
           id="path2392" /></g><g
         id="g2394"
         transform="translate(472.3404,465.2895)"><path
           d="M 0,0 H 11.678 V -2.475 H 2.768 V -6.57 h 7.897 V -9.045 H 2.768 v -4.23 H 11.79 V -15.75 H 0 Z"
           style="fill:#009a74;fill-opacity:1;fill-rule:nonzero;stroke:none"
           id="path2396" /></g><g
         id="g2398"
         transform="translate(492.9283,449.3144)"><path
           d="M 0,0 C -1.215,0 -2.378,0.207 -3.488,0.619 -4.598,1.031 -5.625,1.665 -6.57,2.52 l 1.665,1.98 c 0.765,-0.66 1.541,-1.167 2.329,-1.519 0.787,-0.352 1.668,-0.528 2.643,-0.528 0.855,0 1.534,0.183 2.037,0.551 0.502,0.367 0.753,0.844 0.753,1.429 V 4.478 C 2.857,4.762 2.809,5.014 2.711,5.231 2.613,5.449 2.434,5.655 2.171,5.85 1.909,6.045 1.548,6.225 1.091,6.39 0.633,6.555 0.037,6.72 -0.698,6.885 c -0.84,0.195 -1.586,0.416 -2.239,0.664 -0.652,0.247 -1.2,0.547 -1.642,0.9 -0.442,0.352 -0.78,0.783 -1.012,1.294 -0.233,0.509 -0.349,1.125 -0.349,1.844 v 0.046 c 0,0.675 0.135,1.293 0.405,1.856 0.27,0.562 0.641,1.042 1.114,1.44 0.472,0.397 1.038,0.709 1.698,0.934 0.66,0.224 1.38,0.337 2.161,0.337 1.154,0 2.193,-0.169 3.116,-0.506 0.922,-0.338 1.788,-0.829 2.598,-1.474 L 3.667,12.127 c -0.72,0.525 -1.432,0.927 -2.137,1.205 -0.705,0.277 -1.418,0.416 -2.137,0.416 -0.81,0 -1.44,-0.181 -1.891,-0.54 -0.45,-0.36 -0.674,-0.803 -0.674,-1.328 v -0.045 c 0,-0.3 0.052,-0.566 0.157,-0.799 0.105,-0.232 0.3,-0.442 0.585,-0.63 0.284,-0.187 0.667,-0.364 1.147,-0.529 C -0.803,9.712 -0.18,9.54 0.585,9.36 1.41,9.15 2.137,8.917 2.768,8.663 3.397,8.407 3.926,8.096 4.354,7.729 4.781,7.361 5.1,6.934 5.31,6.446 5.52,5.958 5.625,5.393 5.625,4.748 V 4.703 C 5.625,3.967 5.486,3.308 5.208,2.723 4.931,2.138 4.545,1.643 4.05,1.238 3.555,0.833 2.962,0.525 2.272,0.315 1.583,0.105 0.825,0 0,0"
           style="fill:#009a74;fill-opacity:1;fill-rule:nonzero;stroke:none"
           id="path2400" /></g><g
         id="g2402"
         transform="translate(507.8003,457.122)"><path
           d="M 0,0 C 1.05,0 1.879,0.261 2.486,0.784 3.094,1.307 3.398,1.979 3.398,2.801 V 2.846 C 3.398,3.772 3.09,4.471 2.475,4.941 1.86,5.412 1.035,5.647 0,5.647 H -3.217 V 0 Z m -5.985,8.167 h 6.21 C 1.14,8.167 1.969,8.044 2.711,7.796 3.454,7.549 4.084,7.192 4.602,6.728 5.119,6.262 5.516,5.707 5.794,5.062 6.071,4.417 6.21,3.697 6.21,2.902 V 2.857 C 6.21,1.972 6.045,1.196 5.715,0.529 5.385,-0.139 4.935,-0.698 4.365,-1.147 3.795,-1.598 3.128,-1.939 2.363,-2.171 1.598,-2.404 0.78,-2.52 -0.09,-2.52 h -3.127 v -5.063 h -2.768 z"
           style="fill:#009a74;fill-opacity:1;fill-rule:nonzero;stroke:none"
           id="path2404" /></g><g
         id="g2406"
         transform="translate(524.4053,451.8344)"><path
           d="M 0,0 C 0.78,0 1.496,0.146 2.149,0.439 2.801,0.733 3.36,1.127 3.825,1.623 4.29,2.119 4.654,2.706 4.917,3.382 5.179,4.058 5.31,4.78 5.31,5.546 v 0.045 c 0,0.767 -0.131,1.492 -0.393,2.176 -0.263,0.684 -0.631,1.277 -1.103,1.781 -0.473,0.503 -1.039,0.906 -1.699,1.206 -0.66,0.301 -1.38,0.451 -2.16,0.451 -0.78,0 -1.496,-0.146 -2.149,-0.44 C -2.846,10.472 -3.405,10.074 -3.87,9.57 -4.335,9.067 -4.699,8.477 -4.961,7.801 -5.224,7.124 -5.355,6.403 -5.355,5.636 V 5.591 c 0,-0.766 0.131,-1.488 0.394,-2.164 0.262,-0.677 0.63,-1.27 1.102,-1.781 C -3.386,1.135 -2.82,0.733 -2.16,0.439 -1.5,0.146 -0.78,0 0,0 m -0.045,-2.565 c -1.215,0 -2.325,0.214 -3.33,0.641 -1.005,0.428 -1.868,1.009 -2.587,1.744 -0.721,0.735 -1.283,1.594 -1.688,2.576 -0.405,0.982 -0.607,2.029 -0.607,3.139 V 5.58 c 0,1.11 0.202,2.156 0.607,3.139 0.405,0.982 0.975,1.845 1.71,2.587 0.735,0.743 1.605,1.331 2.61,1.767 1.005,0.434 2.115,0.652 3.33,0.652 1.215,0 2.325,-0.214 3.33,-0.641 C 4.335,12.656 5.198,12.075 5.917,11.34 6.638,10.605 7.2,9.746 7.605,8.764 8.01,7.781 8.212,6.735 8.212,5.625 V 5.58 C 8.212,4.47 8.01,3.424 7.605,2.441 7.2,1.458 6.63,0.596 5.895,-0.146 5.16,-0.889 4.29,-1.478 3.285,-1.913 2.28,-2.347 1.17,-2.565 -0.045,-2.565"
           style="fill:#009a74;fill-opacity:1;fill-rule:nonzero;stroke:none"
           id="path2408" /></g><g
         id="g2410"
         transform="translate(542.7876,457.4819)"><path
           d="M 0,0 C 0.99,0 1.778,0.236 2.363,0.709 2.948,1.181 3.24,1.823 3.24,2.633 V 2.678 C 3.24,3.533 2.955,4.181 2.385,4.624 1.815,5.066 1.013,5.288 -0.022,5.288 H -4.05 V 0 Z m -6.817,7.808 h 7.02 C 1.193,7.808 2.07,7.669 2.835,7.392 3.6,7.114 4.238,6.728 4.748,6.232 5.167,5.797 5.49,5.295 5.715,4.725 5.94,4.155 6.053,3.525 6.053,2.835 V 2.79 C 6.053,1.5 5.704,0.461 5.006,-0.326 4.309,-1.114 3.413,-1.665 2.318,-1.98 L 6.57,-7.942 H 3.285 l -3.87,5.49 H -4.05 v -5.49 h -2.767 z"
           style="fill:#009a74;fill-opacity:1;fill-rule:nonzero;stroke:none"
           id="path2412" /></g><g
         id="g2414"
         transform="translate(556.04,462.7245)"><path
           d="M 0,0 H -4.995 V 2.565 H 7.785 V 0 H 2.79 V -13.185 H 0 Z"
           style="fill:#009a74;fill-opacity:1;fill-rule:nonzero;stroke:none"
           id="path2416" /></g><g
         id="g2418"
         transform="translate(566.75,465.2895)"><path
           d="M 0,0 H 11.678 V -2.475 H 2.768 V -6.57 h 7.897 V -9.045 H 2.768 v -4.23 H 11.79 V -15.75 H 0 Z"
           style="fill:#009a74;fill-opacity:1;fill-rule:nonzero;stroke:none"
           id="path2420" /></g><g
         id="g2422"
         transform="translate(588.5747,465.2895)"><path
           d="M 0,0 H 11.678 V -2.475 H 2.768 V -6.57 h 7.897 V -9.045 H 2.768 v -4.23 H 11.79 V -15.75 H 0 Z"
           style="fill:#009a74;fill-opacity:1;fill-rule:nonzero;stroke:none"
           id="path2424" /></g><g
         id="g2426"
         transform="translate(610.3994,465.2895)"><path
           d="m 0,0 h 2.768 v -13.23 h 8.279 v -2.52 H 0 Z"
           style="fill:#009a74;fill-opacity:1;fill-rule:nonzero;stroke:none"
           id="path2428" /></g><g
         id="g2430"
         transform="translate(633.8667,455.7944)"><path
           d="M 0,0 -2.723,6.3 -5.422,0 Z m -3.96,9.607 h 2.565 L 5.535,-6.255 H 2.61 l -1.597,3.803 h -7.448 l -1.62,-3.803 h -2.835 z"
           style="fill:#009a74;fill-opacity:1;fill-rule:nonzero;stroke:none"
           id="path2432" /></g><g
         id="g2434"
         transform="translate(641.5391,451.5869)"><path
           d="m 0,0 9.292,11.25 h -9 v 2.453 H 12.915 V 11.655 L 3.6,0.405 h 9.315 V -2.047 H 0 Z"
           style="fill:#009a74;fill-opacity:1;fill-rule:nonzero;stroke:none"
           id="path2436" /></g><g
         id="g2438"
         transform="translate(657.8965,465.2895)"><path
           d="M 0,0 H 11.678 V -2.475 H 2.768 V -6.57 h 7.897 V -9.045 H 2.768 v -4.23 H 11.79 V -15.75 H 0 Z"
           style="fill:#009a74;fill-opacity:1;fill-rule:nonzero;stroke:none"
           id="path2440" /></g><g
         id="g2442"
         transform="translate(679.7886,457.4819)"><path
           d="M 0,0 C 0.99,0 1.778,0.236 2.363,0.709 2.948,1.181 3.24,1.823 3.24,2.633 V 2.678 C 3.24,3.533 2.955,4.181 2.385,4.624 1.815,5.066 1.013,5.288 -0.022,5.288 H -4.05 V 0 Z m -6.817,7.808 h 7.02 C 1.193,7.808 2.07,7.669 2.835,7.392 3.6,7.114 4.238,6.728 4.748,6.232 5.167,5.797 5.49,5.295 5.715,4.725 5.94,4.155 6.053,3.525 6.053,2.835 V 2.79 C 6.053,1.5 5.704,0.461 5.006,-0.326 4.309,-1.114 3.413,-1.665 2.318,-1.98 L 6.57,-7.942 H 3.285 l -3.87,5.49 H -4.05 v -5.49 h -2.767 z"
           style="fill:#009a74;fill-opacity:1;fill-rule:nonzero;stroke:none"
           id="path2444" /></g><g
         id="g2446"
         transform="translate(450.774,505.4965)"><path
           d="M 0,0 C -0.007,-0.001 -0.014,-0.002 -0.021,-0.002 L -0.01,0.001 Z"
           style="fill:#183041;fill-opacity:1;fill-rule:nonzero;stroke:none"
           id="path2448" /></g><g
         id="g2450"
         transform="translate(404.9546,520.3969)"><path
           d="m 0,0 c 0,-2.443 1.988,-4.431 4.431,-4.431 h 39.432 v 5.213 c 0,0.877 -0.71,1.587 -1.587,1.587 H 9.347 l 27.784,9.951 c 0.841,0.249 1.32,1.133 1.071,1.973 -0.249,0.841 -1.132,1.32 -1.973,1.071 L 7.656,5.179 30.835,21.393 c 0.724,0.495 0.909,1.482 0.415,2.207 -0.495,0.723 -1.483,0.909 -2.207,0.414 L 0,3.79 Z"
           style="fill:#de2027;fill-opacity:1;fill-rule:nonzero;stroke:none"
           id="path2452" /></g><g
         id="g2454"
         transform="translate(401.4097,524.187)"><path
           d="m 0,0 -29.043,20.224 c -0.724,0.495 -1.712,0.309 -2.207,-0.414 -0.494,-0.725 -0.309,-1.712 0.415,-2.207 L -7.656,1.389 -36.229,11.574 c -0.841,0.249 -1.724,-0.23 -1.973,-1.071 -0.249,-0.84 0.23,-1.724 1.071,-1.973 l 27.784,-9.951 h -32.929 c -0.877,0 -1.587,-0.71 -1.587,-1.587 V -8.221 H -4.431 C -1.988,-8.221 0,-6.233 0,-3.79 Z"
           style="fill:#de2027;fill-opacity:1;fill-rule:nonzero;stroke:none"
           id="path2456" /></g><g
         id="g2458"
         transform="translate(427.5801,556.1362)"><path
           d="m 0,0 c -12.428,15.833 -36.348,15.856 -48.793,0 -0.826,-1.052 -0.063,-2.582 1.254,-2.582 0.473,0 0.942,0.21 1.257,0.611 11.146,14.21 32.614,14.224 43.77,0 0.545,-0.693 1.548,-0.814 2.241,-0.269 C 0.423,-1.697 0.543,-0.693 0,0 m -42.298,-4.776 c -0.842,-1.049 -0.08,-2.594 1.244,-2.594 0.468,0 0.93,0.204 1.245,0.597 7.886,9.83 22.793,9.849 30.721,0.127 0.558,-0.683 1.563,-0.785 2.245,-0.228 0.684,0.557 0.785,1.562 0.229,2.246 -9.244,11.329 -26.528,11.268 -35.684,-0.148 m 7.723,-4.145 c -0.622,-0.623 -0.622,-1.634 0.001,-2.258 0.622,-0.623 1.633,-0.623 2.256,0 4.378,4.378 11.464,4.378 15.842,0 0.311,-0.311 0.72,-0.467 1.128,-0.467 1.408,0 2.137,1.716 1.129,2.725 -5.627,5.625 -14.729,5.625 -20.356,0 m 15.329,-10.178 c 0,-4.536 -5.528,-6.906 -8.793,-3.642 -3.258,3.255 -0.904,8.793 3.642,8.793 2.847,0 5.151,-2.303 5.151,-5.151"
           style="fill:#009a74;fill-opacity:1;fill-rule:nonzero;stroke:none"
           id="path2460" /></g></g></g></svg>
