<?xml version="1.0" encoding="UTF-8" standalone="no"?>
<!-- Created with Inkscape (http://www.inkscape.org/) -->

<svg
   version="1.1"
   id="svg2"
   xml:space="preserve"
   width="660"
   height="240"
   viewBox="0 0 660 240"
   sodipodi:docname="pmac-gira-renda-cabista-logo.svg"
   inkscape:version="1.1.1 (3bf5ae0d25, 2021-09-20)"
   xmlns:inkscape="http://www.inkscape.org/namespaces/inkscape"
   xmlns:sodipodi="http://sodipodi.sourceforge.net/DTD/sodipodi-0.dtd"
   xmlns="http://www.w3.org/2000/svg"
   xmlns:svg="http://www.w3.org/2000/svg"><defs
     id="defs6"><clipPath
       clipPathUnits="userSpaceOnUse"
       id="clipPath16"><path
         d="M 0,153.071 H 240.945 V 0 H 0 Z"
         id="path14" /></clipPath><linearGradient
       x1="0"
       y1="0"
       x2="1"
       y2="0"
       gradientUnits="userSpaceOnUse"
       gradientTransform="matrix(0,30.80744,30.80744,0,62.036293,69.815285)"
       spreadMethod="pad"
       id="linearGradient56"><stop
         style="stop-opacity:1;stop-color:#2f731f"
         offset="0"
         id="stop50" /><stop
         style="stop-opacity:1;stop-color:#9bb711"
         offset="0.55925909"
         id="stop52" /><stop
         style="stop-opacity:1;stop-color:#9bb711"
         offset="1"
         id="stop54" /></linearGradient><clipPath
       clipPathUnits="userSpaceOnUse"
       id="clipPath66"><path
         d="M 0,153.071 H 240.945 V 0 H 0 Z"
         id="path64" /></clipPath></defs><sodipodi:namedview
     id="namedview4"
     pagecolor="#ffffff"
     bordercolor="#666666"
     borderopacity="1.0"
     inkscape:pageshadow="2"
     inkscape:pageopacity="0.0"
     inkscape:pagecheckerboard="0"
     showgrid="false"
     width="1e-05px"
     lock-margins="false"
     inkscape:snap-global="false"
     inkscape:zoom="0.81089822"
     inkscape:cx="191.14606"
     inkscape:cy="-119.00384"
     inkscape:window-width="1600"
     inkscape:window-height="847"
     inkscape:window-x="-8"
     inkscape:window-y="-8"
     inkscape:window-maximized="1"
     inkscape:current-layer="g8" /><g
     id="g8"
     inkscape:groupmode="layer"
     inkscape:label="PMAC-Gira-Renda-Cabista-LOGO-VETOR"
     transform="matrix(1.3333333,0,0,-1.3333333,0,204.09467)"><g
       id="g144"
       transform="matrix(3.5624281,0,0,3.5624281,9.9999347,-374.44282)"><g
         id="g10"
         transform="matrix(0.89920504,0,0,0.89920504,-41.595565,54.074955)"><g
           id="g12"
           clip-path="url(#clipPath16)"><g
             id="g18"
             transform="translate(59.4162,66.7723)"><path
               d="M 0,0 H 3.552 L 2.874,-2.524 c 0.639,0.935 1.336,1.648 2.092,2.138 0.756,0.491 1.648,0.698 2.677,0.619 L 6.638,-3.482 H 6.45 C 5.266,-3.482 4.237,-3.841 3.366,-4.558 2.492,-5.274 1.838,-6.451 1.402,-8.086 L 0.21,-12.527 h -3.553 z"
               style="fill:#656263;fill-opacity:1;fill-rule:nonzero;stroke:none"
               id="path20" /></g><g
             id="g22"
             transform="translate(70.4943,63.1029)"><path
               d="m 0,0 c -0.437,-0.437 -0.772,-0.974 -1.005,-1.612 h 5.444 c 0.079,0.264 0.118,0.537 0.118,0.818 0,0.513 -0.161,0.95 -0.479,1.308 C 3.758,0.873 3.232,1.052 2.5,1.052 2.002,1.052 1.541,0.958 1.121,0.771 0.7,0.584 0.327,0.327 0,0 m -1.31,-3.833 c 0.063,-0.748 0.324,-1.344 0.784,-1.788 0.459,-0.444 1.157,-0.666 2.091,-0.666 0.468,0 0.919,0.078 1.356,0.234 0.436,0.156 0.911,0.412 1.426,0.771 l 1.635,-2.197 c -0.56,-0.467 -1.235,-0.86 -2.021,-1.18 -0.787,-0.32 -1.718,-0.479 -2.793,-0.479 -0.904,0 -1.715,0.128 -2.434,0.386 -0.72,0.256 -1.331,0.623 -1.832,1.098 -0.503,0.475 -0.886,1.055 -1.154,1.741 -0.267,0.685 -0.399,1.465 -0.399,2.337 0,0.982 0.199,1.94 0.595,2.875 0.398,0.935 0.954,1.76 1.671,2.477 0.655,0.655 1.414,1.173 2.28,1.555 0.864,0.381 1.827,0.572 2.885,0.572 0.811,0 1.535,-0.125 2.174,-0.374 C 5.593,3.28 6.13,2.937 6.566,2.501 7.003,2.064 7.334,1.55 7.561,0.958 7.785,0.366 7.899,-0.281 7.899,-0.981 7.899,-1.434 7.845,-1.901 7.735,-2.384 7.627,-2.867 7.472,-3.35 7.269,-3.833 Z"
               style="fill:#656263;fill-opacity:1;fill-rule:nonzero;stroke:none"
               id="path24" /></g><g
             id="g26"
             transform="translate(81.4083,66.7723)"><path
               d="M 0,0 3.553,-0.002 3.202,-1.32 c 0.452,0.407 0.958,0.769 1.52,1.083 0.56,0.314 1.191,0.47 1.892,0.47 1.115,0 2.004,-0.323 2.671,-0.969 0.665,-0.647 0.998,-1.539 0.998,-2.677 0,-0.358 -0.042,-0.743 -0.127,-1.156 C 10.07,-4.982 9.974,-5.391 9.865,-5.796 L 8.077,-12.527 H 4.534 l 1.847,6.855 c 0.046,0.17 0.085,0.36 0.116,0.57 0.032,0.21 0.047,0.393 0.047,0.548 0,0.497 -0.151,0.878 -0.456,1.142 -0.303,0.265 -0.729,0.397 -1.273,0.397 -0.702,0 -1.278,-0.229 -1.73,-0.688 C 2.634,-4.162 2.307,-4.764 2.104,-5.51 L 0.21,-12.527 h -3.552 z"
               style="fill:#656263;fill-opacity:1;fill-rule:nonzero;stroke:none"
               id="path28" /></g><g
             id="g30"
             transform="translate(98.8898,57.0028)"><path
               d="m 0,0 c 0.451,0 0.885,0.094 1.297,0.28 0.412,0.188 0.79,0.452 1.134,0.795 0.421,0.421 0.751,0.908 0.994,1.461 0.241,0.553 0.361,1.157 0.361,1.811 0,0.795 -0.249,1.438 -0.748,1.928 C 2.54,6.766 1.894,7.012 1.099,7.012 0.662,7.012 0.237,6.918 -0.176,6.731 -0.588,6.544 -0.958,6.287 -1.285,5.959 -1.69,5.555 -2.014,5.072 -2.256,4.511 -2.497,3.95 -2.617,3.319 -2.617,2.618 -2.617,1.792 -2.38,1.149 -1.904,0.69 -1.43,0.23 -0.795,0 0,0 M 2.057,-1.402 C 1.512,-1.9 0.962,-2.291 0.409,-2.571 c -0.554,-0.28 -1.18,-0.42 -1.882,-0.42 -0.685,0 -1.319,0.121 -1.904,0.362 -0.585,0.241 -1.095,0.592 -1.531,1.051 -0.437,0.46 -0.776,1.025 -1.017,1.695 -0.241,0.67 -0.362,1.426 -0.362,2.267 0,1.153 0.202,2.2 0.608,3.144 0.406,0.942 0.95,1.756 1.636,2.442 0.654,0.654 1.383,1.156 2.185,1.508 0.802,0.35 1.631,0.525 2.489,0.525 0.982,0 1.78,-0.187 2.396,-0.561 C 3.642,9.068 4.152,8.569 4.558,7.946 l 2.143,6.357 h 3.553 L 5.235,-2.757 H 1.683 Z"
               style="fill:#656263;fill-opacity:1;fill-rule:nonzero;stroke:none"
               id="path32" /></g><g
             id="g34"
             transform="translate(111.8136,56.4417)"><path
               d="m 0,0 c 0.374,0 0.728,0.066 1.063,0.199 0.334,0.132 0.642,0.316 0.923,0.55 0.282,0.233 0.522,0.502 0.725,0.805 0.203,0.304 0.35,0.627 0.444,0.97 L 3.248,2.852 C 2.937,2.976 2.578,3.082 2.173,3.167 1.769,3.252 1.347,3.296 0.912,3.296 0.022,3.296 -0.655,3.062 -1.122,2.594 -1.465,2.251 -1.636,1.831 -1.636,1.333 c 0,-0.39 0.148,-0.709 0.444,-0.958 C -0.896,0.125 -0.499,0 0,0 m -1.519,-2.43 c -0.545,0 -1.041,0.081 -1.484,0.245 -0.444,0.164 -0.826,0.398 -1.145,0.702 -0.32,0.303 -0.569,0.657 -0.748,1.063 -0.179,0.404 -0.269,0.857 -0.269,1.355 0,0.639 0.104,1.208 0.315,1.707 0.21,0.498 0.503,0.934 0.876,1.308 0.498,0.498 1.107,0.873 1.824,1.122 0.715,0.249 1.51,0.374 2.384,0.374 0.685,0 1.312,-0.05 1.88,-0.152 C 2.683,5.192 3.233,5.056 3.763,4.885 L 3.809,5.049 C 3.841,5.189 3.872,5.333 3.903,5.482 3.934,5.631 3.95,5.8 3.95,5.99 3.95,6.431 3.777,6.789 3.436,7.065 3.092,7.341 2.478,7.479 1.59,7.479 0.981,7.479 0.386,7.413 -0.199,7.281 -0.783,7.148 -1.302,6.988 -1.753,6.801 l -0.56,2.789 c 0.653,0.262 1.37,0.474 2.15,0.638 0.778,0.161 1.611,0.243 2.5,0.243 1.698,0 2.969,-0.336 3.809,-1.005 C 6.987,8.795 7.409,7.845 7.409,6.614 7.409,6.288 7.381,5.967 7.326,5.656 7.271,5.344 7.205,5.033 7.129,4.721 L 5.281,-2.196 H 1.846 L 2.22,-0.748 C 1.722,-1.293 1.161,-1.71 0.537,-1.998 -0.087,-2.286 -0.771,-2.43 -1.519,-2.43"
               style="fill:#656263;fill-opacity:1;fill-rule:nonzero;stroke:none"
               id="path36" /></g></g></g><g
         id="g38"
         transform="matrix(0.89920504,0,0,0.89920504,-41.595565,54.074955)"><g
           id="g40"><g
             id="g46"><g
               id="g48"><path
                 d="m 53.617,98.434 c -3.529,-2.115 -6.023,-5.478 -7.022,-9.469 v 0 c -0.999,-3.992 -0.384,-8.132 1.731,-11.661 v 0 c 2.115,-3.528 5.479,-6.022 9.469,-7.021 v 0 c 1.161,-0.291 2.334,-0.446 3.502,-0.465 v 0 c 2.846,-0.05 5.658,0.695 8.16,2.196 v 0 c 1.718,1.031 3.189,2.359 4.383,3.946 v 0 l -0.002,-3.792 4.102,-0.002 0.005,11.411 -10.81,-0.007 0.003,-4.102 3.525,0.003 c -0.133,-0.21 -0.269,-0.416 -0.414,-0.615 v 0 c -0.85,-1.164 -1.915,-2.135 -3.165,-2.885 v 0 C 64.613,74.488 61.71,74.059 58.916,74.758 v 0 c -2.796,0.7 -5.151,2.447 -6.632,4.919 v 0 c -1.483,2.471 -1.914,5.372 -1.214,8.167 v 0 c 0.7,2.796 2.447,5.151 4.918,6.633 v 0 c 5.103,3.059 11.742,1.396 14.802,-3.706 v 0 l 3.956,2.373 c -2.884,4.81 -7.998,7.478 -13.236,7.478 v 0 c -2.694,0.001 -5.42,-0.705 -7.893,-2.188"
                 style="fill:url(#linearGradient56);stroke:none"
                 id="path58" /></g></g></g></g><g
         id="g60"
         transform="matrix(0.89920504,0,0,0.89920504,-41.595565,54.074955)"><g
           id="g62"
           clip-path="url(#clipPath66)"><path
             d="m 81.334,72.166 h 4.298 v 22.055 h -4.298 z"
             style="fill:#3f9b2d;fill-opacity:1;fill-rule:nonzero;stroke:none"
             id="path68" /><g
             id="g70"
             transform="translate(93.3146,90.2611)"><path
               d="m 0,0 h 5.252 c 1.351,0 2.405,-0.287 3.136,-0.854 0.72,-0.559 1.07,-1.364 1.07,-2.459 V -3.375 C 9.458,-4.411 9.097,-5.206 8.354,-5.807 7.604,-6.412 6.571,-6.719 5.283,-6.719 H 0 Z M 26.558,-9.027 H 19.92 l 3.305,7.712 z m -1.351,13.14 h -3.844 l -8.522,-19.508 -3.973,5.571 c 1.385,0.457 2.546,1.207 3.454,2.232 0.992,1.121 1.495,2.612 1.495,4.432 v 0.062 c 0,0.972 -0.161,1.873 -0.479,2.679 C 13.02,0.387 12.557,1.109 11.955,1.733 11.234,2.432 10.324,2.984 9.248,3.375 8.179,3.763 6.937,3.959 5.561,3.959 H -4.298 V -18.095 H 0 v 7.509 h 4.35 l 5.216,-7.4 0.077,-0.109 h 2.018 3.106 1.333 l 2.215,5.2 h 9.847 l 2.185,-5.2 h 4.562 z"
               style="fill:#3f9b2d;fill-opacity:1;fill-rule:nonzero;stroke:none"
               id="path72" /></g><g
             id="g74"
             transform="translate(126.8663,54.1873)"><path
               d="m 0,0 c -0.911,0 -1.774,0.153 -2.59,0.459 -0.817,0.306 -1.53,0.745 -2.141,1.318 -0.612,0.574 -1.094,1.276 -1.449,2.108 -0.354,0.831 -0.531,1.766 -0.531,2.802 0,1.428 0.278,2.79 0.836,4.085 0.557,1.295 1.33,2.437 2.319,3.426 0.879,0.879 1.888,1.577 3.026,2.095 1.138,0.519 2.35,0.778 3.637,0.778 0.754,0 1.445,-0.091 2.073,-0.271 0.627,-0.181 1.196,-0.432 1.707,-0.754 0.51,-0.321 0.953,-0.698 1.331,-1.129 0.376,-0.433 0.69,-0.899 0.941,-1.402 L 8.1,12.95 c -0.267,0.455 -0.558,0.871 -0.871,1.248 -0.315,0.377 -0.676,0.695 -1.083,0.953 -0.409,0.26 -0.868,0.46 -1.378,0.601 -0.511,0.141 -1.087,0.212 -1.731,0.212 -1.1,0 -2.128,-0.22 -3.084,-0.66 -0.958,-0.441 -1.806,-1.03 -2.543,-1.769 -0.895,-0.896 -1.597,-1.938 -2.107,-3.125 -0.511,-1.187 -0.766,-2.417 -0.766,-3.691 0,-0.864 0.142,-1.642 0.424,-2.335 0.283,-0.691 0.671,-1.281 1.165,-1.768 0.494,-0.488 1.083,-0.862 1.767,-1.12 0.682,-0.26 1.423,-0.39 2.224,-0.39 1.224,0 2.273,0.224 3.144,0.671 0.871,0.448 1.683,1.048 2.437,1.802 L 6.521,2.825 C 6.146,2.433 5.737,2.063 5.298,1.718 4.858,1.373 4.371,1.073 3.838,0.819 3.304,0.565 2.719,0.365 2.083,0.219 1.448,0.073 0.753,0 0,0"
               style="fill:#3f9b2d;fill-opacity:1;fill-rule:nonzero;stroke:none"
               id="path76" /></g><g
             id="g78"
             transform="translate(139.0968,55.2703)"><path
               d="M 0,0 C 0.565,0 1.131,0.094 1.695,0.283 2.262,0.471 2.791,0.742 3.286,1.095 3.78,1.448 4.208,1.868 4.568,2.354 4.93,2.841 5.196,3.391 5.369,4.003 L 5.651,5.062 C 5.04,5.219 4.353,5.353 3.592,5.463 2.83,5.572 2.002,5.627 1.107,5.627 0.416,5.627 -0.196,5.529 -0.729,5.333 -1.263,5.137 -1.71,4.858 -2.071,4.498 -2.636,3.933 -2.919,3.25 -2.919,2.449 -2.919,1.695 -2.656,1.099 -2.13,0.66 -1.604,0.219 -0.894,0 0,0 m -0.235,-1.06 c -0.502,0 -0.989,0.071 -1.459,0.212 -0.472,0.142 -0.892,0.353 -1.26,0.636 -0.369,0.282 -0.664,0.631 -0.883,1.047 -0.221,0.417 -0.33,0.907 -0.33,1.473 0,0.58 0.105,1.109 0.313,1.589 0.208,0.478 0.496,0.898 0.865,1.26 0.485,0.486 1.092,0.859 1.819,1.118 0.729,0.259 1.539,0.389 2.432,0.389 0.86,0 1.693,-0.071 2.5,-0.212 C 4.568,6.311 5.269,6.153 5.864,5.981 l 0.094,0.33 c 0.047,0.171 0.087,0.371 0.118,0.598 0.03,0.226 0.047,0.425 0.047,0.597 0,0.904 -0.311,1.598 -0.931,2.081 -0.62,0.484 -1.518,0.726 -2.696,0.726 -0.659,0 -1.259,-0.055 -1.801,-0.165 -0.541,-0.11 -1.102,-0.267 -1.683,-0.47 L -1.2,10.722 c 0.596,0.225 1.188,0.397 1.777,0.517 0.589,0.12 1.26,0.18 2.014,0.18 1.474,0 2.621,-0.333 3.437,-1 C 6.844,9.752 7.253,8.838 7.253,7.676 7.253,7.456 7.233,7.205 7.194,6.922 7.155,6.64 7.096,6.365 7.018,6.098 L 5.181,-0.777 H 4.051 L 4.593,1.295 C 4.012,0.604 3.324,0.039 2.532,-0.4 1.739,-0.84 0.816,-1.06 -0.235,-1.06"
               style="fill:#3f9b2d;fill-opacity:1;fill-rule:nonzero;stroke:none"
               id="path80" /></g><g
             id="g82"
             transform="translate(153.7316,55.2938)"><path
               d="M 0,0 C 0.737,0 1.42,0.141 2.048,0.422 2.676,0.703 3.226,1.078 3.696,1.547 4.293,2.141 4.756,2.852 5.085,3.68 5.416,4.508 5.58,5.375 5.58,6.282 5.58,6.891 5.489,7.45 5.309,7.958 5.129,8.466 4.873,8.899 4.544,9.259 4.215,9.618 3.822,9.895 3.367,10.09 2.911,10.286 2.409,10.384 1.859,10.384 1.121,10.384 0.403,10.22 -0.295,9.892 -0.994,9.563 -1.625,9.118 -2.19,8.556 -2.771,7.978 -3.242,7.31 -3.604,6.551 -3.964,5.793 -4.145,5 -4.145,4.172 -4.145,3.594 -4.047,3.05 -3.851,2.543 -3.654,2.036 -3.372,1.594 -3.002,1.219 -2.635,0.844 -2.193,0.546 -1.685,0.329 -1.174,0.109 -0.612,0 0,0 m 0.047,-1.106 c -0.676,0 -1.276,0.093 -1.801,0.282 -0.527,0.188 -0.982,0.439 -1.366,0.753 -0.385,0.314 -0.711,0.675 -0.978,1.083 -0.266,0.408 -0.478,0.824 -0.635,1.248 l -0.825,-3.061 -1.153,0.007 4.615,17.182 h 1.154 L -2.991,8.854 c 0.596,0.721 1.311,1.342 2.143,1.859 0.831,0.518 1.782,0.778 2.849,0.778 0.69,0 1.33,-0.127 1.919,-0.377 C 4.509,10.863 5.019,10.513 5.45,10.066 5.883,9.619 6.22,9.085 6.463,8.465 6.706,7.845 6.828,7.166 6.828,6.428 6.828,5.298 6.624,4.258 6.216,3.309 5.808,2.358 5.259,1.538 4.568,0.848 3.955,0.236 3.26,-0.244 2.483,-0.588 1.707,-0.934 0.895,-1.106 0.047,-1.106"
               style="fill:#3f9b2d;fill-opacity:1;fill-rule:nonzero;stroke:none"
               id="path84" /></g><g
             id="g86"
             transform="translate(165.5382,71.2113)"><path
               d="M 0,0 H 1.437 L 1.013,-1.578 h -1.436 z m -1.13,-4.709 h 1.154 l -3.226,-12.009 h -1.153 z"
               style="fill:#3f9b2d;fill-opacity:1;fill-rule:nonzero;stroke:none"
               id="path88" /></g><g
             id="g90"
             transform="translate(169.3292,65.0067)"><path
               d="m 0,0 c 0.259,0.212 0.584,0.38 0.977,0.506 0.392,0.126 0.839,0.188 1.342,0.188 0.706,0 1.386,-0.141 2.037,-0.423 0.652,-0.283 1.205,-0.612 1.661,-0.989 L 6.771,0.153 C 6.268,0.577 5.631,0.95 4.862,1.271 4.532,1.409 4.192,1.503 3.848,1.582 L 4.392,3.54 H 3.238 L 2.734,1.725 C 2.634,1.73 2.539,1.754 2.438,1.754 1.763,1.754 1.149,1.664 0.601,1.483 0.051,1.303 -0.418,1.052 -0.807,0.73 -1.195,0.408 -1.497,0.035 -1.713,-0.389 -1.929,-0.812 -2.037,-1.26 -2.037,-1.731 c 0,-0.785 0.275,-1.413 0.825,-1.883 0.548,-0.471 1.396,-0.919 2.542,-1.343 0.519,-0.188 0.946,-0.376 1.284,-0.564 0.337,-0.189 0.604,-0.377 0.8,-0.566 0.196,-0.188 0.333,-0.385 0.412,-0.588 0.078,-0.204 0.117,-0.424 0.117,-0.66 0,-0.361 -0.089,-0.686 -0.27,-0.977 C 3.492,-8.603 3.257,-8.853 2.967,-9.065 2.677,-9.277 2.343,-9.438 1.966,-9.548 1.59,-9.658 1.213,-9.713 0.836,-9.713 c -0.801,0 -1.569,0.145 -2.308,0.436 -0.737,0.29 -1.435,0.757 -2.095,1.401 l -0.824,-0.825 c 0.691,-0.691 1.475,-1.208 2.354,-1.553 0.462,-0.182 0.932,-0.312 1.41,-0.398 l -0.515,-1.907 h 1.154 l 0.485,1.796 c 0.065,-0.002 0.131,-0.009 0.197,-0.009 0.613,0 1.19,0.09 1.732,0.271 0.541,0.18 1.017,0.431 1.428,0.753 0.412,0.322 0.738,0.706 0.978,1.154 0.239,0.447 0.359,0.93 0.359,1.448 0,0.36 -0.058,0.686 -0.176,0.977 -0.118,0.29 -0.305,0.565 -0.565,0.824 -0.259,0.259 -0.596,0.507 -1.012,0.741 -0.416,0.236 -0.923,0.472 -1.519,0.708 -0.565,0.219 -1.021,0.423 -1.365,0.611 -0.346,0.188 -0.621,0.373 -0.825,0.554 -0.204,0.18 -0.341,0.365 -0.413,0.553 -0.069,0.188 -0.105,0.4 -0.105,0.636 0,0.282 0.066,0.557 0.2,0.824 C -0.455,-0.452 -0.259,-0.212 0,0"
               style="fill:#3f9b2d;fill-opacity:1;fill-rule:nonzero;stroke:none"
               id="path92" /></g><g
             id="g94"
             transform="translate(179.7843,54.2811)"><path
               d="m 0,0 c -0.801,0 -1.48,0.188 -2.037,0.565 -0.557,0.377 -0.836,0.981 -0.836,1.813 0,0.188 0.015,0.389 0.047,0.601 0.031,0.211 0.062,0.396 0.095,0.553 l 2.048,7.629 h -1.743 l 0.282,1.06 H -0.4 l 1.036,3.838 H 1.789 L 0.754,12.221 H 4.897 L 4.615,11.161 H 0.471 L -1.578,3.508 C -1.61,3.352 -1.637,3.179 -1.66,2.99 -1.685,2.802 -1.695,2.638 -1.695,2.496 c 0,-0.502 0.175,-0.868 0.529,-1.095 0.354,-0.227 0.828,-0.341 1.424,-0.341 0.503,0 1.084,0.125 1.743,0.377 L 1.695,0.307 C 1.381,0.181 1.099,0.099 0.848,0.059 0.597,0.02 0.312,0 0,0"
               style="fill:#3f9b2d;fill-opacity:1;fill-rule:nonzero;stroke:none"
               id="path96" /></g><g
             id="g98"
             transform="translate(187.5646,55.2703)"><path
               d="M 0,0 C 0.565,0 1.13,0.094 1.695,0.283 2.262,0.471 2.79,0.742 3.286,1.095 3.78,1.448 4.207,1.868 4.568,2.354 4.93,2.841 5.195,3.391 5.369,4.003 L 5.651,5.062 C 5.04,5.219 4.353,5.353 3.591,5.463 2.83,5.572 2.002,5.627 1.107,5.627 0.416,5.627 -0.196,5.529 -0.729,5.333 -1.263,5.137 -1.71,4.858 -2.071,4.498 -2.637,3.933 -2.919,3.25 -2.919,2.449 -2.919,1.695 -2.657,1.099 -2.13,0.66 -1.604,0.219 -0.895,0 0,0 m -0.235,-1.06 c -0.502,0 -0.989,0.071 -1.46,0.212 -0.471,0.142 -0.891,0.353 -1.26,0.636 -0.368,0.282 -0.663,0.631 -0.882,1.047 -0.221,0.417 -0.331,0.907 -0.331,1.473 0,0.58 0.106,1.109 0.314,1.589 0.208,0.478 0.496,0.898 0.865,1.26 0.485,0.486 1.092,0.859 1.819,1.118 0.729,0.259 1.539,0.389 2.431,0.389 0.861,0 1.694,-0.071 2.501,-0.212 C 4.568,6.311 5.269,6.153 5.864,5.981 l 0.094,0.33 c 0.047,0.171 0.086,0.371 0.118,0.598 0.03,0.226 0.047,0.425 0.047,0.597 0,0.904 -0.311,1.598 -0.931,2.081 -0.621,0.484 -1.518,0.726 -2.696,0.726 -0.659,0 -1.259,-0.055 -1.801,-0.165 -0.541,-0.11 -1.103,-0.267 -1.683,-0.47 l -0.213,1.044 c 0.597,0.225 1.189,0.397 1.778,0.517 0.589,0.12 1.26,0.18 2.014,0.18 1.474,0 2.621,-0.333 3.437,-1 C 6.844,9.752 7.253,8.838 7.253,7.676 7.253,7.456 7.233,7.205 7.194,6.922 7.154,6.64 7.096,6.365 7.018,6.098 L 5.181,-0.777 H 4.051 L 4.593,1.295 C 4.011,0.604 3.324,0.039 2.532,-0.4 1.739,-0.84 0.816,-1.06 -0.235,-1.06"
               style="fill:#3f9b2d;fill-opacity:1;fill-rule:nonzero;stroke:none"
               id="path100" /></g><g
             id="g102"
             transform="translate(64.5812,79.2806)"><path
               d="m 0,0 c -2.297,-1.197 -5.091,-0.946 -7.118,0.637 -1.374,1.072 -2.146,2.576 -2.314,4.467 l 1.054,-0.828 c 0.088,-0.069 0.193,-0.103 0.298,-0.103 0.143,0 0.283,0.063 0.379,0.184 0.164,0.209 0.128,0.513 -0.081,0.677 l -2.027,1.591 c -0.174,0.138 -0.42,0.138 -0.595,0 L -12.43,5.034 c -0.209,-0.164 -0.245,-0.468 -0.081,-0.677 0.164,-0.209 0.468,-0.246 0.677,-0.081 l 0.918,0.722 c 0.201,-2.305 1.183,-4.214 2.879,-5.538 1.447,-1.129 3.188,-1.709 4.952,-1.709 1.171,0 2.354,0.256 3.464,0.777 l 0.246,0.115 v 1.683 z"
               style="fill:#656263;fill-opacity:1;fill-rule:nonzero;stroke:none"
               id="path104" /></g></g></g></g></g></svg>
